{"glyphs":{"0":{"ha":257,"x_min":null,"x_max":null,"o":"m 239 776 b 129 926 239 878 200 926 b 17 775 56 926 17 874 l 17 147 b 129 -4 17 49 56 -4 b 239 144 200 -4 239 43 z m 163 144 b 128 67 163 92 150 67 b 93 144 104 67 93 93 l 93 778 b 128 856 93 829 104 856 b 163 778 150 856 163 829 z "},"1":{"ha":149,"x_min":null,"x_max":null,"o":"m 132 0 l 132 922 l 67 922 b 11 878 63 894 51 878 l 11 817 l 57 817 l 57 0 z "},"2":{"ha":247,"x_min":null,"x_max":null,"o":"m 233 0 l 233 68 l 94 68 l 94 296 b 117 358 94 318 97 335 b 204 447 140 388 179 417 b 233 538 225 472 233 496 l 233 817 b 126 926 233 892 213 926 b 18 804 32 926 18 885 l 18 638 l 92 638 l 92 811 b 126 854 92 839 100 854 b 160 814 151 854 160 840 l 160 540 b 143 482 160 510 156 499 b 51 389 122 456 79 424 b 17 279 25 356 17 325 l 17 0 z "},"3":{"ha":247,"x_min":null,"x_max":null,"o":"m 235 410 b 181 488 235 460 211 482 l 181 493 b 228 565 213 499 228 525 l 228 824 b 124 926 228 874 197 926 b 17 807 56 926 17 882 l 17 661 l 89 661 l 89 815 b 124 854 89 839 101 854 b 157 815 146 854 157 838 l 157 558 b 121 521 157 535 149 521 l 89 521 l 89 456 l 119 456 b 158 417 147 456 158 442 l 158 108 b 124 67 158 81 147 67 b 89 108 101 67 89 81 l 89 268 l 17 268 l 17 113 b 125 -4 17 33 54 -4 b 235 114 197 -4 235 38 z "},"4":{"ha":253,"x_min":null,"x_max":null,"o":"m 135 308 l 65 308 l 129 693 l 135 693 z m 208 0 l 208 244 l 242 244 l 242 308 l 208 308 l 208 922 l 115 922 l 11 307 l 11 244 l 133 244 l 133 0 z "},"5":{"ha":251,"x_min":null,"x_max":null,"o":"m 235 474 b 153 569 235 549 197 569 b 92 536 122 569 106 558 l 86 536 l 93 854 l 221 854 l 221 922 l 26 922 l 17 478 l 93 478 b 126 504 101 499 111 504 b 158 467 144 504 158 494 l 158 108 b 124 67 158 81 147 67 b 89 108 104 67 89 78 l 89 238 l 17 238 l 17 111 b 125 -4 17 19 71 -4 b 235 114 197 -4 235 38 z "},"6":{"ha":251,"x_min":null,"x_max":null,"o":"m 235 483 b 161 567 235 536 206 567 b 99 529 131 567 113 553 l 93 529 l 93 813 b 128 854 93 839 104 854 b 161 814 150 854 161 840 l 161 690 l 235 690 l 235 818 b 128 926 235 889 196 926 b 17 806 54 926 17 883 l 17 114 b 126 -4 17 38 53 -4 b 235 113 197 -4 235 33 z m 161 108 b 128 67 161 81 150 67 b 93 108 104 67 93 81 l 93 469 b 131 503 99 492 113 503 b 161 465 150 503 161 490 z "},"7":{"ha":208,"x_min":null,"x_max":null,"o":"m 118 0 b 197 858 118 256 144 633 l 197 922 l 11 922 l 11 851 l 131 851 b 42 0 82 638 44 256 z "},"8":{"ha":247,"x_min":null,"x_max":null,"o":"m 156 554 b 124 515 156 529 149 515 b 90 554 97 515 90 529 l 90 815 b 124 854 90 838 100 854 b 156 815 146 854 156 838 z m 158 108 b 124 67 158 81 147 67 b 89 108 100 67 89 81 l 89 414 b 124 450 89 438 97 450 b 158 414 149 450 158 438 z m 235 406 b 181 483 235 456 211 478 l 181 489 b 228 561 213 496 228 519 l 228 824 b 124 926 228 875 197 926 b 18 824 50 926 18 875 l 18 561 b 65 489 18 519 33 496 l 65 483 b 11 406 35 478 11 456 l 11 114 b 124 -4 11 38 49 -4 b 235 114 197 -4 235 38 z "},"9":{"ha":251,"x_min":null,"x_max":null,"o":"m 158 110 b 124 68 158 82 147 68 b 90 107 101 68 90 81 l 90 246 l 18 246 l 18 103 b 124 -4 18 33 56 -4 b 235 117 197 -4 235 39 l 235 807 b 125 926 235 885 199 926 b 17 808 54 926 17 889 l 17 468 b 90 385 17 417 44 385 b 153 424 119 385 139 399 l 158 424 z m 158 482 b 121 450 151 460 139 450 b 89 486 100 450 89 463 l 89 814 b 124 856 89 842 101 856 b 158 814 147 856 158 840 z "},"\u0000":{"ha":0,"x_min":null,"x_max":null,"o":""}," ":{"ha":83,"x_min":null,"x_max":null,"o":""},"\u0017":{"ha":83,"x_min":null,"x_max":null,"o":""},"!":{"ha":126,"x_min":null,"x_max":null,"o":"m 100 0 l 100 114 l 24 114 l 24 0 z m 89 218 b 103 436 99 286 103 360 l 103 922 l 22 922 l 22 411 b 36 218 22 343 29 279 z "},"\"":{"ha":182,"x_min":null,"x_max":null,"o":"m 75 664 l 75 933 l 17 933 l 17 664 z m 164 664 l 164 933 l 106 933 l 106 664 z "},"#":{"ha":274,"x_min":null,"x_max":null,"o":"m 94 0 l 108 304 l 150 304 l 136 0 l 189 0 l 203 304 l 239 304 l 244 356 l 204 356 l 215 578 l 250 578 l 256 629 l 218 629 l 232 922 l 179 922 l 165 629 l 122 629 l 136 922 l 83 922 l 69 629 l 33 629 l 29 578 l 67 578 l 56 356 l 22 356 l 18 304 l 54 304 l 40 0 z m 121 578 l 163 578 l 151 356 l 110 356 z "},"$":{"ha":267,"x_min":null,"x_max":null,"o":"m 161 -83 l 161 10 b 249 129 222 19 249 57 l 249 358 b 215 450 249 403 235 429 b 119 519 190 475 156 489 b 96 590 99 538 96 544 l 96 810 b 132 844 96 829 107 844 b 168 804 157 844 168 829 l 168 650 l 240 650 l 240 789 b 161 910 240 856 217 899 l 161 1014 l 103 1014 l 103 913 b 18 797 32 906 18 857 l 18 561 b 60 465 18 519 36 489 b 149 399 90 436 124 424 b 167 344 160 388 167 374 l 167 117 b 128 76 167 93 157 76 b 89 118 101 76 89 92 l 89 276 l 17 276 l 17 128 b 103 10 17 56 43 18 l 103 -83 z "},"%":{"ha":276,"x_min":null,"x_max":null,"o":"m 76 -15 l 244 940 l 197 940 l 31 -15 z m 119 850 b 64 924 119 900 99 924 b 7 850 26 924 7 899 l 7 586 b 64 510 7 536 26 510 b 119 585 99 510 119 535 z m 78 585 b 64 549 78 560 74 549 b 49 585 53 549 49 560 l 49 850 b 64 886 49 874 53 886 b 78 850 74 886 78 875 z m 269 338 b 214 411 269 388 249 411 b 157 338 176 411 157 386 l 157 74 b 214 -3 157 24 176 -3 b 269 72 249 -3 269 22 z m 228 72 b 214 36 228 47 224 36 b 199 72 203 36 199 47 l 199 338 b 214 374 199 361 203 374 b 228 338 224 374 228 363 z "},"&":{"ha":250,"x_min":null,"x_max":null,"o":"m 17 114 b 128 -4 17 38 54 -4 b 235 113 199 -4 235 35 l 235 521 l 168 521 l 168 108 b 132 67 168 81 157 67 b 94 108 107 67 94 81 l 94 417 b 128 456 94 443 103 456 l 146 456 l 146 521 l 131 521 b 96 560 103 521 96 529 l 96 811 b 129 850 96 833 106 850 l 156 850 l 156 922 l 128 922 b 22 818 54 922 22 871 l 22 567 b 71 494 22 525 39 500 l 71 489 b 17 411 42 483 17 461 z "},"'":{"ha":92,"x_min":null,"x_max":null,"o":"m 75 664 l 75 933 l 17 933 l 17 664 z "},"(":{"ha":157,"x_min":null,"x_max":null,"o":"m 147 -199 b 96 413 113 -8 96 210 b 147 1011 96 618 113 831 l 94 1011 b 29 414 51 847 29 626 b 94 -199 29 197 53 -33 z "},")":{"ha":157,"x_min":null,"x_max":null,"o":"m 64 -199 b 128 415 106 -33 128 197 b 64 1011 128 626 106 849 l 11 1011 b 63 414 44 832 63 618 b 11 -199 63 210 44 -7 z "},"*":{"ha":228,"x_min":null,"x_max":null,"o":"m 193 750 l 147 815 l 219 838 l 206 876 l 135 853 l 135 933 l 90 933 l 90 853 l 19 876 l 8 838 l 79 815 l 33 750 l 68 726 l 113 788 l 160 726 z "},"+":{"ha":238,"x_min":null,"x_max":null,"o":"m 147 363 l 147 436 l 221 436 l 221 493 l 147 493 l 147 567 l 89 567 l 89 493 l 17 493 l 17 436 l 89 436 l 89 363 z "},",":{"ha":110,"x_min":null,"x_max":null,"o":"m 17 -175 b 92 -60 65 -164 92 -128 l 92 114 l 17 114 l 17 0 l 50 0 l 50 -69 b 17 -132 50 -100 38 -119 z "},"-":{"ha":119,"x_min":null,"x_max":null,"o":"m 106 390 l 106 456 l 13 456 l 13 390 z "},".":{"ha":110,"x_min":null,"x_max":null,"o":"m 92 0 l 92 114 l 17 114 l 17 0 z "},"/":{"ha":147,"x_min":null,"x_max":null,"o":"m 60 0 l 147 922 l 86 922 l 0 0 z "},":":{"ha":110,"x_min":null,"x_max":null,"o":"m 92 67 l 92 181 l 17 181 l 17 67 z m 92 493 l 92 608 l 17 608 l 17 493 z "},";":{"ha":110,"x_min":null,"x_max":null,"o":"m 92 493 l 92 608 l 17 608 l 17 493 z m 17 -108 b 92 7 65 -97 92 -61 l 92 181 l 17 181 l 17 67 l 50 67 l 50 -3 b 17 -65 50 -33 38 -53 z "},"<":{"ha":238,"x_min":null,"x_max":null,"o":"m 221 335 l 221 399 l 82 458 l 82 464 l 221 522 l 221 589 l 17 492 l 17 431 z "},"=":{"ha":238,"x_min":null,"x_max":null,"o":"m 221 514 l 221 572 l 17 572 l 17 514 z m 221 351 l 221 408 l 17 408 l 17 351 z "},">":{"ha":238,"x_min":null,"x_max":null,"o":"m 221 431 l 221 492 l 17 589 l 17 522 l 156 464 l 156 458 l 17 399 l 17 335 z "},"?":{"ha":240,"x_min":null,"x_max":null,"o":"m 157 0 l 157 103 l 82 103 l 82 0 z m 156 207 l 156 318 b 168 419 156 374 157 393 b 214 508 178 442 208 496 b 225 611 222 528 225 549 l 225 789 b 121 926 225 886 207 926 b 11 779 24 926 11 875 l 11 654 l 85 654 l 85 811 b 118 854 85 840 90 854 b 151 811 143 854 151 843 l 151 611 b 142 529 151 561 149 546 b 96 444 133 513 101 457 b 83 331 88 426 83 393 l 83 207 z "},"@":{"ha":326,"x_min":null,"x_max":null,"o":"m 257 -51 b 169 -65 231 -61 201 -65 b 65 99 90 -65 65 -40 l 65 650 b 164 819 65 794 82 819 b 261 654 238 819 261 799 l 261 204 b 243 174 261 182 257 174 b 228 192 231 174 228 181 l 228 628 l 194 628 l 192 611 l 188 611 b 149 632 179 625 167 632 b 100 563 118 632 100 613 l 100 210 b 151 132 100 160 117 132 b 192 154 165 132 179 136 l 197 154 b 242 132 206 140 219 132 b 308 214 285 132 308 161 l 308 656 b 165 867 308 793 303 867 b 17 650 22 867 17 786 l 17 97 b 168 -117 17 -37 21 -117 b 271 -97 213 -117 249 -110 z m 146 567 b 165 590 146 582 151 590 b 188 563 179 590 188 581 l 188 218 b 165 178 188 188 179 178 b 146 217 151 178 146 188 z "},"A":{"ha":258,"x_min":null,"x_max":null,"o":"m 251 0 l 189 922 l 67 922 l 6 0 l 81 0 l 93 238 l 161 238 l 175 0 z m 125 789 l 131 789 l 157 304 l 97 304 z "},"B":{"ha":253,"x_min":null,"x_max":null,"o":"m 154 0 b 240 81 217 0 240 28 l 240 407 b 188 483 240 460 219 478 l 188 489 b 233 563 219 496 233 521 l 233 826 b 144 922 233 888 210 922 l 17 922 l 17 0 z m 163 106 b 128 67 163 79 153 67 l 93 67 l 93 450 l 128 450 b 163 413 153 450 163 439 z m 161 554 b 129 515 161 525 149 515 l 93 515 l 93 856 l 129 856 b 161 810 153 856 161 840 z "},"C":{"ha":251,"x_min":null,"x_max":null,"o":"m 161 108 b 126 67 161 81 150 67 b 93 110 104 67 93 79 l 93 813 b 128 854 93 839 104 854 b 161 811 150 854 161 839 l 161 592 l 235 592 l 235 804 b 129 926 235 893 196 926 b 17 806 53 926 17 883 l 17 114 b 128 -4 17 38 54 -4 b 235 113 197 -4 235 33 l 235 376 l 161 376 z "},"D":{"ha":257,"x_min":null,"x_max":null,"o":"m 132 0 b 239 114 203 0 239 36 l 239 814 b 132 922 239 885 203 922 l 17 922 l 17 0 z m 93 69 l 93 851 l 122 851 b 161 808 147 851 161 842 l 161 118 b 128 69 161 86 151 69 z "},"E":{"ha":201,"x_min":null,"x_max":null,"o":"m 192 0 l 192 69 l 93 69 l 93 449 l 176 449 l 176 518 l 93 518 l 93 851 l 186 851 l 186 922 l 17 922 l 17 0 z "},"F":{"ha":201,"x_min":null,"x_max":null,"o":"m 94 0 l 94 438 l 175 438 l 175 507 l 94 507 l 94 851 l 190 851 l 190 922 l 17 922 l 17 0 z "},"G":{"ha":251,"x_min":null,"x_max":null,"o":"m 235 0 l 235 464 l 122 464 l 122 394 l 161 394 l 161 104 b 126 67 158 78 146 67 b 93 108 104 67 93 81 l 93 813 b 126 854 93 839 104 854 b 161 811 150 854 161 839 l 161 638 l 235 638 l 235 804 b 125 926 235 881 197 926 b 17 806 54 926 17 882 l 17 114 b 114 -4 17 39 53 -4 b 176 29 149 -4 167 11 l 182 29 l 185 0 z "},"H":{"ha":260,"x_min":null,"x_max":null,"o":"m 242 0 l 242 922 l 164 922 l 164 525 l 94 525 l 94 922 l 17 922 l 17 0 l 94 0 l 94 457 l 164 457 l 164 0 z "},"I":{"ha":111,"x_min":null,"x_max":null,"o":"m 94 0 l 94 922 l 17 922 l 17 0 z "},"J":{"ha":246,"x_min":null,"x_max":null,"o":"m 153 108 b 118 67 153 81 142 67 b 85 108 96 67 85 81 l 85 340 l 11 340 l 11 113 b 119 -4 11 33 49 -4 b 229 114 192 -4 229 38 l 229 922 l 153 922 z "},"K":{"ha":256,"x_min":null,"x_max":null,"o":"m 249 0 l 176 565 l 250 922 l 172 922 l 100 563 l 94 563 l 94 922 l 17 922 l 17 0 l 94 0 l 94 290 l 118 396 l 121 396 l 171 0 z "},"L":{"ha":207,"x_min":null,"x_max":null,"o":"m 196 0 l 196 71 l 94 71 l 94 922 l 17 922 l 17 0 z "},"M":{"ha":365,"x_min":null,"x_max":null,"o":"m 349 0 l 349 922 l 229 922 l 186 229 l 181 229 l 138 922 l 17 922 l 17 0 l 85 0 l 85 426 b 82 744 85 678 83 711 l 88 744 l 146 0 l 218 0 l 276 744 l 282 744 b 279 426 281 710 279 456 l 279 0 z "},"N":{"ha":272,"x_min":null,"x_max":null,"o":"m 256 0 l 256 922 l 190 922 l 190 596 b 194 190 190 328 193 247 l 189 190 l 128 922 l 17 922 l 17 0 l 79 0 l 79 401 b 76 739 79 629 79 693 l 82 739 l 154 0 z "},"O":{"ha":251,"x_min":null,"x_max":null,"o":"m 236 804 b 125 926 236 881 196 926 b 14 806 54 926 14 882 l 14 114 b 126 -4 14 38 53 -4 b 236 113 197 -4 236 33 z m 160 108 b 125 67 160 81 147 67 b 90 108 101 67 90 81 l 90 813 b 125 854 90 839 103 854 b 160 811 147 854 160 839 z "},"P":{"ha":249,"x_min":null,"x_max":null,"o":"m 147 360 b 236 454 213 360 236 394 l 236 826 b 147 922 236 886 213 922 l 17 922 l 17 0 l 94 0 l 94 360 z m 94 851 l 131 851 b 163 818 154 851 163 840 l 163 467 b 131 428 163 442 154 428 l 94 428 z "},"Q":{"ha":250,"x_min":null,"x_max":null,"o":"m 236 804 b 121 926 236 881 193 926 b 14 803 47 926 14 881 l 14 119 b 92 4 14 54 43 15 l 92 -221 b 185 -324 92 -279 114 -324 b 278 -221 256 -324 278 -279 l 278 -31 l 210 -31 l 210 -228 b 183 -254 210 -246 201 -254 b 158 -228 167 -254 158 -244 l 158 3 b 236 118 206 14 236 53 z m 160 113 b 124 71 160 83 147 71 b 90 114 100 71 90 85 l 90 810 b 124 854 90 838 100 854 b 160 810 147 854 160 836 z "},"R":{"ha":251,"x_min":null,"x_max":null,"o":"m 93 0 l 93 421 l 131 421 b 163 386 154 421 163 408 l 163 0 l 238 0 l 238 379 b 189 453 238 428 219 446 l 189 458 b 236 531 218 465 236 489 l 236 826 b 147 922 236 888 213 922 l 17 922 l 17 0 z m 161 522 b 129 483 161 496 150 483 l 93 483 l 93 851 l 129 851 b 161 818 151 851 161 842 z "},"S":{"ha":261,"x_min":null,"x_max":null,"o":"m 238 635 l 238 804 b 126 926 238 876 204 926 b 15 817 51 926 15 881 l 15 672 b 39 535 15 618 24 567 b 138 414 60 490 104 456 b 165 294 160 386 165 371 l 165 106 b 128 67 165 81 154 67 b 86 110 99 67 86 82 l 86 276 l 14 276 l 14 124 b 132 -4 14 40 49 -4 b 246 118 211 -4 246 36 l 246 326 b 218 440 246 385 240 410 b 115 557 189 481 153 506 b 93 664 99 579 93 592 l 93 818 b 129 854 93 839 104 854 b 165 813 154 854 165 838 l 165 635 z "},"T":{"ha":243,"x_min":null,"x_max":null,"o":"m 160 0 l 160 851 l 232 851 l 232 922 l 11 922 l 11 851 l 82 851 l 82 0 z "},"U":{"ha":256,"x_min":null,"x_max":null,"o":"m 161 108 b 126 67 161 81 150 67 b 92 108 104 67 92 81 l 92 922 l 17 922 l 17 113 b 128 -4 17 33 57 -4 b 238 114 200 -4 238 38 l 238 922 l 161 922 z "},"V":{"ha":258,"x_min":null,"x_max":null,"o":"m 189 0 l 251 922 l 176 922 l 132 169 l 126 169 l 82 922 l 6 922 l 67 0 z "},"W":{"ha":381,"x_min":null,"x_max":null,"o":"m 160 0 l 188 744 l 193 744 l 221 0 l 332 0 l 375 922 l 301 922 l 276 163 l 271 163 l 235 922 l 146 922 l 111 163 l 106 163 l 79 922 l 6 922 l 49 0 z "},"X":{"ha":271,"x_min":null,"x_max":null,"o":"m 185 922 l 139 578 l 133 578 l 86 922 l 8 922 l 82 465 l 6 0 l 83 0 l 132 364 l 138 364 l 185 0 l 264 0 l 189 482 l 261 922 z "},"Y":{"ha":256,"x_min":null,"x_max":null,"o":"m 168 0 l 168 381 l 251 922 l 172 922 l 132 575 l 126 575 l 83 922 l 4 922 l 90 381 l 90 0 z "},"Z":{"ha":233,"x_min":null,"x_max":null,"o":"m 222 0 l 222 69 l 88 69 l 218 853 l 218 922 l 13 922 l 13 851 l 144 851 l 11 71 l 11 0 z "},"[":{"ha":157,"x_min":null,"x_max":null,"o":"m 147 -181 l 147 -119 l 89 -119 l 89 936 l 147 936 l 147 999 l 31 999 l 31 -181 z "},"\\":{"ha":147,"x_min":null,"x_max":null,"o":"m 147 0 l 61 922 l 0 922 l 86 0 z "},"]":{"ha":157,"x_min":null,"x_max":null,"o":"m 126 -181 l 126 999 l 11 999 l 11 936 l 68 936 l 68 -119 l 11 -119 l 11 -181 z "},"^":{"ha":238,"x_min":null,"x_max":null,"o":"m 6 626 l 69 626 l 115 840 l 121 840 l 168 626 l 233 626 l 157 922 l 82 922 z "},"_":{"ha":171,"x_min":null,"x_max":null,"o":"m 172 -126 l 172 -76 l 0 -76 l 0 -126 z "},"`":{"ha":175,"x_min":null,"x_max":null,"o":"m 129 704 l 158 733 l 56 872 l 17 828 z "},"a":{"ha":246,"x_min":null,"x_max":null,"o":"m 156 88 b 117 60 149 69 138 60 b 86 93 97 60 86 69 l 86 292 b 118 339 86 317 92 329 b 156 356 133 344 144 346 z m 228 0 l 228 599 b 128 679 228 653 194 679 b 18 593 58 679 18 651 l 18 457 l 88 457 l 88 585 b 122 614 88 604 100 614 b 154 588 144 614 154 606 l 154 425 b 99 383 154 401 133 394 b 13 278 33 363 13 342 l 13 75 b 83 -4 13 26 31 -4 b 153 35 126 -4 142 15 l 158 35 l 160 0 z "},"b":{"ha":251,"x_min":null,"x_max":null,"o":"m 158 100 b 128 60 158 71 144 60 b 90 111 106 60 96 78 l 90 553 b 126 614 96 594 103 614 b 158 575 146 614 158 600 z m 85 0 l 86 42 l 92 42 b 158 -4 108 6 131 -4 b 232 90 200 -4 232 15 l 232 569 b 161 679 232 654 210 679 b 96 640 128 679 114 667 l 90 640 l 90 933 l 18 933 l 18 0 z "},"c":{"ha":246,"x_min":null,"x_max":null,"o":"m 157 101 b 124 63 157 75 146 63 b 90 101 101 63 90 75 l 90 572 b 124 613 90 599 101 613 b 157 572 146 613 157 599 l 157 431 l 226 431 l 226 572 b 124 679 226 643 196 679 b 18 572 51 679 18 643 l 18 101 b 124 -4 18 29 51 -4 b 226 101 196 -4 226 31 l 226 247 l 157 247 z "},"d":{"ha":251,"x_min":null,"x_max":null,"o":"m 93 575 b 126 614 93 601 104 614 b 161 567 149 614 156 601 l 161 104 b 125 60 156 74 147 60 b 93 100 104 60 93 72 z m 232 0 l 232 933 l 158 933 l 158 640 l 153 640 b 94 679 140 668 122 679 b 18 593 47 679 18 647 l 18 81 b 93 -4 18 28 46 -4 b 158 42 126 -4 147 11 l 164 42 l 167 0 z "},"e":{"ha":249,"x_min":null,"x_max":null,"o":"m 231 231 l 157 231 l 157 100 b 124 60 157 74 146 60 b 90 100 101 60 90 74 l 90 322 l 231 322 l 231 572 b 124 679 231 643 196 679 b 18 572 51 679 18 643 l 18 101 b 124 -4 18 29 51 -4 b 231 101 196 -4 231 31 z m 157 375 l 90 375 l 90 574 b 124 613 90 601 101 613 b 157 574 146 613 157 601 z "},"f":{"ha":194,"x_min":null,"x_max":null,"o":"m 185 675 l 124 675 l 124 831 b 158 867 124 856 135 867 l 183 867 l 183 933 l 158 933 b 49 831 85 933 49 897 l 49 675 l 10 675 l 10 608 l 49 608 l 49 0 l 124 0 l 124 608 l 185 608 z "},"g":{"ha":251,"x_min":null,"x_max":null,"o":"m 232 -218 l 232 675 l 167 675 l 164 632 l 158 632 b 94 679 144 663 128 679 b 18 589 47 679 18 646 l 18 85 b 89 0 18 24 43 0 b 153 39 122 0 142 13 l 158 39 l 158 -218 b 125 -257 158 -243 147 -257 b 92 -218 103 -257 92 -243 l 92 -42 l 19 -42 l 19 -218 b 125 -324 19 -289 53 -324 b 232 -218 197 -324 232 -289 z m 93 575 b 126 614 93 601 104 614 b 161 568 146 614 156 600 l 161 110 b 125 68 156 82 146 68 b 93 107 106 68 93 79 z "},"h":{"ha":253,"x_min":null,"x_max":null,"o":"m 235 0 l 235 585 b 167 679 235 650 217 679 b 97 631 131 679 111 663 l 92 631 l 92 933 l 18 933 l 18 0 l 92 0 l 92 575 b 129 614 97 603 108 614 b 160 578 149 614 160 601 l 160 0 z "},"i":{"ha":111,"x_min":null,"x_max":null,"o":"m 92 0 l 92 675 l 18 675 l 18 0 z m 92 736 l 92 840 l 18 840 l 18 736 z "},"j":{"ha":119,"x_min":null,"x_max":null,"o":"m -114 -218 b -7 -324 -114 -289 -79 -324 b 100 -218 65 -324 100 -289 l 100 675 l 25 675 l 25 -218 b -8 -257 25 -243 14 -257 b -42 -218 -32 -257 -42 -243 l -42 -37 l -114 -37 z m 100 736 l 100 840 l 25 840 l 25 736 z "},"k":{"ha":250,"x_min":null,"x_max":null,"o":"m 244 0 l 172 382 l 246 675 l 168 675 l 97 388 l 92 388 l 92 933 l 18 933 l 18 0 l 92 0 l 92 188 l 114 269 l 118 269 l 168 0 z "},"l":{"ha":111,"x_min":null,"x_max":null,"o":"m 92 0 l 92 933 l 18 933 l 18 0 z "},"m":{"ha":388,"x_min":null,"x_max":null,"o":"m 369 0 l 369 592 b 294 679 369 647 338 679 b 224 626 265 679 240 664 b 154 679 214 660 189 679 b 94 632 128 679 110 665 l 89 632 l 88 675 l 18 675 l 18 0 l 92 0 l 92 579 b 128 614 99 601 107 614 b 157 578 147 614 157 603 l 157 0 l 229 0 l 229 579 b 264 614 236 603 244 614 b 294 578 283 614 294 603 l 294 0 z "},"n":{"ha":253,"x_min":null,"x_max":null,"o":"m 235 0 l 235 592 b 165 679 235 650 210 679 b 94 632 133 679 110 665 l 89 632 l 88 675 l 18 675 l 18 0 l 92 0 l 92 579 b 128 614 100 603 108 614 b 160 578 149 614 160 603 l 160 0 z "},"o":{"ha":249,"x_min":null,"x_max":null,"o":"m 229 572 b 124 679 229 644 196 679 b 18 572 51 679 18 644 l 18 101 b 124 -4 18 29 51 -4 b 229 101 196 -4 229 29 z m 157 101 b 124 63 157 75 146 63 b 90 101 101 63 90 75 l 90 572 b 124 613 90 599 101 613 b 157 572 146 613 157 599 z "},"p":{"ha":251,"x_min":null,"x_max":null,"o":"m 158 100 b 125 60 158 72 146 60 b 90 96 104 60 94 71 l 90 579 b 125 614 94 603 104 614 b 158 575 146 614 158 601 z m 90 -324 l 90 36 l 96 36 b 157 -4 108 7 129 -4 b 232 81 204 -4 232 28 l 232 593 b 156 679 232 647 204 679 b 92 632 125 679 107 664 l 86 632 l 85 675 l 18 675 l 18 -324 z "},"q":{"ha":251,"x_min":null,"x_max":null,"o":"m 365 -37 l 293 -37 l 293 -218 b 264 -257 293 -244 283 -257 b 232 -217 243 -257 232 -244 l 232 675 l 167 675 l 164 631 l 160 631 b 93 679 144 664 126 679 b 18 593 46 679 18 647 l 18 92 b 92 -4 18 26 39 -4 b 154 36 124 -4 142 7 l 158 36 l 158 -218 b 263 -324 158 -289 193 -324 b 365 -218 333 -324 365 -289 z m 93 575 b 125 614 93 601 104 614 b 161 572 146 614 154 601 l 161 104 b 125 60 156 74 147 60 b 93 100 104 60 93 72 z "},"r":{"ha":190,"x_min":null,"x_max":null,"o":"m 92 0 l 92 543 b 153 611 97 593 115 611 b 181 606 165 611 174 610 l 181 674 b 156 679 174 676 165 679 b 94 626 125 679 107 660 l 89 626 l 88 675 l 18 675 l 18 0 z "},"s":{"ha":244,"x_min":null,"x_max":null,"o":"m 225 468 l 225 583 b 121 679 225 643 190 679 b 18 594 54 679 18 647 l 18 457 b 47 357 18 404 25 382 b 125 297 68 335 99 318 b 156 239 149 278 156 268 l 156 88 b 121 56 156 65 144 56 b 85 90 96 56 85 65 l 85 217 l 15 217 l 15 92 b 125 -4 15 28 47 -4 b 229 89 197 -4 229 25 l 229 239 b 194 342 229 303 219 321 b 114 394 171 361 143 372 b 89 457 93 411 89 419 l 89 588 b 122 617 89 608 101 617 b 156 586 146 617 156 607 l 156 468 z "},"t":{"ha":238,"x_min":null,"x_max":null,"o":"m 156 101 b 125 63 156 75 146 63 b 90 101 101 63 90 75 l 90 608 l 218 608 l 218 675 l 90 675 l 90 860 l 18 860 l 18 101 b 124 -4 18 29 51 -4 b 218 101 196 -4 218 29 l 218 381 l 156 381 z "},"u":{"ha":251,"x_min":null,"x_max":null,"o":"m 18 675 l 18 106 b 92 -4 18 49 25 -4 b 157 42 125 -4 140 8 l 163 42 l 164 0 l 233 0 l 233 675 l 160 675 l 160 107 b 124 60 156 74 147 60 b 93 106 100 60 93 74 l 93 675 z "},"v":{"ha":236,"x_min":null,"x_max":null,"o":"m 171 0 l 231 675 l 161 675 l 122 139 l 117 139 l 78 675 l 4 675 l 65 0 z "},"w":{"ha":347,"x_min":null,"x_max":null,"o":"m 146 0 l 171 524 l 176 524 l 200 0 l 304 0 l 343 675 l 272 675 l 253 160 l 247 160 l 215 675 l 131 675 l 100 160 l 94 160 l 75 675 l 4 675 l 43 0 z "},"x":{"ha":247,"x_min":null,"x_max":null,"o":"m 167 675 l 129 432 l 124 432 l 82 675 l 7 675 l 71 343 l 4 0 l 79 0 l 119 257 l 125 257 l 167 0 l 243 0 l 176 353 l 240 675 z "},"y":{"ha":251,"x_min":null,"x_max":null,"o":"m 93 675 l 18 675 l 18 104 b 92 0 18 28 46 0 b 154 39 124 0 142 11 l 158 39 l 158 -218 b 125 -257 158 -243 147 -257 b 92 -218 103 -257 92 -243 l 92 -42 l 19 -42 l 19 -218 b 125 -324 19 -289 53 -324 b 232 -218 197 -324 232 -289 l 232 675 l 161 675 l 161 111 b 125 68 156 83 149 68 b 93 107 104 68 93 79 z "},"z":{"ha":211,"x_min":null,"x_max":null,"o":"m 200 0 l 200 68 l 81 68 l 197 607 l 197 675 l 13 675 l 13 608 l 129 608 l 13 69 l 13 0 z "},"{":{"ha":157,"x_min":null,"x_max":null,"o":"m 147 -182 l 147 -124 l 135 -124 b 110 -92 118 -124 110 -112 l 110 342 b 75 407 110 378 99 399 l 75 413 b 110 478 99 422 110 442 l 110 908 b 135 942 110 931 118 942 l 147 942 l 147 1000 l 111 1000 b 51 908 72 1000 51 969 l 51 478 b 18 440 51 454 40 440 l 18 379 b 51 342 40 379 51 367 l 51 -92 b 111 -182 51 -151 72 -182 z "},"|":{"ha":138,"x_min":null,"x_max":null,"o":"m 97 -174 l 97 1022 l 39 1022 l 39 -174 z "},"}":{"ha":157,"x_min":null,"x_max":null,"o":"m 46 -182 b 106 -92 85 -182 106 -151 l 106 342 b 139 379 106 367 117 379 l 139 440 b 106 478 117 440 106 454 l 106 908 b 46 1000 106 969 85 1000 l 10 1000 l 10 942 l 22 942 b 47 908 39 942 47 931 l 47 478 b 82 413 47 442 58 422 l 82 407 b 47 342 58 399 47 378 l 47 -92 b 22 -124 47 -112 39 -124 l 10 -124 l 10 -182 z "},"~":{"ha":238,"x_min":null,"x_max":null,"o":"m 164 426 b 221 447 186 426 206 433 l 221 508 b 165 485 206 492 185 485 b 72 503 135 485 110 503 b 17 482 44 503 28 493 l 17 419 b 71 444 33 436 50 444 b 164 426 103 444 128 426 z "}," ":{"ha":83,"x_min":null,"x_max":null,"o":""},"¡":{"ha":126,"x_min":null,"x_max":null,"o":"m 26 683 l 26 568 l 101 568 l 101 683 z m 36 464 b 22 247 28 396 22 324 l 22 -239 l 103 -239 l 103 272 b 89 464 103 340 97 404 z "},"¢":{"ha":243,"x_min":null,"x_max":null,"o":"m 151 -4 l 151 121 b 225 225 203 131 225 164 l 225 375 l 156 375 l 156 219 b 122 181 156 193 144 181 b 89 219 100 181 89 193 l 89 718 b 122 758 89 744 100 758 b 156 718 144 758 156 744 l 156 567 l 225 567 l 225 713 b 151 817 225 772 203 808 l 151 931 l 93 931 l 93 817 b 17 713 40 808 17 772 l 17 225 b 93 121 17 163 40 129 l 93 -4 z "},"£":{"ha":251,"x_min":null,"x_max":null,"o":"m 233 428 l 93 428 l 93 814 b 128 856 93 840 104 856 b 161 814 150 856 161 842 l 161 563 l 233 563 l 233 808 b 128 926 233 888 199 926 b 17 807 54 926 17 885 l 17 0 l 233 0 l 233 71 l 93 71 l 93 358 l 233 358 z "},"¤":{"ha":296,"x_min":null,"x_max":null,"o":"m 243 324 l 279 361 l 243 396 b 261 457 253 413 261 435 b 243 521 261 479 253 503 l 279 554 l 243 590 l 210 554 b 149 572 192 564 169 572 b 88 554 126 572 104 564 l 54 590 l 18 554 l 54 519 b 36 458 44 503 36 479 b 56 396 36 436 44 413 l 17 361 l 54 324 l 89 361 b 149 343 106 350 128 343 b 208 361 169 343 192 350 z m 217 458 b 149 388 217 417 188 388 b 81 457 110 388 81 417 b 149 528 81 497 110 528 b 217 458 188 528 217 497 z "},"¥":{"ha":256,"x_min":null,"x_max":null,"o":"m 165 0 l 165 154 l 233 154 l 233 201 l 165 201 l 165 342 l 233 342 l 233 388 l 165 388 l 165 424 l 251 922 l 175 922 l 132 581 l 126 581 l 82 922 l 4 922 l 93 424 l 93 388 l 29 388 l 29 342 l 93 342 l 93 201 l 29 201 l 29 154 l 93 154 l 93 0 z "},"¦":{"ha":138,"x_min":null,"x_max":null,"o":"m 97 -174 l 97 360 l 39 360 l 39 -174 z m 97 494 l 97 1022 l 39 1022 l 39 494 z "},"§":{"ha":211,"x_min":null,"x_max":null,"o":"m 196 90 b 171 158 196 122 188 143 b 196 229 188 174 196 196 l 196 511 b 94 633 196 593 139 594 b 78 664 81 646 78 651 l 78 846 b 106 872 78 860 86 872 b 132 840 124 872 132 861 l 132 721 l 189 721 l 189 835 b 103 926 189 890 163 926 b 18 846 49 926 18 894 l 18 668 b 53 589 18 633 29 608 b 18 521 31 576 18 551 l 18 247 b 132 88 18 142 132 144 l 132 -111 b 104 -140 132 -131 124 -140 b 74 -110 82 -140 74 -129 l 74 21 l 17 21 l 17 -99 b 107 -194 17 -161 43 -194 b 196 -103 168 -194 196 -165 z m 132 215 b 125 194 132 206 129 199 b 78 243 90 211 78 228 l 78 526 b 97 553 78 539 83 549 b 132 508 124 535 132 526 z "},"¨":{"ha":208,"x_min":null,"x_max":null,"o":"m 85 736 l 85 840 l 17 840 l 17 736 z m 192 736 l 192 840 l 124 840 l 124 736 z "},"©":{"ha":257,"x_min":null,"x_max":null,"o":"m 239 804 b 128 926 239 881 199 926 b 17 806 57 926 17 882 l 17 114 b 129 -4 17 38 56 -4 b 239 113 200 -4 239 33 z m 208 113 b 129 26 208 54 181 26 b 46 114 75 26 46 57 l 46 806 b 128 896 46 863 76 896 b 208 804 179 896 208 863 z m 179 519 l 179 618 b 128 675 179 653 161 675 b 79 619 96 675 79 654 l 79 299 b 129 243 79 264 96 243 b 179 297 163 243 179 263 l 179 421 l 149 421 l 149 296 b 128 272 149 279 142 272 b 110 297 114 272 110 281 l 110 622 b 129 646 110 638 117 646 b 149 622 142 646 149 638 l 149 519 z "},"ª":{"ha":164,"x_min":null,"x_max":null,"o":"m 99 571 b 78 553 96 561 90 553 b 61 572 67 553 61 560 l 61 692 b 78 719 61 707 64 714 b 99 729 86 722 93 724 z m 146 514 l 146 876 b 83 926 146 911 124 926 b 18 872 42 926 18 910 l 18 792 l 64 792 l 64 868 b 81 885 64 879 68 885 b 97 869 93 885 97 881 l 97 775 b 67 750 97 761 88 757 b 15 683 28 738 15 724 l 15 563 b 57 511 15 531 26 511 b 96 535 83 511 92 525 l 100 535 l 101 514 z "},"«":{"ha":206,"x_min":null,"x_max":null,"o":"m 81 296 l 114 321 l 51 442 l 114 561 l 81 588 l 7 442 z m 165 296 l 199 321 l 136 442 l 199 561 l 165 588 l 92 442 z "},"¬":{"ha":238,"x_min":null,"x_max":null,"o":"m 221 140 l 221 618 l 17 618 l 17 560 l 164 560 l 164 140 z "},"®":{"ha":200,"x_min":null,"x_max":null,"o":"m 183 835 b 99 926 183 893 153 926 b 17 836 47 926 17 893 l 17 485 b 100 396 17 426 46 396 b 183 483 154 396 183 424 z m 160 483 b 100 419 160 439 139 419 b 40 485 60 419 40 442 l 40 836 b 99 903 40 879 63 903 b 160 835 138 903 160 879 z m 139 533 l 139 639 b 124 664 139 654 133 661 l 124 668 b 139 692 133 669 139 676 l 139 779 b 107 813 139 800 131 813 l 61 813 l 61 533 l 86 533 l 86 654 l 100 654 b 115 642 110 654 115 650 l 115 533 z m 114 689 b 100 675 114 679 108 675 l 86 675 l 86 790 l 100 790 b 114 776 110 790 114 786 z "},"¯":{"ha":200,"x_min":null,"x_max":null,"o":"m 182 740 l 182 788 l 17 788 l 17 740 z "},"°":{"ha":119,"x_min":null,"x_max":null,"o":"m 60 794 b 111 864 96 794 111 815 b 60 933 111 913 96 933 b 8 864 22 933 8 913 b 60 794 8 815 22 794 z m 60 822 b 38 864 43 822 38 832 b 60 906 38 896 43 906 b 82 864 75 906 82 896 b 60 822 82 832 75 822 z "},"±":{"ha":238,"x_min":null,"x_max":null,"o":"m 147 363 l 147 436 l 221 436 l 221 493 l 147 493 l 147 567 l 89 567 l 89 493 l 17 493 l 17 436 l 89 436 l 89 363 z m 221 196 l 221 254 l 17 254 l 17 196 z "},"²":{"ha":139,"x_min":null,"x_max":null,"o":"m 125 513 l 125 549 l 58 549 l 58 636 b 69 671 58 650 61 660 b 108 714 79 683 103 708 b 125 768 118 725 125 744 l 125 869 b 71 924 125 907 114 924 b 17 864 24 924 17 904 l 17 769 l 57 769 l 57 867 b 71 886 57 879 61 886 b 85 869 81 886 85 881 l 85 768 b 76 733 85 751 83 743 b 35 688 67 724 47 706 b 15 628 21 669 15 654 l 15 513 z "},"³":{"ha":139,"x_min":null,"x_max":null,"o":"m 125 683 b 100 724 125 710 114 719 l 100 728 b 122 764 114 732 122 743 l 122 871 b 69 924 122 900 106 924 b 15 863 35 924 15 903 l 15 790 l 56 790 l 56 867 b 69 886 56 879 58 886 b 83 868 79 886 83 881 l 83 761 b 68 742 83 747 79 742 l 53 742 l 53 707 l 67 707 b 85 686 79 707 85 700 l 85 565 b 69 549 85 553 79 549 b 56 568 58 549 56 553 l 56 658 l 15 658 l 15 571 b 71 510 15 529 35 510 b 125 568 106 510 125 531 z "},"´":{"ha":175,"x_min":null,"x_max":null,"o":"m 158 828 l 119 872 l 17 733 l 46 704 z "},"¶":{"ha":256,"x_min":null,"x_max":null,"o":"m 233 -139 l 233 861 l 253 922 l 79 922 b 11 871 33 922 11 906 l 11 719 b 57 668 11 690 26 672 l 57 -139 l 119 -139 l 119 861 l 171 861 l 171 -139 z "},"·":{"ha":110,"x_min":null,"x_max":null,"o":"m 92 406 l 92 521 l 17 521 l 17 406 z "},"¸":{"ha":100,"x_min":null,"x_max":null,"o":"m 17 -292 b 83 -189 63 -287 83 -260 l 83 -25 l 17 -25 l 17 -149 l 50 -149 l 50 -207 b 17 -257 50 -243 38 -253 z "},"¹":{"ha":96,"x_min":null,"x_max":null,"o":"m 78 513 l 78 922 l 43 922 b 13 899 40 907 35 899 l 13 865 l 39 865 l 39 513 z "},"º":{"ha":161,"x_min":null,"x_max":null,"o":"m 143 864 b 79 928 143 907 122 928 b 15 864 36 928 15 907 l 15 578 b 79 513 15 533 36 513 b 143 578 122 513 143 533 z m 97 578 b 79 557 97 563 92 557 b 61 578 67 557 61 563 l 61 864 b 79 885 61 878 67 885 b 97 864 92 885 97 878 z "},"»":{"ha":206,"x_min":null,"x_max":null,"o":"m 39 296 l 114 443 l 39 589 l 7 563 l 69 443 l 7 322 z m 124 296 l 199 443 l 124 589 l 92 563 l 154 443 l 92 322 z "},"¼":{"ha":276,"x_min":null,"x_max":null,"o":"m 82 513 l 82 922 l 47 922 b 17 899 44 907 39 899 l 17 865 l 43 865 l 43 513 z m 68 -15 l 236 940 l 189 940 l 22 -15 z m 240 0 l 240 88 l 258 88 l 258 122 l 240 122 l 240 410 l 188 410 l 142 122 l 142 88 l 201 88 l 201 0 z m 201 122 l 174 122 l 196 285 l 201 285 z "},"½":{"ha":276,"x_min":null,"x_max":null,"o":"m 61 -15 l 229 940 l 182 940 l 15 -15 z m 75 513 l 75 922 l 40 922 b 10 899 38 907 32 899 l 10 865 l 36 865 l 36 513 z m 265 0 l 265 36 l 199 36 l 199 124 b 210 158 199 138 201 147 b 249 201 219 171 243 196 b 265 256 258 213 265 232 l 265 357 b 211 411 265 394 254 411 b 157 351 164 411 157 392 l 157 257 l 197 257 l 197 354 b 211 374 197 367 201 374 b 225 357 221 374 225 368 l 225 256 b 217 221 225 239 224 231 b 175 175 207 211 188 193 b 156 115 161 157 156 142 l 156 0 z "},"¾":{"ha":276,"x_min":null,"x_max":null,"o":"m 119 683 b 94 724 119 710 108 719 l 94 728 b 117 764 108 732 117 743 l 117 871 b 64 924 117 900 100 924 b 10 863 29 924 10 903 l 10 790 l 50 790 l 50 867 b 64 886 50 879 53 886 b 78 868 74 886 78 881 l 78 761 b 63 742 78 747 74 742 l 47 742 l 47 707 l 61 707 b 79 686 74 707 79 700 l 79 565 b 64 549 79 553 74 549 b 50 568 53 549 50 553 l 50 658 l 10 658 l 10 571 b 65 510 10 529 29 510 b 119 568 100 510 119 531 z m 85 -15 l 253 940 l 206 940 l 39 -15 z m 247 0 l 247 88 l 265 88 l 265 122 l 247 122 l 247 410 l 194 410 l 149 122 l 149 88 l 208 88 l 208 0 z m 208 122 l 181 122 l 203 285 l 208 285 z "},"¿":{"ha":240,"x_min":null,"x_max":null,"o":"m 82 682 l 82 579 l 158 579 l 158 682 z m 85 475 l 85 364 b 72 264 85 310 83 289 b 26 174 64 246 38 201 b 14 71 18 154 14 135 l 14 -107 b 118 -244 14 -204 32 -244 b 229 -97 217 -244 229 -193 l 229 28 l 156 28 l 156 -129 b 122 -172 156 -158 150 -172 b 88 -129 96 -172 88 -161 l 88 71 b 97 153 88 121 90 138 b 143 238 106 172 133 215 b 156 351 151 256 156 279 l 156 475 z "},"À":{"ha":258,"x_min":null,"x_max":null,"o":"m 251 0 l 189 922 l 67 922 l 6 0 l 81 0 l 93 238 l 161 238 l 175 0 z m 125 789 l 131 789 l 157 304 l 97 304 z m 154 953 l 183 982 l 81 1121 l 42 1076 z "},"Á":{"ha":258,"x_min":null,"x_max":null,"o":"m 251 0 l 189 922 l 67 922 l 6 0 l 81 0 l 93 238 l 161 238 l 175 0 z m 125 789 l 131 789 l 157 304 l 97 304 z m 211 1076 l 172 1121 l 69 982 l 99 953 z "},"Â":{"ha":258,"x_min":null,"x_max":null,"o":"m 251 0 l 189 922 l 67 922 l 6 0 l 81 0 l 93 238 l 161 238 l 175 0 z m 125 789 l 131 789 l 157 304 l 97 304 z m 222 978 l 161 1093 l 94 1093 l 33 978 l 65 953 l 128 1050 l 190 953 z "},"Ã":{"ha":258,"x_min":null,"x_max":null,"o":"m 251 0 l 189 922 l 67 922 l 6 0 l 81 0 l 93 238 l 161 238 l 175 0 z m 125 789 l 131 789 l 157 304 l 97 304 z m 193 1033 b 164 1010 188 1017 178 1010 b 83 1038 138 1010 114 1038 b 31 988 60 1038 39 1021 l 63 969 b 90 993 67 986 79 993 b 172 964 118 993 140 964 b 224 1014 196 964 215 981 z "},"Ä":{"ha":258,"x_min":null,"x_max":null,"o":"m 251 0 l 189 922 l 67 922 l 6 0 l 81 0 l 93 238 l 161 238 l 175 0 z m 125 789 l 131 789 l 157 304 l 97 304 z m 108 985 l 108 1089 l 40 1089 l 40 985 z m 215 985 l 215 1089 l 147 1089 l 147 985 z "},"Å":{"ha":258,"x_min":null,"x_max":null,"o":"m 251 0 l 189 922 l 67 922 l 6 0 l 81 0 l 93 238 l 161 238 l 175 0 z m 125 789 l 131 789 l 157 304 l 97 304 z m 128 985 b 99 1029 108 985 99 1004 b 128 1075 99 1054 108 1075 b 156 1029 146 1075 156 1054 b 128 985 156 1004 146 985 z m 128 953 b 188 1029 168 953 188 986 b 128 1106 188 1072 168 1106 b 67 1029 86 1106 67 1072 b 128 953 67 986 86 953 z "},"Æ":{"ha":342,"x_min":null,"x_max":null,"o":"m 333 0 l 333 69 l 235 69 l 235 449 l 318 449 l 318 518 l 235 518 l 235 851 l 328 851 l 328 922 l 67 922 l 6 0 l 81 0 l 92 203 l 158 203 l 158 0 z m 131 851 l 158 851 l 158 269 l 96 269 z "},"Ç":{"ha":251,"x_min":null,"x_max":null,"o":"m 161 108 b 126 67 161 81 150 67 b 93 110 104 67 93 79 l 93 813 b 128 854 93 839 104 854 b 161 811 150 854 161 839 l 161 592 l 235 592 l 235 804 b 129 926 235 893 196 926 b 17 806 53 926 17 883 l 17 114 b 128 -4 17 38 54 -4 b 235 113 197 -4 235 33 l 235 376 l 161 376 z m 90 -292 b 157 -189 136 -287 157 -260 l 157 -25 l 90 -25 l 90 -149 l 124 -149 l 124 -207 b 90 -257 124 -243 111 -253 z "},"È":{"ha":201,"x_min":null,"x_max":null,"o":"m 192 0 l 192 69 l 93 69 l 93 449 l 176 449 l 176 518 l 93 518 l 93 851 l 186 851 l 186 922 l 17 922 l 17 0 z m 131 953 l 160 982 l 57 1121 l 18 1076 z "},"É":{"ha":201,"x_min":null,"x_max":null,"o":"m 192 0 l 192 69 l 93 69 l 93 449 l 176 449 l 176 518 l 93 518 l 93 851 l 186 851 l 186 922 l 17 922 l 17 0 z m 188 1076 l 149 1121 l 46 982 l 75 953 z "},"Ê":{"ha":201,"x_min":null,"x_max":null,"o":"m 192 0 l 192 69 l 93 69 l 93 449 l 176 449 l 176 518 l 93 518 l 93 851 l 186 851 l 186 922 l 17 922 l 17 0 z m 197 978 l 136 1093 l 69 1093 l 8 978 l 40 953 l 103 1050 l 165 953 z "},"Ë":{"ha":201,"x_min":null,"x_max":null,"o":"m 192 0 l 192 69 l 93 69 l 93 449 l 176 449 l 176 518 l 93 518 l 93 851 l 186 851 l 186 922 l 17 922 l 17 0 z m 82 985 l 82 1089 l 14 1089 l 14 985 z m 189 985 l 189 1089 l 121 1089 l 121 985 z "},"Ì":{"ha":121,"x_min":null,"x_max":null,"o":"m 104 0 l 104 922 l 26 922 l 26 0 z m 90 953 l 119 982 l 17 1121 l -22 1076 z "},"Í":{"ha":125,"x_min":null,"x_max":null,"o":"m 94 0 l 94 922 l 17 922 l 17 0 z m 149 1076 l 110 1121 l 7 982 l 36 953 z "},"Î":{"ha":153,"x_min":null,"x_max":null,"o":"m 114 0 l 114 922 l 36 922 l 36 0 z m 171 978 l 110 1093 l 43 1093 l -18 978 l 14 953 l 76 1050 l 139 953 z "},"Ï":{"ha":146,"x_min":null,"x_max":null,"o":"m 111 0 l 111 922 l 33 922 l 33 0 z m 53 981 l 53 1085 l -15 1085 l -15 981 z m 160 981 l 160 1085 l 92 1085 l 92 981 z "},"Ð":{"ha":267,"x_min":null,"x_max":null,"o":"m 143 0 b 250 114 213 0 250 36 l 250 814 b 143 922 250 885 213 922 l 26 922 l 26 518 l 3 518 l 3 449 l 26 449 l 26 0 z m 103 69 l 103 449 l 143 449 l 143 518 l 103 518 l 103 851 l 133 851 b 172 808 158 851 172 842 l 172 118 b 139 69 172 86 163 69 z "},"Ñ":{"ha":272,"x_min":null,"x_max":null,"o":"m 256 0 l 256 922 l 190 922 l 190 596 b 194 190 190 328 193 247 l 189 190 l 128 922 l 17 922 l 17 0 l 79 0 l 79 401 b 76 739 79 629 79 693 l 82 739 l 154 0 z m 201 1033 b 172 1010 196 1017 186 1010 b 92 1038 146 1010 122 1038 b 39 988 68 1038 47 1021 l 71 969 b 99 993 75 986 88 993 b 181 964 126 993 149 964 b 232 1014 204 964 224 981 z "},"Ò":{"ha":251,"x_min":null,"x_max":null,"o":"m 236 804 b 125 926 236 881 196 926 b 14 806 54 926 14 882 l 14 114 b 126 -4 14 38 53 -4 b 236 113 197 -4 236 33 z m 160 108 b 125 67 160 81 147 67 b 90 108 101 67 90 81 l 90 813 b 125 854 90 839 103 854 b 160 811 147 854 160 839 z m 154 953 l 183 982 l 81 1121 l 42 1076 z "},"Ó":{"ha":251,"x_min":null,"x_max":null,"o":"m 236 804 b 125 926 236 881 196 926 b 14 806 54 926 14 882 l 14 114 b 126 -4 14 38 53 -4 b 236 113 197 -4 236 33 z m 160 108 b 125 67 160 81 147 67 b 90 108 101 67 90 81 l 90 813 b 125 854 90 839 103 854 b 160 811 147 854 160 839 z m 210 1076 l 171 1121 l 68 982 l 97 953 z "},"Ô":{"ha":251,"x_min":null,"x_max":null,"o":"m 236 804 b 125 926 236 881 196 926 b 14 806 54 926 14 882 l 14 114 b 126 -4 14 38 53 -4 b 236 113 197 -4 236 33 z m 160 108 b 125 67 160 81 147 67 b 90 108 101 67 90 81 l 90 813 b 125 854 90 839 103 854 b 160 811 147 854 160 839 z m 221 978 l 160 1093 l 93 1093 l 32 978 l 64 953 l 126 1050 l 189 953 z "},"Õ":{"ha":251,"x_min":null,"x_max":null,"o":"m 236 804 b 125 926 236 881 196 926 b 14 806 54 926 14 882 l 14 114 b 126 -4 14 38 53 -4 b 236 113 197 -4 236 33 z m 160 108 b 125 67 160 81 147 67 b 90 108 101 67 90 81 l 90 813 b 125 854 90 839 103 854 b 160 811 147 854 160 839 z m 192 1033 b 163 1010 186 1017 176 1010 b 82 1038 136 1010 113 1038 b 29 988 58 1038 38 1021 l 61 969 b 89 993 65 986 78 993 b 171 964 117 993 139 964 b 222 1014 194 964 214 981 z "},"Ö":{"ha":251,"x_min":null,"x_max":null,"o":"m 236 804 b 125 926 236 881 196 926 b 14 806 54 926 14 882 l 14 114 b 126 -4 14 38 53 -4 b 236 113 197 -4 236 33 z m 160 108 b 125 67 160 81 147 67 b 90 108 101 67 90 81 l 90 813 b 125 854 90 839 103 854 b 160 811 147 854 160 839 z m 106 985 l 106 1089 l 38 1089 l 38 985 z m 213 985 l 213 1089 l 144 1089 l 144 985 z "},"×":{"ha":238,"x_min":null,"x_max":null,"o":"m 217 519 l 175 560 l 118 503 l 63 560 l 21 519 l 78 463 l 21 406 l 61 365 l 118 422 l 176 365 l 217 406 l 160 463 z "},"Ø":{"ha":251,"x_min":null,"x_max":null,"o":"m 65 -15 l 69 7 b 126 -4 85 0 104 -4 b 236 113 197 -4 236 33 l 236 804 b 221 872 236 831 231 854 l 233 940 l 185 940 l 181 914 b 125 926 165 922 146 926 b 14 806 54 926 14 882 l 14 114 b 28 44 14 86 18 63 l 18 -15 z m 160 108 b 125 67 160 81 147 67 b 90 125 101 67 90 81 l 154 521 l 160 521 z m 90 813 b 125 854 90 839 103 854 b 160 797 147 854 160 839 l 96 399 l 90 399 z "},"Ù":{"ha":256,"x_min":null,"x_max":null,"o":"m 161 108 b 126 67 161 81 150 67 b 92 108 104 67 92 81 l 92 922 l 17 922 l 17 113 b 128 -4 17 33 57 -4 b 238 114 200 -4 238 38 l 238 922 l 161 922 z m 156 953 l 185 982 l 82 1121 l 43 1076 z "},"Ú":{"ha":256,"x_min":null,"x_max":null,"o":"m 161 108 b 126 67 161 81 150 67 b 92 108 104 67 92 81 l 92 922 l 17 922 l 17 113 b 128 -4 17 33 57 -4 b 238 114 200 -4 238 38 l 238 922 l 161 922 z m 211 1076 l 172 1121 l 69 982 l 99 953 z "},"Û":{"ha":256,"x_min":null,"x_max":null,"o":"m 161 108 b 126 67 161 81 150 67 b 92 108 104 67 92 81 l 92 922 l 17 922 l 17 113 b 128 -4 17 33 57 -4 b 238 114 200 -4 238 38 l 238 922 l 161 922 z m 221 978 l 160 1093 l 93 1093 l 32 978 l 64 953 l 126 1050 l 189 953 z "},"Ü":{"ha":256,"x_min":null,"x_max":null,"o":"m 161 108 b 126 67 161 81 150 67 b 92 108 104 67 92 81 l 92 922 l 17 922 l 17 113 b 128 -4 17 33 57 -4 b 238 114 200 -4 238 38 l 238 922 l 161 922 z m 108 985 l 108 1089 l 40 1089 l 40 985 z m 215 985 l 215 1089 l 147 1089 l 147 985 z "},"Ý":{"ha":256,"x_min":null,"x_max":null,"o":"m 168 0 l 168 381 l 251 922 l 172 922 l 132 575 l 126 575 l 83 922 l 4 922 l 90 381 l 90 0 z m 215 1076 l 176 1121 l 74 982 l 103 953 z "},"Þ":{"ha":251,"x_min":null,"x_max":null,"o":"m 17 0 l 94 0 l 94 186 l 147 186 b 236 279 213 186 236 219 l 236 690 b 147 785 236 750 213 785 l 94 785 l 94 922 l 17 922 z m 131 718 b 163 679 154 718 163 703 l 163 293 b 131 253 163 265 154 253 l 94 253 l 94 718 z "},"ß":{"ha":264,"x_min":null,"x_max":null,"o":"m 176 103 b 135 58 176 74 163 58 b 110 63 126 58 118 60 l 110 1 b 146 -4 121 -3 131 -4 b 249 103 221 -4 249 31 l 249 413 b 188 504 249 468 222 499 l 188 510 b 235 583 219 515 235 543 l 235 844 b 128 938 235 913 196 938 b 17 832 50 938 17 904 l 17 0 l 89 0 l 89 831 b 124 871 89 857 99 871 b 157 833 146 871 157 860 l 157 571 b 126 538 157 550 149 538 l 114 538 l 114 475 l 139 475 b 176 438 169 475 176 464 z "},"à":{"ha":246,"x_min":null,"x_max":null,"o":"m 156 88 b 117 60 149 69 138 60 b 86 93 97 60 86 69 l 86 292 b 118 339 86 317 92 329 b 156 356 133 344 144 346 z m 228 0 l 228 599 b 128 679 228 653 194 679 b 18 593 58 679 18 651 l 18 457 l 88 457 l 88 585 b 122 614 88 604 100 614 b 154 588 144 614 154 606 l 154 425 b 99 383 154 401 133 394 b 13 278 33 363 13 342 l 13 75 b 83 -4 13 26 31 -4 b 153 35 126 -4 142 15 l 158 35 l 160 0 z m 151 704 l 181 733 l 78 872 l 39 828 z "},"á":{"ha":246,"x_min":null,"x_max":null,"o":"m 156 88 b 117 60 149 69 138 60 b 86 93 97 60 86 69 l 86 292 b 118 339 86 317 92 329 b 156 356 133 344 144 346 z m 228 0 l 228 599 b 128 679 228 653 194 679 b 18 593 58 679 18 651 l 18 457 l 88 457 l 88 585 b 122 614 88 604 100 614 b 154 588 144 614 154 606 l 154 425 b 99 383 154 401 133 394 b 13 278 33 363 13 342 l 13 75 b 83 -4 13 26 31 -4 b 153 35 126 -4 142 15 l 158 35 l 160 0 z m 206 828 l 167 872 l 64 733 l 93 704 z "},"â":{"ha":246,"x_min":null,"x_max":null,"o":"m 156 88 b 117 60 149 69 138 60 b 86 93 97 60 86 69 l 86 292 b 118 339 86 317 92 329 b 156 356 133 344 144 346 z m 228 0 l 228 599 b 128 679 228 653 194 679 b 18 593 58 679 18 651 l 18 457 l 88 457 l 88 585 b 122 614 88 604 100 614 b 154 588 144 614 154 606 l 154 425 b 99 383 154 401 133 394 b 13 278 33 363 13 342 l 13 75 b 83 -4 13 26 31 -4 b 153 35 126 -4 142 15 l 158 35 l 160 0 z m 215 729 l 154 844 l 88 844 l 26 729 l 58 704 l 121 801 l 183 704 z "},"ã":{"ha":246,"x_min":null,"x_max":null,"o":"m 156 88 b 117 60 149 69 138 60 b 86 93 97 60 86 69 l 86 292 b 118 339 86 317 92 329 b 156 356 133 344 144 346 z m 228 0 l 228 599 b 128 679 228 653 194 679 b 18 593 58 679 18 651 l 18 457 l 88 457 l 88 585 b 122 614 88 604 100 614 b 154 588 144 614 154 606 l 154 425 b 99 383 154 401 133 394 b 13 278 33 363 13 342 l 13 75 b 83 -4 13 26 31 -4 b 153 35 126 -4 142 15 l 158 35 l 160 0 z m 188 785 b 158 761 182 768 172 761 b 78 789 132 761 108 789 b 25 739 54 789 33 772 l 57 721 b 85 744 61 738 74 744 b 167 715 113 744 135 715 b 218 765 190 715 210 732 z "},"ä":{"ha":246,"x_min":null,"x_max":null,"o":"m 156 88 b 117 60 149 69 138 60 b 86 93 97 60 86 69 l 86 292 b 118 339 86 317 92 329 b 156 356 133 344 144 346 z m 228 0 l 228 599 b 128 679 228 653 194 679 b 18 593 58 679 18 651 l 18 457 l 88 457 l 88 585 b 122 614 88 604 100 614 b 154 588 144 614 154 606 l 154 425 b 99 383 154 401 133 394 b 13 278 33 363 13 342 l 13 75 b 83 -4 13 26 31 -4 b 153 35 126 -4 142 15 l 158 35 l 160 0 z m 103 736 l 103 840 l 35 840 l 35 736 z m 210 736 l 210 840 l 142 840 l 142 736 z "},"å":{"ha":246,"x_min":null,"x_max":null,"o":"m 156 88 b 117 60 149 69 138 60 b 86 93 97 60 86 69 l 86 292 b 118 339 86 317 92 329 b 156 356 133 344 144 346 z m 228 0 l 228 599 b 128 679 228 653 194 679 b 18 593 58 679 18 651 l 18 457 l 88 457 l 88 585 b 122 614 88 604 100 614 b 154 588 144 614 154 606 l 154 425 b 99 383 154 401 133 394 b 13 278 33 363 13 342 l 13 75 b 83 -4 13 26 31 -4 b 153 35 126 -4 142 15 l 158 35 l 160 0 z m 125 736 b 96 781 106 736 96 756 b 125 826 96 806 106 826 b 153 781 143 826 153 806 b 125 736 153 756 143 736 z m 125 704 b 185 781 165 704 185 738 b 125 857 185 824 165 857 b 64 781 83 857 64 824 b 125 704 64 738 83 704 z "},"æ":{"ha":385,"x_min":null,"x_max":null,"o":"m 368 231 l 294 231 l 294 100 b 261 60 294 74 283 60 b 228 100 239 60 228 74 l 228 322 l 368 322 l 368 572 b 261 679 368 643 333 679 b 196 663 233 679 211 674 b 126 679 181 674 157 679 b 18 593 58 679 18 651 l 18 457 l 88 457 l 88 585 b 122 614 88 604 100 614 b 154 588 144 614 154 606 l 154 425 b 99 383 154 401 133 394 b 13 278 40 364 13 349 l 13 75 b 85 -4 13 26 31 -4 b 161 46 126 -4 144 14 l 165 46 b 260 -4 179 11 211 -4 b 368 101 333 -4 368 31 z m 156 88 b 117 60 149 69 138 60 b 86 93 97 60 86 69 l 86 292 b 118 339 86 317 92 329 b 156 356 133 344 144 346 z m 294 375 l 228 375 l 228 574 b 261 613 228 601 239 613 b 294 574 283 613 294 601 z "},"ç":{"ha":246,"x_min":null,"x_max":null,"o":"m 157 101 b 124 63 157 75 146 63 b 90 101 101 63 90 75 l 90 572 b 124 613 90 599 101 613 b 157 572 146 613 157 599 l 157 431 l 226 431 l 226 572 b 124 679 226 643 196 679 b 18 572 51 679 18 643 l 18 101 b 124 -4 18 29 51 -4 b 226 101 196 -4 226 31 l 226 247 l 157 247 z m 89 -292 b 156 -189 135 -287 156 -260 l 156 -25 l 89 -25 l 89 -149 l 122 -149 l 122 -207 b 89 -257 122 -243 110 -253 z "},"è":{"ha":249,"x_min":null,"x_max":null,"o":"m 231 231 l 157 231 l 157 100 b 124 60 157 74 146 60 b 90 100 101 60 90 74 l 90 322 l 231 322 l 231 572 b 124 679 231 643 196 679 b 18 572 51 679 18 643 l 18 101 b 124 -4 18 29 51 -4 b 231 101 196 -4 231 31 z m 157 375 l 90 375 l 90 574 b 124 613 90 601 101 613 b 157 574 146 613 157 601 z m 153 704 l 182 733 l 79 872 l 40 828 z "},"é":{"ha":249,"x_min":null,"x_max":null,"o":"m 231 231 l 157 231 l 157 100 b 124 60 157 74 146 60 b 90 100 101 60 90 74 l 90 322 l 231 322 l 231 572 b 124 679 231 643 196 679 b 18 572 51 679 18 643 l 18 101 b 124 -4 18 29 51 -4 b 231 101 196 -4 231 31 z m 157 375 l 90 375 l 90 574 b 124 613 90 601 101 613 b 157 574 146 613 157 601 z m 208 828 l 169 872 l 67 733 l 96 704 z "},"ê":{"ha":249,"x_min":null,"x_max":null,"o":"m 231 231 l 157 231 l 157 100 b 124 60 157 74 146 60 b 90 100 101 60 90 74 l 90 322 l 231 322 l 231 572 b 124 679 231 643 196 679 b 18 572 51 679 18 643 l 18 101 b 124 -4 18 29 51 -4 b 231 101 196 -4 231 31 z m 157 375 l 90 375 l 90 574 b 124 613 90 601 101 613 b 157 574 146 613 157 601 z m 218 729 l 157 844 l 90 844 l 29 729 l 61 704 l 124 801 l 186 704 z "},"ë":{"ha":249,"x_min":null,"x_max":null,"o":"m 231 231 l 157 231 l 157 100 b 124 60 157 74 146 60 b 90 100 101 60 90 74 l 90 322 l 231 322 l 231 572 b 124 679 231 643 196 679 b 18 572 51 679 18 643 l 18 101 b 124 -4 18 29 51 -4 b 231 101 196 -4 231 31 z m 157 375 l 90 375 l 90 574 b 124 613 90 601 101 613 b 157 574 146 613 157 601 z m 106 736 l 106 840 l 38 840 l 38 736 z m 213 736 l 213 840 l 144 840 l 144 736 z "},"ì":{"ha":135,"x_min":null,"x_max":null,"o":"m 107 704 l 136 733 l 33 872 l -6 828 z m 115 0 l 115 675 l 42 675 l 42 0 z "},"í":{"ha":140,"x_min":null,"x_max":null,"o":"m 144 828 l 106 872 l 3 733 l 32 704 z m 92 0 l 92 675 l 18 675 l 18 0 z "},"î":{"ha":174,"x_min":null,"x_max":null,"o":"m 122 0 l 122 675 l 49 675 l 49 0 z m 181 729 l 119 844 l 53 844 l -8 729 l 24 704 l 86 801 l 149 704 z "},"ï":{"ha":149,"x_min":null,"x_max":null,"o":"m 54 736 l 54 840 l -14 840 l -14 736 z m 161 736 l 161 840 l 93 840 l 93 736 z m 110 0 l 110 675 l 36 675 l 36 0 z "},"ð":{"ha":251,"x_min":null,"x_max":null,"o":"m 233 904 l 185 867 b 126 933 169 896 150 919 l 60 933 b 132 825 85 917 113 875 l 64 771 l 64 733 l 143 796 b 164 676 156 757 164 714 l 164 621 l 158 621 b 93 658 144 649 119 658 b 18 578 49 658 18 631 l 18 122 b 124 -4 18 43 25 -4 b 233 150 221 -4 233 42 l 233 649 b 197 839 233 706 222 779 l 233 868 z m 129 60 b 93 94 106 60 93 72 l 93 510 b 125 594 93 585 100 594 b 161 564 140 594 153 590 l 161 94 b 129 60 161 71 151 60 z "},"ñ":{"ha":253,"x_min":null,"x_max":null,"o":"m 235 0 l 235 592 b 165 679 235 650 210 679 b 94 632 133 679 110 665 l 89 632 l 88 675 l 18 675 l 18 0 l 92 0 l 92 579 b 128 614 100 603 108 614 b 160 578 149 614 160 603 l 160 0 z m 192 785 b 163 761 186 768 176 761 b 82 789 136 761 113 789 b 29 739 58 789 38 772 l 61 721 b 89 744 65 738 78 744 b 171 715 117 744 139 715 b 222 765 194 715 214 732 z "},"ò":{"ha":249,"x_min":null,"x_max":null,"o":"m 229 572 b 124 679 229 644 196 679 b 18 572 51 679 18 644 l 18 101 b 124 -4 18 29 51 -4 b 229 101 196 -4 229 29 z m 157 101 b 124 63 157 75 146 63 b 90 101 101 63 90 75 l 90 572 b 124 613 90 599 101 613 b 157 572 146 613 157 599 z m 153 704 l 182 733 l 79 872 l 40 828 z "},"ó":{"ha":249,"x_min":null,"x_max":null,"o":"m 229 572 b 124 679 229 644 196 679 b 18 572 51 679 18 644 l 18 101 b 124 -4 18 29 51 -4 b 229 101 196 -4 229 29 z m 157 101 b 124 63 157 75 146 63 b 90 101 101 63 90 75 l 90 572 b 124 613 90 599 101 613 b 157 572 146 613 157 599 z m 208 828 l 169 872 l 67 733 l 96 704 z "},"ô":{"ha":249,"x_min":null,"x_max":null,"o":"m 229 572 b 124 679 229 644 196 679 b 18 572 51 679 18 644 l 18 101 b 124 -4 18 29 51 -4 b 229 101 196 -4 229 29 z m 157 101 b 124 63 157 75 146 63 b 90 101 101 63 90 75 l 90 572 b 124 613 90 599 101 613 b 157 572 146 613 157 599 z m 219 729 l 158 844 l 92 844 l 31 729 l 63 704 l 125 801 l 188 704 z "},"õ":{"ha":249,"x_min":null,"x_max":null,"o":"m 229 572 b 124 679 229 644 196 679 b 18 572 51 679 18 644 l 18 101 b 124 -4 18 29 51 -4 b 229 101 196 -4 229 29 z m 157 101 b 124 63 157 75 146 63 b 90 101 101 63 90 75 l 90 572 b 124 613 90 599 101 613 b 157 572 146 613 157 599 z m 189 785 b 160 761 183 768 174 761 b 79 789 133 761 110 789 b 26 739 56 789 35 772 l 58 721 b 86 744 63 738 75 744 b 168 715 114 744 136 715 b 219 765 192 715 211 732 z "},"ö":{"ha":249,"x_min":null,"x_max":null,"o":"m 229 572 b 124 679 229 644 196 679 b 18 572 51 679 18 644 l 18 101 b 124 -4 18 29 51 -4 b 229 101 196 -4 229 29 z m 157 101 b 124 63 157 75 146 63 b 90 101 101 63 90 75 l 90 572 b 124 613 90 599 101 613 b 157 572 146 613 157 599 z m 104 736 l 104 840 l 36 840 l 36 736 z m 211 736 l 211 840 l 143 840 l 143 736 z "},"÷":{"ha":238,"x_min":null,"x_max":null,"o":"m 221 435 l 221 492 l 17 492 l 17 435 z m 156 257 l 156 361 l 81 361 l 81 257 z m 156 567 l 156 671 l 81 671 l 81 567 z "},"ø":{"ha":249,"x_min":null,"x_max":null,"o":"m 64 -14 l 68 4 b 124 -4 83 -1 101 -4 b 229 101 196 -4 229 29 l 229 572 b 215 636 229 599 224 619 l 228 689 l 182 689 l 178 669 b 124 679 163 676 144 679 b 18 572 51 679 18 644 l 18 101 b 31 38 18 75 22 54 l 19 -14 z m 157 101 b 124 63 157 75 146 63 b 90 100 101 63 90 74 l 151 385 l 157 385 z m 90 572 b 124 613 90 599 101 613 b 157 581 143 613 154 601 l 96 293 l 90 293 z "},"ù":{"ha":251,"x_min":null,"x_max":null,"o":"m 18 675 l 18 106 b 92 -4 18 49 25 -4 b 157 42 125 -4 140 8 l 163 42 l 164 0 l 233 0 l 233 675 l 160 675 l 160 107 b 124 60 156 74 147 60 b 93 106 100 60 93 74 l 93 675 z m 156 704 l 185 733 l 82 872 l 43 828 z "},"ú":{"ha":251,"x_min":null,"x_max":null,"o":"m 18 675 l 18 106 b 92 -4 18 49 25 -4 b 157 42 125 -4 140 8 l 163 42 l 164 0 l 233 0 l 233 675 l 160 675 l 160 107 b 124 60 156 74 147 60 b 93 106 100 60 93 74 l 93 675 z m 210 828 l 171 872 l 68 733 l 97 704 z "},"û":{"ha":251,"x_min":null,"x_max":null,"o":"m 18 675 l 18 106 b 92 -4 18 49 25 -4 b 157 42 125 -4 140 8 l 163 42 l 164 0 l 233 0 l 233 675 l 160 675 l 160 107 b 124 60 156 74 147 60 b 93 106 100 60 93 74 l 93 675 z m 221 729 l 160 844 l 93 844 l 32 729 l 64 704 l 126 801 l 189 704 z "},"ü":{"ha":251,"x_min":null,"x_max":null,"o":"m 18 675 l 18 106 b 92 -4 18 49 25 -4 b 157 42 125 -4 140 8 l 163 42 l 164 0 l 233 0 l 233 675 l 160 675 l 160 107 b 124 60 156 74 147 60 b 93 106 100 60 93 74 l 93 675 z m 106 736 l 106 840 l 38 840 l 38 736 z m 213 736 l 213 840 l 144 840 l 144 736 z "},"ý":{"ha":251,"x_min":null,"x_max":null,"o":"m 93 675 l 18 675 l 18 104 b 92 0 18 28 46 0 b 154 39 124 0 142 11 l 158 39 l 158 -218 b 125 -257 158 -243 147 -257 b 92 -218 103 -257 92 -243 l 92 -42 l 19 -42 l 19 -218 b 125 -324 19 -289 53 -324 b 232 -218 197 -324 232 -289 l 232 675 l 161 675 l 161 111 b 125 68 156 83 149 68 b 93 107 104 68 93 79 z m 210 828 l 171 872 l 68 733 l 97 704 z "},"þ":{"ha":251,"x_min":null,"x_max":null,"o":"m 90 -324 l 90 35 l 96 35 b 160 -4 107 8 128 -4 b 232 140 232 -4 232 60 l 232 549 b 160 676 232 619 221 676 b 96 640 129 676 108 667 l 90 640 l 90 933 l 18 933 l 18 -324 z m 158 100 b 128 60 158 71 144 60 b 90 111 106 60 96 78 l 90 553 b 126 614 96 594 103 614 b 158 575 146 614 158 600 z "},"ÿ":{"ha":251,"x_min":null,"x_max":null,"o":"m 93 675 l 18 675 l 18 104 b 92 0 18 28 46 0 b 154 39 124 0 142 11 l 158 39 l 158 -218 b 125 -257 158 -243 147 -257 b 92 -218 103 -257 92 -243 l 92 -42 l 19 -42 l 19 -218 b 125 -324 19 -289 53 -324 b 232 -218 197 -324 232 -289 l 232 675 l 161 675 l 161 111 b 125 68 156 83 149 68 b 93 107 104 68 93 79 z m 108 736 l 108 840 l 40 840 l 40 736 z m 215 736 l 215 840 l 147 840 l 147 736 z "},"Ā":{"ha":258,"x_min":null,"x_max":null,"o":"m 251 0 l 189 922 l 67 922 l 6 0 l 81 0 l 93 238 l 161 238 l 175 0 z m 125 789 l 131 789 l 157 304 l 97 304 z m 210 989 l 210 1036 l 44 1036 l 44 989 z "},"ā":{"ha":246,"x_min":null,"x_max":null,"o":"m 156 88 b 117 60 149 69 138 60 b 86 93 97 60 86 69 l 86 292 b 118 339 86 317 92 329 b 156 356 133 344 144 346 z m 228 0 l 228 599 b 128 679 228 653 194 679 b 18 593 58 679 18 651 l 18 457 l 88 457 l 88 585 b 122 614 88 604 100 614 b 154 588 144 614 154 606 l 154 425 b 99 383 154 401 133 394 b 13 278 33 363 13 342 l 13 75 b 83 -4 13 26 31 -4 b 153 35 126 -4 142 15 l 158 35 l 160 0 z m 204 740 l 204 788 l 39 788 l 39 740 z "},"Ă":{"ha":258,"x_min":null,"x_max":null,"o":"m 251 0 l 189 922 l 67 922 l 6 0 l 81 0 l 93 238 l 161 238 l 175 0 z m 125 789 l 131 789 l 157 304 l 97 304 z m 126 953 b 224 1093 183 953 224 1007 l 169 1093 b 126 1000 167 1026 153 1000 b 83 1093 99 1000 85 1026 l 29 1093 b 126 953 29 1008 69 953 z "},"ă":{"ha":246,"x_min":null,"x_max":null,"o":"m 156 88 b 117 60 149 69 138 60 b 86 93 97 60 86 69 l 86 292 b 118 339 86 317 92 329 b 156 356 133 344 144 346 z m 228 0 l 228 599 b 128 679 228 653 194 679 b 18 593 58 679 18 651 l 18 457 l 88 457 l 88 585 b 122 614 88 604 100 614 b 154 588 144 614 154 606 l 154 425 b 99 383 154 401 133 394 b 13 278 33 363 13 342 l 13 75 b 83 -4 13 26 31 -4 b 153 35 126 -4 142 15 l 158 35 l 160 0 z m 119 704 b 217 844 176 704 217 758 l 163 844 b 119 751 160 778 146 751 b 76 844 92 751 78 778 l 22 844 b 119 704 22 760 63 704 z "},"Ą":{"ha":258,"x_min":null,"x_max":null,"o":"m 250 -222 b 219 -226 242 -225 229 -226 b 189 -186 197 -226 189 -221 l 189 -140 b 251 0 189 -74 204 -37 l 189 922 l 67 922 l 6 0 l 81 0 l 93 238 l 161 238 l 175 0 l 207 0 l 207 -10 b 138 -154 164 -39 138 -85 l 138 -199 b 204 -292 138 -274 158 -292 b 250 -282 221 -292 238 -289 z m 125 789 l 131 789 l 157 304 l 97 304 z "},"ą":{"ha":246,"x_min":null,"x_max":null,"o":"m 226 -222 b 196 -226 219 -225 207 -226 b 165 -186 175 -226 165 -221 l 165 -140 b 228 0 165 -74 182 -37 l 228 599 b 128 679 228 653 194 679 b 18 593 58 679 18 651 l 18 457 l 88 457 l 88 585 b 122 614 88 604 100 614 b 154 588 144 614 154 606 l 154 424 b 99 383 154 400 133 394 b 13 278 36 364 13 343 l 13 75 b 83 -4 13 26 31 -4 b 153 35 126 -4 142 15 l 158 35 l 160 0 l 186 0 l 186 -8 b 114 -154 140 -36 114 -85 l 114 -199 b 181 -292 114 -274 136 -292 b 226 -282 199 -292 215 -289 z m 156 88 b 117 60 149 69 138 60 b 86 93 97 60 86 69 l 86 292 b 118 339 86 317 92 329 b 156 356 138 346 144 346 z "},"Ć":{"ha":251,"x_min":null,"x_max":null,"o":"m 161 108 b 126 67 161 81 150 67 b 93 110 104 67 93 79 l 93 813 b 128 854 93 839 104 854 b 161 811 150 854 161 839 l 161 592 l 235 592 l 235 804 b 129 926 235 893 196 926 b 17 806 53 926 17 883 l 17 114 b 128 -4 17 38 54 -4 b 235 113 197 -4 235 33 l 235 376 l 161 376 z m 211 1076 l 172 1121 l 69 982 l 99 953 z "},"ć":{"ha":246,"x_min":null,"x_max":null,"o":"m 157 101 b 124 63 157 75 146 63 b 90 101 101 63 90 75 l 90 572 b 124 613 90 599 101 613 b 157 572 146 613 157 599 l 157 431 l 226 431 l 226 572 b 124 679 226 643 196 679 b 18 572 51 679 18 643 l 18 101 b 124 -4 18 29 51 -4 b 226 101 196 -4 226 31 l 226 247 l 157 247 z m 207 828 l 168 872 l 65 733 l 94 704 z "},"Ċ":{"ha":251,"x_min":null,"x_max":null,"o":"m 161 108 b 126 67 161 81 150 67 b 93 110 104 67 93 79 l 93 813 b 128 854 93 839 104 854 b 161 811 150 854 161 839 l 161 592 l 235 592 l 235 804 b 129 926 235 893 196 926 b 17 806 53 926 17 883 l 17 114 b 128 -4 17 38 54 -4 b 235 113 197 -4 235 33 l 235 376 l 161 376 z m 163 985 l 163 1089 l 89 1089 l 89 985 z "},"ċ":{"ha":246,"x_min":null,"x_max":null,"o":"m 157 101 b 124 63 157 75 146 63 b 90 101 101 63 90 75 l 90 572 b 124 613 90 599 101 613 b 157 572 146 613 157 599 l 157 431 l 226 431 l 226 572 b 124 679 226 643 196 679 b 18 572 51 679 18 643 l 18 101 b 124 -4 18 29 51 -4 b 226 101 196 -4 226 31 l 226 247 l 157 247 z m 160 736 l 160 840 l 86 840 l 86 736 z "},"Č":{"ha":251,"x_min":null,"x_max":null,"o":"m 161 108 b 126 67 161 81 150 67 b 93 110 104 67 93 79 l 93 813 b 128 854 93 839 104 854 b 161 811 150 854 161 839 l 161 592 l 235 592 l 235 804 b 129 926 235 893 196 926 b 17 806 53 926 17 883 l 17 114 b 128 -4 17 38 54 -4 b 235 113 197 -4 235 33 l 235 376 l 161 376 z m 160 965 l 221 1063 l 189 1089 l 126 1010 l 64 1089 l 32 1063 l 93 965 z "},"č":{"ha":246,"x_min":null,"x_max":null,"o":"m 157 101 b 124 63 157 75 146 63 b 90 101 101 63 90 75 l 90 572 b 124 613 90 599 101 613 b 157 572 146 613 157 599 l 157 431 l 226 431 l 226 572 b 124 679 226 643 196 679 b 18 572 51 679 18 643 l 18 101 b 124 -4 18 29 51 -4 b 226 101 196 -4 226 31 l 226 247 l 157 247 z m 157 717 l 218 814 l 186 840 l 124 761 l 61 840 l 29 814 l 90 717 z "},"Ď":{"ha":257,"x_min":null,"x_max":null,"o":"m 132 0 b 239 114 203 0 239 36 l 239 814 b 132 922 239 885 203 922 l 17 922 l 17 0 z m 93 69 l 93 851 l 122 851 b 161 808 147 851 161 842 l 161 118 b 128 69 161 86 151 69 z m 160 965 l 221 1063 l 189 1089 l 126 1010 l 64 1089 l 32 1063 l 93 965 z "},"ď":{"ha":332,"x_min":null,"x_max":null,"o":"m 93 575 b 126 614 93 601 104 614 b 161 567 149 614 156 601 l 161 104 b 125 60 156 74 147 60 b 93 100 104 60 93 72 z m 232 0 l 232 933 l 158 933 l 158 640 l 153 640 b 94 679 140 668 122 679 b 18 593 47 679 18 647 l 18 81 b 93 -4 18 28 46 -4 b 158 42 126 -4 147 11 l 164 42 l 167 0 z m 250 644 b 325 760 299 656 325 692 l 325 933 l 250 933 l 250 818 l 283 818 l 283 749 b 250 686 283 719 271 700 z "},"đ":{"ha":251,"x_min":null,"x_max":null,"o":"m 232 0 l 232 757 l 250 757 l 250 804 l 232 804 l 232 933 l 158 933 l 158 804 l 85 804 l 85 757 l 158 757 l 158 640 l 153 640 b 94 679 140 668 122 679 b 18 593 47 679 18 647 l 18 81 b 93 -4 18 28 46 -4 b 158 42 126 -4 147 11 l 164 42 l 167 0 z m 93 575 b 126 614 93 601 104 614 b 161 567 149 614 156 601 l 161 104 b 125 60 156 74 147 60 b 93 100 104 60 93 72 z "},"Ē":{"ha":201,"x_min":null,"x_max":null,"o":"m 192 0 l 192 69 l 93 69 l 93 449 l 176 449 l 176 518 l 93 518 l 93 851 l 186 851 l 186 922 l 17 922 l 17 0 z m 186 989 l 186 1036 l 21 1036 l 21 989 z "},"ē":{"ha":249,"x_min":null,"x_max":null,"o":"m 231 231 l 157 231 l 157 100 b 124 60 157 74 146 60 b 90 100 101 60 90 74 l 90 322 l 231 322 l 231 572 b 124 679 231 643 196 679 b 18 572 51 679 18 643 l 18 101 b 124 -4 18 29 51 -4 b 231 101 196 -4 231 31 z m 157 375 l 90 375 l 90 574 b 124 613 90 601 101 613 b 157 574 146 613 157 601 z m 207 740 l 207 788 l 42 788 l 42 740 z "},"Ĕ":{"ha":201,"x_min":null,"x_max":null,"o":"m 192 0 l 192 69 l 93 69 l 93 449 l 176 449 l 176 518 l 93 518 l 93 851 l 186 851 l 186 922 l 17 922 l 17 0 z m 107 953 b 204 1093 164 953 204 1007 l 150 1093 b 107 1000 147 1026 133 1000 b 64 1093 79 1000 65 1026 l 10 1093 b 107 953 10 1008 50 953 z "},"ĕ":{"ha":249,"x_min":null,"x_max":null,"o":"m 231 231 l 157 231 l 157 100 b 124 60 157 74 146 60 b 90 100 101 60 90 74 l 90 322 l 231 322 l 231 572 b 124 679 231 643 196 679 b 18 572 51 679 18 643 l 18 101 b 124 -4 18 29 51 -4 b 231 101 196 -4 231 31 z m 157 375 l 90 375 l 90 574 b 124 613 90 601 101 613 b 157 574 146 613 157 601 z m 124 704 b 221 844 181 704 221 758 l 167 844 b 124 751 164 778 150 751 b 81 844 96 751 82 778 l 26 844 b 124 704 26 760 67 704 z "},"Ė":{"ha":201,"x_min":null,"x_max":null,"o":"m 192 0 l 192 69 l 93 69 l 93 449 l 176 449 l 176 518 l 93 518 l 93 851 l 186 851 l 186 922 l 17 922 l 17 0 z m 142 985 l 142 1089 l 68 1089 l 68 985 z "},"ė":{"ha":249,"x_min":null,"x_max":null,"o":"m 231 231 l 157 231 l 157 100 b 124 60 157 74 146 60 b 90 100 101 60 90 74 l 90 322 l 231 322 l 231 572 b 124 679 231 643 196 679 b 18 572 51 679 18 643 l 18 101 b 124 -4 18 29 51 -4 b 231 101 196 -4 231 31 z m 157 375 l 90 375 l 90 574 b 124 613 90 601 101 613 b 157 574 146 613 157 601 z m 160 736 l 160 840 l 86 840 l 86 736 z "},"Ę":{"ha":201,"x_min":null,"x_max":null,"o":"m 190 -222 b 160 -226 182 -225 169 -226 b 129 -186 138 -226 129 -221 l 129 -140 b 192 0 129 -74 144 -37 l 192 69 l 93 69 l 93 449 l 176 449 l 176 518 l 93 518 l 93 851 l 186 851 l 186 922 l 17 922 l 17 0 l 150 0 l 150 -8 b 78 -154 104 -36 78 -83 l 78 -199 b 144 -292 78 -274 99 -292 b 190 -282 161 -292 178 -289 z "},"ę":{"ha":249,"x_min":null,"x_max":null,"o":"m 168 -222 b 138 -226 160 -225 147 -226 b 107 -186 115 -226 107 -221 l 107 -140 b 165 0 107 -75 122 -36 b 231 101 208 13 231 46 l 231 231 l 157 231 l 157 100 b 124 60 157 74 146 60 b 90 100 101 60 90 74 l 90 322 l 231 322 l 231 572 b 124 679 231 643 196 679 b 18 572 51 679 18 643 l 18 101 b 117 -4 18 31 49 -1 l 117 -11 b 56 -154 78 -40 56 -89 l 56 -199 b 122 -292 56 -274 78 -292 b 168 -282 140 -292 156 -289 z m 157 375 l 90 375 l 90 574 b 124 613 90 601 101 613 b 157 574 146 613 157 601 z "},"Ě":{"ha":201,"x_min":null,"x_max":null,"o":"m 192 0 l 192 69 l 93 69 l 93 449 l 176 449 l 176 518 l 93 518 l 93 851 l 186 851 l 186 922 l 17 922 l 17 0 z m 136 965 l 197 1063 l 165 1089 l 103 1010 l 40 1089 l 8 1063 l 69 965 z "},"ě":{"ha":249,"x_min":null,"x_max":null,"o":"m 231 231 l 157 231 l 157 100 b 124 60 157 74 146 60 b 90 100 101 60 90 74 l 90 322 l 231 322 l 231 572 b 124 679 231 643 196 679 b 18 572 51 679 18 643 l 18 101 b 124 -4 18 29 51 -4 b 231 101 196 -4 231 31 z m 157 375 l 90 375 l 90 574 b 124 613 90 601 101 613 b 157 574 146 613 157 601 z m 158 717 l 219 814 l 188 840 l 125 761 l 63 840 l 31 814 l 92 717 z "},"Ğ":{"ha":251,"x_min":null,"x_max":null,"o":"m 235 0 l 235 464 l 122 464 l 122 394 l 161 394 l 161 104 b 126 67 158 78 146 67 b 93 108 104 67 93 81 l 93 813 b 126 854 93 839 104 854 b 161 811 150 854 161 839 l 161 638 l 235 638 l 235 804 b 125 926 235 881 197 926 b 17 806 54 926 17 882 l 17 114 b 114 -4 17 39 53 -4 b 176 29 149 -4 167 11 l 182 29 l 185 0 z m 128 953 b 225 1093 185 953 225 1007 l 171 1093 b 128 1000 168 1026 154 1000 b 85 1093 100 1000 86 1026 l 31 1093 b 128 953 31 1008 71 953 z "},"ğ":{"ha":251,"x_min":null,"x_max":null,"o":"m 232 -218 l 232 675 l 167 675 l 164 632 l 158 632 b 94 679 144 663 128 679 b 18 589 47 679 18 646 l 18 85 b 89 0 18 24 43 0 b 153 39 122 0 142 13 l 158 39 l 158 -218 b 125 -257 158 -243 147 -257 b 92 -218 103 -257 92 -243 l 92 -42 l 19 -42 l 19 -218 b 125 -324 19 -289 53 -324 b 232 -218 197 -324 232 -289 z m 93 575 b 126 614 93 601 104 614 b 161 568 146 614 156 600 l 161 110 b 125 68 156 82 146 68 b 93 107 106 68 93 79 z m 128 704 b 225 844 185 704 225 758 l 171 844 b 128 751 168 778 154 751 b 85 844 100 751 86 778 l 31 844 b 128 704 31 760 71 704 z "},"Ġ":{"ha":251,"x_min":null,"x_max":null,"o":"m 235 0 l 235 464 l 122 464 l 122 394 l 161 394 l 161 104 b 126 67 158 78 146 67 b 93 108 104 67 93 81 l 93 813 b 126 854 93 839 104 854 b 161 811 150 854 161 839 l 161 638 l 235 638 l 235 804 b 125 926 235 881 197 926 b 17 806 54 926 17 882 l 17 114 b 114 -4 17 39 53 -4 b 176 29 149 -4 167 11 l 182 29 l 185 0 z m 163 985 l 163 1089 l 89 1089 l 89 985 z "},"ġ":{"ha":251,"x_min":null,"x_max":null,"o":"m 232 -218 l 232 675 l 167 675 l 164 632 l 158 632 b 94 679 144 663 128 679 b 18 589 47 679 18 646 l 18 85 b 89 0 18 24 43 0 b 153 39 122 0 142 13 l 158 39 l 158 -218 b 125 -257 158 -243 147 -257 b 92 -218 103 -257 92 -243 l 92 -42 l 19 -42 l 19 -218 b 125 -324 19 -289 53 -324 b 232 -218 197 -324 232 -289 z m 93 575 b 126 614 93 601 104 614 b 161 568 146 614 156 600 l 161 110 b 125 68 156 82 146 68 b 93 107 106 68 93 79 z m 163 736 l 163 840 l 89 840 l 89 736 z "},"Ģ":{"ha":251,"x_min":null,"x_max":null,"o":"m 235 0 l 235 464 l 122 464 l 122 394 l 161 394 l 161 104 b 126 67 158 78 146 67 b 93 108 104 67 93 81 l 93 813 b 126 854 93 839 104 854 b 161 811 150 854 161 839 l 161 638 l 235 638 l 235 804 b 125 926 235 881 197 926 b 17 806 54 926 17 882 l 17 114 b 114 -4 17 39 53 -4 b 176 29 149 -4 167 11 l 182 29 l 185 0 z m 96 -292 b 163 -189 142 -287 163 -260 l 163 -25 l 96 -25 l 96 -149 l 129 -149 l 129 -207 b 96 -257 129 -243 117 -253 z "},"ģ":{"ha":251,"x_min":null,"x_max":null,"o":"m 232 -218 l 232 675 l 167 675 l 164 632 l 158 632 b 94 679 144 663 128 679 b 18 589 47 679 18 646 l 18 85 b 89 0 18 24 43 0 b 153 39 122 0 142 13 l 158 39 l 158 -218 b 125 -257 158 -243 147 -257 b 92 -218 103 -257 92 -243 l 92 -42 l 19 -42 l 19 -218 b 125 -324 19 -289 53 -324 b 232 -218 197 -324 232 -289 z m 93 575 b 126 614 93 601 104 614 b 161 568 146 614 156 600 l 161 110 b 125 68 156 82 146 68 b 93 107 106 68 93 79 z m 160 1011 b 93 908 114 1007 93 979 l 93 744 l 160 744 l 160 868 l 126 868 l 126 926 b 160 976 126 963 139 972 z "},"Ħ":{"ha":260,"x_min":null,"x_max":null,"o":"m 242 0 l 242 697 l 258 697 l 258 744 l 242 744 l 242 922 l 164 922 l 164 744 l 94 744 l 94 922 l 17 922 l 17 744 l -1 744 l -1 697 l 17 697 l 17 0 l 94 0 l 94 457 l 164 457 l 164 0 z m 94 525 l 94 697 l 164 697 l 164 525 z "},"ħ":{"ha":253,"x_min":null,"x_max":null,"o":"m 165 757 l 165 804 l 92 804 l 92 933 l 18 933 l 18 804 l -1 804 l -1 757 l 18 757 l 18 0 l 92 0 l 92 575 b 129 614 97 603 108 614 b 160 578 149 614 160 601 l 160 0 l 235 0 l 235 585 b 167 679 235 650 217 679 b 97 631 131 679 111 663 l 92 631 l 92 757 z "},"Ĩ":{"ha":140,"x_min":null,"x_max":null,"o":"m 108 0 l 108 922 l 31 922 l 31 0 z m 135 1029 b 106 1006 129 1013 119 1006 b 25 1033 79 1006 56 1033 b -28 983 1 1033 -19 1017 l 4 965 b 32 989 8 982 21 989 b 114 960 60 989 82 960 b 165 1010 138 960 157 976 z "},"ĩ":{"ha":171,"x_min":null,"x_max":null,"o":"m 150 785 b 121 761 144 768 135 761 b 40 789 94 761 71 789 b -12 739 17 789 -4 772 l 19 721 b 47 744 24 738 36 744 b 129 715 75 744 97 715 b 181 765 153 715 172 732 z m 119 0 l 119 675 l 46 675 l 46 0 z "},"Ī":{"ha":147,"x_min":null,"x_max":null,"o":"m 111 0 l 111 922 l 33 922 l 33 0 z m 156 985 l 156 1032 l -10 1032 l -10 985 z "},"ī":{"ha":142,"x_min":null,"x_max":null,"o":"m 153 740 l 153 788 l -12 788 l -12 740 z m 106 0 l 106 675 l 32 675 l 32 0 z "},"Ĭ":{"ha":146,"x_min":null,"x_max":null,"o":"m 111 0 l 111 922 l 33 922 l 33 0 z m 72 953 b 169 1093 129 953 169 1007 l 115 1093 b 72 1000 113 1026 99 1000 b 29 1093 44 1000 31 1026 l -25 1093 b 72 953 -25 1008 15 953 z "},"ĭ":{"ha":167,"x_min":null,"x_max":null,"o":"m 82 704 b 179 844 139 704 179 758 l 125 844 b 82 751 122 778 108 751 b 39 844 54 751 40 778 l -15 844 b 82 704 -15 760 25 704 z m 119 0 l 119 675 l 46 675 l 46 0 z "},"Į":{"ha":115,"x_min":null,"x_max":null,"o":"m 97 -222 b 67 -226 89 -225 76 -226 b 36 -186 44 -226 36 -221 l 36 -140 b 99 0 36 -74 51 -37 l 99 922 l 21 922 l 21 0 l 58 0 l 58 -7 b -15 -154 13 -35 -15 -83 l -15 -199 b 51 -292 -15 -274 6 -292 b 97 -282 68 -292 85 -289 z "},"į":{"ha":115,"x_min":null,"x_max":null,"o":"m 94 -222 b 64 -226 88 -225 75 -226 b 33 -186 43 -226 33 -221 l 33 -140 b 96 0 33 -74 50 -37 l 96 675 l 22 675 l 22 0 l 57 0 l 57 -7 b -18 -154 10 -35 -18 -83 l -18 -199 b 49 -292 -18 -274 4 -292 b 94 -282 67 -292 83 -289 z m 96 736 l 96 840 l 22 840 l 22 736 z "},"İ":{"ha":111,"x_min":null,"x_max":null,"o":"m 94 0 l 94 922 l 17 922 l 17 0 z m 92 981 l 92 1085 l 18 1085 l 18 981 z "},"ı":{"ha":111,"x_min":null,"x_max":null,"o":"m 92 0 l 92 675 l 18 675 l 18 0 z "},"Ĳ":{"ha":351,"x_min":null,"x_max":null,"o":"m 94 0 l 94 922 l 17 922 l 17 0 z m 257 108 b 222 67 257 81 246 67 b 189 108 200 67 189 81 l 189 340 l 115 340 l 115 113 b 224 -4 115 33 153 -4 b 333 114 296 -4 333 38 l 333 922 l 257 922 z "},"ĳ":{"ha":244,"x_min":null,"x_max":null,"o":"m 92 0 l 92 675 l 18 675 l 18 0 z m 92 736 l 92 840 l 18 840 l 18 736 z m 18 -219 b 121 -324 18 -287 50 -324 b 225 -219 193 -324 225 -287 l 225 675 l 151 675 l 151 -219 b 121 -257 151 -244 143 -257 b 92 -219 100 -257 92 -244 l 92 -62 l 18 -62 z m 225 736 l 225 840 l 151 840 l 151 736 z "},"Ķ":{"ha":256,"x_min":null,"x_max":null,"o":"m 249 0 l 176 565 l 250 922 l 172 922 l 100 563 l 94 563 l 94 922 l 17 922 l 17 0 l 94 0 l 94 290 l 118 396 l 121 396 l 171 0 z m 90 -292 b 157 -189 136 -287 157 -260 l 157 -25 l 90 -25 l 90 -149 l 124 -149 l 124 -207 b 90 -257 124 -243 111 -253 z "},"ķ":{"ha":250,"x_min":null,"x_max":null,"o":"m 244 0 l 172 382 l 246 675 l 168 675 l 97 388 l 92 388 l 92 933 l 18 933 l 18 0 l 92 0 l 92 188 l 114 269 l 118 269 l 168 0 z m 90 -292 b 157 -189 136 -287 157 -260 l 157 -25 l 90 -25 l 90 -149 l 124 -149 l 124 -207 b 90 -257 124 -243 111 -253 z "},"Ĺ":{"ha":207,"x_min":null,"x_max":null,"o":"m 196 0 l 196 71 l 94 71 l 94 922 l 17 922 l 17 0 z m 151 1076 l 113 1121 l 10 982 l 39 953 z "},"ĺ":{"ha":117,"x_min":null,"x_max":null,"o":"m 92 0 l 92 933 l 18 933 l 18 0 z m 144 1076 l 106 1121 l 3 982 l 32 953 z "},"Ļ":{"ha":207,"x_min":null,"x_max":null,"o":"m 196 0 l 196 71 l 94 71 l 94 922 l 17 922 l 17 0 z m 69 -292 b 136 -189 115 -287 136 -260 l 136 -25 l 69 -25 l 69 -149 l 103 -149 l 103 -207 b 69 -257 103 -243 90 -253 z "},"ļ":{"ha":111,"x_min":null,"x_max":null,"o":"m 92 0 l 92 933 l 18 933 l 18 0 z m 21 -292 b 88 -189 67 -287 88 -260 l 88 -25 l 21 -25 l 21 -149 l 54 -149 l 54 -207 b 21 -257 54 -243 42 -253 z "},"Ľ":{"ha":214,"x_min":null,"x_max":null,"o":"m 196 0 l 196 71 l 94 71 l 94 922 l 17 922 l 17 0 z m 121 644 b 196 760 169 656 196 692 l 196 933 l 121 933 l 121 818 l 154 818 l 154 749 b 121 686 154 719 142 700 z "},"ľ":{"ha":192,"x_min":null,"x_max":null,"o":"m 92 0 l 92 933 l 18 933 l 18 0 z m 110 644 b 185 760 158 656 185 692 l 185 933 l 110 933 l 110 818 l 143 818 l 143 749 b 110 686 143 719 131 700 z "},"Ł":{"ha":207,"x_min":null,"x_max":null,"o":"m 196 0 l 196 71 l 94 71 l 94 576 l 171 622 l 171 690 l 94 644 l 94 922 l 17 922 l 17 0 z "},"ł":{"ha":150,"x_min":null,"x_max":null,"o":"m 113 0 l 113 453 l 147 468 l 147 526 l 113 511 l 113 933 l 38 933 l 38 476 l 3 461 l 3 403 l 38 418 l 38 0 z "},"Ń":{"ha":272,"x_min":null,"x_max":null,"o":"m 256 0 l 256 922 l 190 922 l 190 596 b 194 190 190 328 193 247 l 189 190 l 128 922 l 17 922 l 17 0 l 79 0 l 79 401 b 76 739 79 629 79 693 l 82 739 l 154 0 z m 221 1076 l 182 1121 l 79 982 l 108 953 z "},"ń":{"ha":253,"x_min":null,"x_max":null,"o":"m 235 0 l 235 592 b 165 679 235 650 210 679 b 94 632 133 679 110 665 l 89 632 l 88 675 l 18 675 l 18 0 l 92 0 l 92 579 b 128 614 100 603 108 614 b 160 578 149 614 160 603 l 160 0 z m 210 828 l 171 872 l 68 733 l 97 704 z "},"Ņ":{"ha":272,"x_min":null,"x_max":null,"o":"m 256 0 l 256 922 l 190 922 l 190 596 b 194 190 190 328 193 247 l 189 190 l 128 922 l 17 922 l 17 0 l 79 0 l 79 401 b 76 739 79 629 79 693 l 82 739 l 154 0 z m 99 -292 b 165 -189 144 -287 165 -260 l 165 -25 l 99 -25 l 99 -149 l 132 -149 l 132 -207 b 99 -257 132 -243 119 -253 z "},"ņ":{"ha":253,"x_min":null,"x_max":null,"o":"m 235 0 l 235 592 b 165 679 235 650 210 679 b 94 632 133 679 110 665 l 89 632 l 88 675 l 18 675 l 18 0 l 92 0 l 92 579 b 128 614 100 603 108 614 b 160 578 149 614 160 603 l 160 0 z m 92 -292 b 158 -189 138 -287 158 -260 l 158 -25 l 92 -25 l 92 -149 l 125 -149 l 125 -207 b 92 -257 125 -243 113 -253 z "},"Ň":{"ha":272,"x_min":null,"x_max":null,"o":"m 256 0 l 256 922 l 190 922 l 190 596 b 194 190 190 328 193 247 l 189 190 l 128 922 l 17 922 l 17 0 l 79 0 l 79 401 b 76 739 79 629 79 693 l 82 739 l 154 0 z m 169 965 l 231 1063 l 199 1089 l 136 1010 l 74 1089 l 42 1063 l 103 965 z "},"ň":{"ha":253,"x_min":null,"x_max":null,"o":"m 235 0 l 235 592 b 165 679 235 650 210 679 b 94 632 133 679 110 665 l 89 632 l 88 675 l 18 675 l 18 0 l 92 0 l 92 579 b 128 614 100 603 108 614 b 160 578 149 614 160 603 l 160 0 z m 160 717 l 221 814 l 189 840 l 126 761 l 64 840 l 32 814 l 93 717 z "},"Ŋ":{"ha":272,"x_min":null,"x_max":null,"o":"m 118 -322 b 146 -325 122 -324 132 -325 b 256 -218 215 -325 256 -289 l 256 922 l 190 922 l 190 596 b 194 190 190 328 192 247 l 189 190 l 128 922 l 17 922 l 17 0 l 79 0 l 79 401 b 76 739 79 629 79 693 l 82 739 l 169 -133 l 169 -218 b 135 -257 169 -244 158 -257 b 118 -254 131 -257 122 -257 z "},"ŋ":{"ha":253,"x_min":null,"x_max":null,"o":"m 235 -218 l 235 592 b 165 679 235 650 210 679 b 94 632 133 679 110 665 l 89 632 l 88 675 l 18 675 l 18 0 l 92 0 l 92 579 b 128 614 100 603 108 614 b 160 578 149 614 160 603 l 160 -218 b 128 -257 160 -244 149 -257 b 111 -254 122 -257 117 -257 l 111 -321 b 138 -324 117 -322 122 -324 b 235 -218 197 -324 235 -289 z "},"Ō":{"ha":251,"x_min":null,"x_max":null,"o":"m 236 804 b 125 926 236 881 196 926 b 14 806 54 926 14 882 l 14 114 b 126 -4 14 38 53 -4 b 236 113 197 -4 236 33 z m 160 108 b 125 67 160 81 147 67 b 90 108 101 67 90 81 l 90 813 b 125 854 90 839 103 854 b 160 811 147 854 160 839 z m 208 989 l 208 1036 l 43 1036 l 43 989 z "},"ō":{"ha":249,"x_min":null,"x_max":null,"o":"m 229 572 b 124 679 229 644 196 679 b 18 572 51 679 18 644 l 18 101 b 124 -4 18 29 51 -4 b 229 101 196 -4 229 29 z m 157 101 b 124 63 157 75 146 63 b 90 101 101 63 90 75 l 90 572 b 124 613 90 599 101 613 b 157 572 146 613 157 599 z m 207 740 l 207 788 l 42 788 l 42 740 z "},"Ŏ":{"ha":251,"x_min":null,"x_max":null,"o":"m 236 804 b 125 926 236 881 196 926 b 14 806 54 926 14 882 l 14 114 b 126 -4 14 38 53 -4 b 236 113 197 -4 236 33 z m 160 108 b 125 67 160 81 147 67 b 90 108 101 67 90 81 l 90 813 b 125 854 90 839 103 854 b 160 811 147 854 160 839 z m 125 953 b 222 1093 182 953 222 1007 l 168 1093 b 125 1000 165 1026 151 1000 b 82 1093 97 1000 83 1026 l 28 1093 b 125 953 28 1008 68 953 z "},"ŏ":{"ha":249,"x_min":null,"x_max":null,"o":"m 229 572 b 124 679 229 644 196 679 b 18 572 51 679 18 644 l 18 101 b 124 -4 18 29 51 -4 b 229 101 196 -4 229 29 z m 157 101 b 124 63 157 75 146 63 b 90 101 101 63 90 75 l 90 572 b 124 613 90 599 101 613 b 157 572 146 613 157 599 z m 124 704 b 221 844 181 704 221 758 l 167 844 b 124 751 164 778 150 751 b 81 844 96 751 82 778 l 26 844 b 124 704 26 760 67 704 z "},"Ő":{"ha":251,"x_min":null,"x_max":null,"o":"m 236 804 b 125 926 236 881 196 926 b 14 806 54 926 14 882 l 14 114 b 126 -4 14 38 53 -4 b 236 113 197 -4 236 33 z m 160 108 b 125 67 160 81 147 67 b 90 108 101 67 90 81 l 90 813 b 125 854 90 839 103 854 b 160 811 147 854 160 839 z m 78 953 l 150 1094 l 103 1121 l 44 969 z m 163 953 l 233 1094 l 186 1121 l 128 969 z "},"ő":{"ha":249,"x_min":null,"x_max":null,"o":"m 229 572 b 124 679 229 644 196 679 b 18 572 51 679 18 644 l 18 101 b 124 -4 18 29 51 -4 b 229 101 196 -4 229 29 z m 157 101 b 124 63 157 75 146 63 b 90 101 101 63 90 75 l 90 572 b 124 613 90 599 101 613 b 157 572 146 613 157 599 z m 76 704 l 149 846 l 101 872 l 43 721 z m 161 704 l 232 846 l 185 872 l 126 721 z "},"Œ":{"ha":338,"x_min":null,"x_max":null,"o":"m 329 0 l 329 69 l 226 69 b 236 113 233 81 236 94 l 236 449 l 314 449 l 314 518 l 236 518 l 236 804 b 225 851 236 822 232 839 l 324 851 l 324 922 l 158 922 b 125 926 149 925 138 926 b 14 806 54 926 14 882 l 14 114 b 126 -4 14 38 53 -4 b 163 0 139 -4 150 -3 z m 160 108 b 125 67 160 81 147 67 b 90 108 101 67 90 81 l 90 811 b 125 854 90 839 103 854 b 160 811 147 854 160 839 z "},"œ":{"ha":382,"x_min":null,"x_max":null,"o":"m 365 231 l 292 231 l 292 100 b 258 60 292 74 281 60 b 224 100 235 60 224 74 l 224 322 l 365 322 l 365 572 b 258 679 365 643 331 679 b 190 661 228 679 206 672 b 124 679 175 674 153 679 b 18 572 51 679 18 644 l 18 101 b 124 -4 18 29 51 -4 b 190 14 153 -4 175 1 b 257 -4 206 1 228 -4 b 365 101 331 -4 365 31 z m 157 101 b 124 63 157 75 146 63 b 90 101 101 63 90 75 l 90 572 b 124 613 90 599 101 613 b 157 572 146 613 157 599 z m 292 375 l 224 375 l 224 574 b 258 613 224 601 235 613 b 292 574 281 613 292 601 z "},"Ŕ":{"ha":251,"x_min":null,"x_max":null,"o":"m 93 0 l 93 421 l 131 421 b 163 386 154 421 163 408 l 163 0 l 238 0 l 238 379 b 189 453 238 428 219 446 l 189 458 b 236 531 218 465 236 489 l 236 826 b 147 922 236 888 213 922 l 17 922 l 17 0 z m 161 522 b 129 483 161 496 150 483 l 93 483 l 93 851 l 129 851 b 161 818 151 851 161 842 z m 204 1076 l 165 1121 l 63 982 l 92 953 z "},"ŕ":{"ha":190,"x_min":null,"x_max":null,"o":"m 92 0 l 92 543 b 153 611 97 593 115 611 b 181 606 165 611 174 610 l 181 674 b 156 679 174 676 165 679 b 94 626 125 679 107 660 l 89 626 l 88 675 l 18 675 l 18 0 z m 183 828 l 144 872 l 42 733 l 71 704 z "},"Ŗ":{"ha":251,"x_min":null,"x_max":null,"o":"m 93 0 l 93 421 l 131 421 b 163 386 154 421 163 408 l 163 0 l 238 0 l 238 379 b 189 453 238 428 219 446 l 189 458 b 236 531 218 465 236 489 l 236 826 b 147 922 236 888 213 922 l 17 922 l 17 0 z m 161 522 b 129 483 161 496 150 483 l 93 483 l 93 851 l 129 851 b 161 818 151 851 161 842 z m 92 -292 b 158 -189 138 -287 158 -260 l 158 -25 l 92 -25 l 92 -149 l 125 -149 l 125 -207 b 92 -257 125 -243 113 -253 z "},"ŗ":{"ha":190,"x_min":null,"x_max":null,"o":"m 92 0 l 92 543 b 153 611 97 593 115 611 b 181 606 165 611 174 610 l 181 674 b 156 679 174 676 165 679 b 94 626 125 679 107 660 l 89 626 l 88 675 l 18 675 l 18 0 z m 19 -292 b 86 -189 65 -287 86 -260 l 86 -25 l 19 -25 l 19 -149 l 53 -149 l 53 -207 b 19 -257 53 -243 40 -253 z "},"Ř":{"ha":251,"x_min":null,"x_max":null,"o":"m 93 0 l 93 421 l 131 421 b 163 386 154 421 163 408 l 163 0 l 238 0 l 238 379 b 189 453 238 428 219 446 l 189 458 b 236 531 218 465 236 489 l 236 826 b 147 922 236 888 213 922 l 17 922 l 17 0 z m 161 522 b 129 483 161 496 150 483 l 93 483 l 93 851 l 129 851 b 161 818 151 851 161 842 z m 156 965 l 217 1063 l 185 1089 l 122 1010 l 60 1089 l 28 1063 l 89 965 z "},"ř":{"ha":190,"x_min":null,"x_max":null,"o":"m 92 0 l 92 543 b 153 611 97 593 115 611 b 181 606 165 611 174 610 l 181 674 b 156 679 174 676 165 679 b 94 626 125 679 107 660 l 89 626 l 88 675 l 18 675 l 18 0 z m 132 717 l 193 814 l 161 840 l 99 761 l 36 840 l 4 814 l 65 717 z "},"Ś":{"ha":261,"x_min":null,"x_max":null,"o":"m 238 635 l 238 804 b 126 926 238 876 204 926 b 15 817 51 926 15 881 l 15 672 b 39 535 15 618 24 567 b 138 414 60 490 104 456 b 165 294 160 386 165 371 l 165 106 b 128 67 165 81 154 67 b 86 110 99 67 86 82 l 86 276 l 14 276 l 14 124 b 132 -4 14 40 49 -4 b 246 118 211 -4 246 36 l 246 326 b 218 440 246 385 240 410 b 115 557 189 481 153 506 b 93 664 99 579 93 592 l 93 818 b 129 854 93 839 104 854 b 165 813 154 854 165 838 l 165 635 z m 213 1076 l 174 1121 l 71 982 l 100 953 z "},"ś":{"ha":244,"x_min":null,"x_max":null,"o":"m 225 468 l 225 583 b 121 679 225 643 190 679 b 18 594 54 679 18 647 l 18 457 b 47 357 18 404 25 382 b 125 297 68 335 99 318 b 156 239 149 278 156 268 l 156 88 b 121 56 156 65 144 56 b 85 90 96 56 85 65 l 85 217 l 15 217 l 15 92 b 125 -4 15 28 47 -4 b 229 89 197 -4 229 25 l 229 239 b 194 342 229 303 219 321 b 114 394 171 361 143 372 b 89 457 93 411 89 419 l 89 588 b 122 617 89 608 101 617 b 156 586 146 617 156 607 l 156 468 z m 206 828 l 167 872 l 64 733 l 93 704 z "},"Ş":{"ha":261,"x_min":null,"x_max":null,"o":"m 238 635 l 238 804 b 126 926 238 876 204 926 b 15 817 51 926 15 881 l 15 672 b 39 535 15 618 24 567 b 138 414 60 490 104 456 b 165 294 160 386 165 371 l 165 106 b 128 67 165 81 154 67 b 86 110 99 67 86 82 l 86 276 l 14 276 l 14 124 b 132 -4 14 40 49 -4 b 246 118 211 -4 246 36 l 246 326 b 218 440 246 385 240 410 b 115 557 189 481 153 506 b 93 664 99 579 93 592 l 93 818 b 129 854 93 839 104 854 b 165 813 154 854 165 838 l 165 635 z m 94 -292 b 161 -189 140 -287 161 -260 l 161 -25 l 94 -25 l 94 -149 l 128 -149 l 128 -207 b 94 -257 128 -243 115 -253 z "},"ş":{"ha":244,"x_min":null,"x_max":null,"o":"m 225 468 l 225 583 b 121 679 225 643 190 679 b 18 594 54 679 18 647 l 18 457 b 47 357 18 404 25 382 b 125 297 68 335 99 318 b 156 239 149 278 156 268 l 156 88 b 121 56 156 65 144 56 b 85 90 96 56 85 65 l 85 217 l 15 217 l 15 92 b 125 -4 15 28 47 -4 b 229 89 197 -4 229 25 l 229 239 b 194 342 229 303 219 321 b 114 394 171 361 143 372 b 89 457 93 411 89 419 l 89 588 b 122 617 89 608 101 617 b 156 586 146 617 156 607 l 156 468 z m 89 -292 b 156 -189 135 -287 156 -260 l 156 -25 l 89 -25 l 89 -149 l 122 -149 l 122 -207 b 89 -257 122 -243 110 -253 z "},"Š":{"ha":261,"x_min":null,"x_max":null,"o":"m 238 635 l 238 804 b 126 926 238 876 204 926 b 15 817 51 926 15 881 l 15 672 b 39 535 15 618 24 567 b 138 414 60 490 104 456 b 165 294 160 386 165 371 l 165 106 b 128 67 165 81 154 67 b 86 110 99 67 86 82 l 86 276 l 14 276 l 14 124 b 132 -4 14 40 49 -4 b 246 118 211 -4 246 36 l 246 326 b 218 440 246 385 240 410 b 115 557 189 481 153 506 b 93 664 99 579 93 592 l 93 818 b 129 854 93 839 104 854 b 165 813 154 854 165 838 l 165 635 z m 164 965 l 225 1063 l 193 1089 l 131 1010 l 68 1089 l 36 1063 l 97 965 z "},"š":{"ha":244,"x_min":null,"x_max":null,"o":"m 225 468 l 225 583 b 121 679 225 643 190 679 b 18 594 54 679 18 647 l 18 457 b 47 357 18 404 25 382 b 125 297 68 335 99 318 b 156 239 149 278 156 268 l 156 88 b 121 56 156 65 144 56 b 85 90 96 56 85 65 l 85 217 l 15 217 l 15 92 b 125 -4 15 28 47 -4 b 229 89 197 -4 229 25 l 229 239 b 194 342 229 303 219 321 b 114 394 171 361 143 372 b 89 457 93 411 89 419 l 89 588 b 122 617 89 608 101 617 b 156 586 146 617 156 607 l 156 468 z m 154 717 l 215 814 l 183 840 l 121 761 l 58 840 l 26 814 l 88 717 z "},"Ţ":{"ha":243,"x_min":null,"x_max":null,"o":"m 160 0 l 160 851 l 232 851 l 232 922 l 11 922 l 11 851 l 82 851 l 82 0 z m 86 -292 b 153 -189 132 -287 153 -260 l 153 -25 l 86 -25 l 86 -149 l 119 -149 l 119 -207 b 86 -257 119 -243 107 -253 z "},"ţ":{"ha":238,"x_min":null,"x_max":null,"o":"m 156 101 b 125 63 156 75 146 63 b 90 101 101 63 90 75 l 90 608 l 218 608 l 218 675 l 90 675 l 90 860 l 18 860 l 18 101 b 124 -4 18 29 51 -4 b 218 101 196 -4 218 29 l 218 381 l 156 381 z m 86 -292 b 153 -189 132 -287 153 -260 l 153 -25 l 86 -25 l 86 -149 l 119 -149 l 119 -207 b 86 -257 119 -243 107 -253 z "},"Ť":{"ha":243,"x_min":null,"x_max":null,"o":"m 160 0 l 160 851 l 232 851 l 232 922 l 11 922 l 11 851 l 82 851 l 82 0 z m 154 963 l 215 1060 l 183 1086 l 121 1007 l 58 1086 l 26 1060 l 88 963 z "},"ť":{"ha":310,"x_min":null,"x_max":null,"o":"m 156 101 b 125 63 156 75 146 63 b 90 101 101 63 90 75 l 90 608 l 218 608 l 218 675 l 90 675 l 90 860 l 18 860 l 18 101 b 124 -4 18 29 51 -4 b 218 101 196 -4 218 29 l 218 381 l 156 381 z m 228 644 b 303 760 276 656 303 692 l 303 933 l 228 933 l 228 818 l 261 818 l 261 749 b 228 686 261 719 249 700 z "},"Ŧ":{"ha":243,"x_min":null,"x_max":null,"o":"m 160 0 l 160 521 l 204 521 l 204 568 l 160 568 l 160 851 l 232 851 l 232 922 l 11 922 l 11 851 l 82 851 l 82 568 l 38 568 l 38 521 l 82 521 l 82 0 z "},"ŧ":{"ha":238,"x_min":null,"x_max":null,"o":"m 213 464 l 213 513 l 90 513 l 90 608 l 218 608 l 218 675 l 90 675 l 90 860 l 18 860 l 18 101 b 124 -4 18 29 51 -4 b 218 101 196 -4 218 29 l 218 374 l 156 374 l 156 101 b 125 63 156 75 146 63 b 90 101 101 63 90 75 l 90 464 z "},"Ũ":{"ha":256,"x_min":null,"x_max":null,"o":"m 161 108 b 126 67 161 81 150 67 b 92 108 104 67 92 81 l 92 922 l 17 922 l 17 113 b 128 -4 17 33 57 -4 b 238 114 200 -4 238 38 l 238 922 l 161 922 z m 193 1033 b 164 1010 188 1017 178 1010 b 83 1038 138 1010 114 1038 b 31 988 60 1038 39 1021 l 63 969 b 90 993 67 986 79 993 b 172 964 118 993 140 964 b 224 1014 196 964 215 981 z "},"ũ":{"ha":251,"x_min":null,"x_max":null,"o":"m 18 675 l 18 106 b 92 -4 18 49 25 -4 b 157 42 125 -4 140 8 l 163 42 l 164 0 l 233 0 l 233 675 l 160 675 l 160 107 b 124 60 156 74 147 60 b 93 106 100 60 93 74 l 93 675 z m 192 785 b 163 761 186 768 176 761 b 82 789 136 761 113 789 b 29 739 58 789 38 772 l 61 721 b 89 744 65 738 78 744 b 171 715 117 744 139 715 b 222 765 194 715 214 732 z "},"Ū":{"ha":256,"x_min":null,"x_max":null,"o":"m 161 108 b 126 67 161 81 150 67 b 92 108 104 67 92 81 l 92 922 l 17 922 l 17 113 b 128 -4 17 33 57 -4 b 238 114 200 -4 238 38 l 238 922 l 161 922 z m 210 989 l 210 1036 l 44 1036 l 44 989 z "},"ū":{"ha":251,"x_min":null,"x_max":null,"o":"m 18 675 l 18 106 b 92 -4 18 49 25 -4 b 157 42 125 -4 140 8 l 163 42 l 164 0 l 233 0 l 233 675 l 160 675 l 160 107 b 124 60 156 74 147 60 b 93 106 100 60 93 74 l 93 675 z m 208 740 l 208 788 l 43 788 l 43 740 z "},"Ŭ":{"ha":256,"x_min":null,"x_max":null,"o":"m 161 108 b 126 67 161 81 150 67 b 92 108 104 67 92 81 l 92 922 l 17 922 l 17 113 b 128 -4 17 33 57 -4 b 238 114 200 -4 238 38 l 238 922 l 161 922 z m 126 953 b 224 1093 183 953 224 1007 l 169 1093 b 126 1000 167 1026 153 1000 b 83 1093 99 1000 85 1026 l 29 1093 b 126 953 29 1008 69 953 z "},"ŭ":{"ha":251,"x_min":null,"x_max":null,"o":"m 18 675 l 18 106 b 92 -4 18 49 25 -4 b 157 42 125 -4 140 8 l 163 42 l 164 0 l 233 0 l 233 675 l 160 675 l 160 107 b 124 60 156 74 147 60 b 93 106 100 60 93 74 l 93 675 z m 125 704 b 222 844 182 704 222 758 l 168 844 b 125 751 165 778 151 751 b 82 844 97 751 83 778 l 28 844 b 125 704 28 760 68 704 z "},"Ů":{"ha":256,"x_min":null,"x_max":null,"o":"m 161 108 b 126 67 161 81 150 67 b 92 108 104 67 92 81 l 92 922 l 17 922 l 17 113 b 128 -4 17 33 57 -4 b 238 114 200 -4 238 38 l 238 922 l 161 922 z m 128 985 b 99 1029 108 985 99 1004 b 128 1075 99 1054 108 1075 b 156 1029 146 1075 156 1054 b 128 985 156 1004 146 985 z m 128 953 b 188 1029 168 953 188 986 b 128 1106 188 1072 168 1106 b 67 1029 86 1106 67 1072 b 128 953 67 986 86 953 z "},"ů":{"ha":251,"x_min":null,"x_max":null,"o":"m 18 675 l 18 106 b 92 -4 18 49 25 -4 b 157 42 125 -4 140 8 l 163 42 l 164 0 l 233 0 l 233 675 l 160 675 l 160 107 b 124 60 156 74 147 60 b 93 106 100 60 93 74 l 93 675 z m 126 736 b 97 781 107 736 97 756 b 126 826 97 806 107 826 b 154 781 144 826 154 806 b 126 736 154 756 144 736 z m 126 704 b 186 781 167 704 186 738 b 126 857 186 824 167 857 b 65 781 85 857 65 824 b 126 704 65 738 85 704 z "},"Ű":{"ha":256,"x_min":null,"x_max":null,"o":"m 161 108 b 126 67 161 81 150 67 b 92 108 104 67 92 81 l 92 922 l 17 922 l 17 113 b 128 -4 17 33 57 -4 b 238 114 200 -4 238 38 l 238 922 l 161 922 z m 79 953 l 151 1094 l 104 1121 l 46 969 z m 164 953 l 235 1094 l 188 1121 l 129 969 z "},"ű":{"ha":251,"x_min":null,"x_max":null,"o":"m 18 675 l 18 106 b 92 -4 18 49 25 -4 b 157 42 125 -4 140 8 l 163 42 l 164 0 l 233 0 l 233 675 l 160 675 l 160 107 b 124 60 156 74 147 60 b 93 106 100 60 93 74 l 93 675 z m 78 704 l 150 846 l 103 872 l 44 721 z m 163 704 l 233 846 l 186 872 l 128 721 z "},"Ų":{"ha":256,"x_min":null,"x_max":null,"o":"m 158 -222 b 128 -226 151 -225 139 -226 b 97 -186 107 -226 97 -221 l 97 -140 b 156 -1 97 -75 113 -37 b 238 114 210 8 238 47 l 238 922 l 161 922 l 161 108 b 126 67 161 81 150 67 b 92 108 104 67 92 81 l 92 922 l 17 922 l 17 113 b 110 -3 17 40 50 3 l 110 -12 b 46 -154 69 -42 46 -89 l 46 -199 b 113 -292 46 -274 68 -292 b 158 -282 131 -292 147 -289 z "},"ų":{"ha":251,"x_min":null,"x_max":null,"o":"m 232 -222 b 201 -226 224 -225 211 -226 b 171 -186 179 -226 171 -221 l 171 -140 b 233 0 171 -74 188 -37 l 233 675 l 160 675 l 160 107 b 124 60 156 74 147 60 b 93 106 100 60 93 74 l 93 675 l 18 675 l 18 106 b 92 -4 18 49 25 -4 b 157 42 125 -4 140 8 l 163 42 l 164 0 l 190 0 l 190 -8 b 119 -154 146 -37 119 -85 l 119 -199 b 186 -292 119 -274 142 -292 b 232 -282 204 -292 219 -289 z "},"Ŵ":{"ha":381,"x_min":null,"x_max":null,"o":"m 160 0 l 188 744 l 193 744 l 221 0 l 332 0 l 375 922 l 301 922 l 276 163 l 271 163 l 235 922 l 146 922 l 111 163 l 106 163 l 79 922 l 6 922 l 49 0 z m 283 978 l 222 1093 l 156 1093 l 94 978 l 126 953 l 189 1050 l 251 953 z "},"ŵ":{"ha":347,"x_min":null,"x_max":null,"o":"m 146 0 l 171 524 l 176 524 l 200 0 l 304 0 l 343 675 l 272 675 l 253 160 l 247 160 l 215 675 l 131 675 l 100 160 l 94 160 l 75 675 l 4 675 l 43 0 z m 268 729 l 207 844 l 140 844 l 79 729 l 111 704 l 174 801 l 236 704 z "},"Ŷ":{"ha":256,"x_min":null,"x_max":null,"o":"m 168 0 l 168 381 l 251 922 l 172 922 l 132 575 l 126 575 l 83 922 l 4 922 l 90 381 l 90 0 z m 225 978 l 164 1093 l 97 1093 l 36 978 l 68 953 l 131 1050 l 193 953 z "},"ŷ":{"ha":251,"x_min":null,"x_max":null,"o":"m 93 675 l 18 675 l 18 104 b 92 0 18 28 46 0 b 154 39 124 0 142 11 l 158 39 l 158 -218 b 125 -257 158 -243 147 -257 b 92 -218 103 -257 92 -243 l 92 -42 l 19 -42 l 19 -218 b 125 -324 19 -289 53 -324 b 232 -218 197 -324 232 -289 l 232 675 l 161 675 l 161 111 b 125 68 156 83 149 68 b 93 107 104 68 93 79 z m 224 729 l 163 844 l 96 844 l 35 729 l 67 704 l 129 801 l 192 704 z "},"Ÿ":{"ha":256,"x_min":null,"x_max":null,"o":"m 168 0 l 168 381 l 251 922 l 172 922 l 132 575 l 126 575 l 83 922 l 4 922 l 90 381 l 90 0 z m 110 981 l 110 1085 l 42 1085 l 42 981 z m 217 981 l 217 1085 l 149 1085 l 149 981 z "},"Ź":{"ha":233,"x_min":null,"x_max":null,"o":"m 222 0 l 222 69 l 88 69 l 218 853 l 218 922 l 13 922 l 13 851 l 144 851 l 11 71 l 11 0 z m 201 1076 l 163 1121 l 60 982 l 89 953 z "},"ź":{"ha":211,"x_min":null,"x_max":null,"o":"m 200 0 l 200 68 l 81 68 l 197 607 l 197 675 l 13 675 l 13 608 l 129 608 l 13 69 l 13 0 z m 190 828 l 151 872 l 49 733 l 78 704 z "},"Ż":{"ha":233,"x_min":null,"x_max":null,"o":"m 222 0 l 222 69 l 88 69 l 218 853 l 218 922 l 13 922 l 13 851 l 144 851 l 11 71 l 11 0 z m 150 985 l 150 1089 l 76 1089 l 76 985 z "},"ż":{"ha":211,"x_min":null,"x_max":null,"o":"m 200 0 l 200 68 l 81 68 l 197 607 l 197 675 l 13 675 l 13 608 l 129 608 l 13 69 l 13 0 z m 139 736 l 139 840 l 65 840 l 65 736 z "},"Ž":{"ha":233,"x_min":null,"x_max":null,"o":"m 222 0 l 222 69 l 88 69 l 218 853 l 218 922 l 13 922 l 13 851 l 144 851 l 11 71 l 11 0 z m 150 963 l 211 1060 l 179 1086 l 117 1007 l 54 1086 l 22 1060 l 83 963 z "},"ž":{"ha":211,"x_min":null,"x_max":null,"o":"m 200 0 l 200 68 l 81 68 l 197 607 l 197 675 l 13 675 l 13 608 l 129 608 l 13 69 l 13 0 z m 139 717 l 200 814 l 168 840 l 106 761 l 43 840 l 11 814 l 72 717 z "},"Ǝ":{"ha":201,"x_min":null,"x_max":null,"o":"m 8 922 l 8 851 l 107 851 l 107 474 l 24 474 l 24 403 l 107 403 l 107 69 l 14 69 l 14 0 l 185 0 l 185 922 z "},"Ə":{"ha":251,"x_min":null,"x_max":null,"o":"m 14 681 l 89 681 l 89 814 b 126 854 89 840 103 854 b 161 814 149 854 161 840 l 161 525 l 14 525 l 14 106 b 126 -4 14 32 50 -4 b 236 106 201 -4 236 32 l 236 814 b 126 926 236 889 201 926 b 14 814 50 926 14 888 z m 89 457 l 161 457 l 161 104 b 126 64 161 78 149 64 b 89 104 101 64 89 78 z "},"ƒ":{"ha":215,"x_min":null,"x_max":null,"o":"m 207 565 l 207 613 l 154 613 l 168 846 b 192 864 169 858 176 864 l 207 864 l 207 933 l 178 933 b 96 858 126 933 99 915 l 82 613 l 38 613 l 38 565 l 79 565 l 38 -153 b 14 -171 38 -165 29 -171 l 3 -171 l 3 -240 l 28 -240 b 110 -165 79 -240 107 -221 l 151 565 z "},"Ɣ":{"ha":286,"x_min":null,"x_max":null,"o":"m 143 -324 b 231 -218 217 -324 231 -272 b 178 240 231 -176 222 -128 l 272 922 l 190 922 l 146 547 l 138 547 l 94 922 l 14 922 l 107 242 b 54 -221 58 -156 54 -192 b 143 -324 54 -274 69 -324 z m 147 -33 b 167 -214 160 -153 167 -182 b 142 -262 167 -253 157 -262 b 119 -225 126 -262 119 -253 b 136 -33 119 -207 122 -160 z "},"Ɲ":{"ha":272,"x_min":null,"x_max":null,"o":"m 256 0 l 256 922 l 190 922 l 190 596 b 194 190 190 328 193 247 l 189 190 l 128 922 l 17 922 l 17 -218 b -12 -257 17 -244 7 -257 b -26 -254 -15 -257 -22 -257 l -26 -321 b -4 -324 -22 -322 -15 -324 b 79 -218 50 -324 79 -289 l 79 401 b 76 739 79 629 79 693 l 82 739 l 154 0 z "},"Ơ":{"ha":292,"x_min":null,"x_max":null,"o":"m 236 804 b 218 878 236 833 231 858 b 242 875 228 875 236 875 b 289 947 276 875 289 899 b 283 992 289 964 288 983 l 243 992 b 246 954 244 983 246 964 b 210 919 246 929 238 919 b 124 926 186 919 151 926 b 14 806 54 926 14 883 l 14 114 b 126 -4 14 38 53 -4 b 236 113 197 -4 236 33 z m 160 108 b 125 67 160 81 147 67 b 90 108 101 67 90 81 l 90 813 b 125 854 90 839 103 854 b 160 811 147 854 160 839 z "},"ơ":{"ha":281,"x_min":null,"x_max":null,"o":"m 229 572 b 218 628 229 594 225 613 b 233 626 224 626 228 626 b 278 700 265 626 278 650 b 272 744 278 717 276 736 l 232 744 b 235 707 233 736 235 717 b 201 671 235 679 226 671 b 121 679 178 671 151 679 b 18 572 53 679 18 643 l 18 101 b 124 -4 18 29 51 -4 b 229 101 197 -4 229 29 z m 157 101 b 124 63 157 75 146 63 b 90 101 101 63 90 75 l 90 572 b 124 613 90 599 101 613 b 157 572 146 613 157 599 z "},"Ư":{"ha":317,"x_min":null,"x_max":null,"o":"m 161 108 b 126 67 161 81 150 67 b 92 108 104 67 92 79 l 92 922 l 17 922 l 17 113 b 128 -4 17 33 57 -4 b 238 114 201 -4 238 38 l 238 879 b 268 875 250 878 260 875 b 314 947 301 875 314 897 b 308 992 314 965 313 983 l 267 992 b 271 957 269 982 271 965 b 243 922 271 932 263 922 l 161 922 z "},"ư":{"ha":310,"x_min":null,"x_max":null,"o":"m 18 675 l 18 132 b 90 -4 18 57 26 -4 b 158 42 128 -4 146 15 l 163 42 l 164 0 l 233 0 l 233 632 b 260 628 243 629 253 628 b 307 700 294 628 307 651 b 300 744 307 718 306 736 l 260 744 b 264 708 263 735 264 718 b 238 675 264 685 256 675 l 160 675 l 160 96 b 122 60 151 71 142 60 b 93 96 103 60 93 71 l 93 675 z "},"Ǧ":{"ha":251,"x_min":null,"x_max":null,"o":"m 235 0 l 235 464 l 122 464 l 122 394 l 161 394 l 161 104 b 126 67 158 78 146 67 b 93 108 104 67 93 81 l 93 813 b 126 854 93 839 104 854 b 161 811 150 854 161 839 l 161 638 l 235 638 l 235 804 b 125 926 235 881 197 926 b 17 806 54 926 17 882 l 17 114 b 114 -4 17 39 53 -4 b 176 29 149 -4 167 11 l 182 29 l 185 0 z m 163 965 l 224 1063 l 192 1089 l 129 1010 l 67 1089 l 35 1063 l 96 965 z "},"ǧ":{"ha":251,"x_min":null,"x_max":null,"o":"m 232 -218 l 232 675 l 167 675 l 164 632 l 158 632 b 94 679 144 663 128 679 b 18 589 47 679 18 646 l 18 85 b 89 0 18 24 43 0 b 153 39 122 0 142 13 l 158 39 l 158 -218 b 125 -257 158 -243 147 -257 b 92 -218 103 -257 92 -243 l 92 -42 l 19 -42 l 19 -218 b 125 -324 19 -289 53 -324 b 232 -218 197 -324 232 -289 z m 93 575 b 126 614 93 601 104 614 b 161 568 146 614 156 600 l 161 110 b 125 68 156 82 146 68 b 93 107 106 68 93 79 z m 160 717 l 221 814 l 189 840 l 126 761 l 64 840 l 32 814 l 93 717 z "},"Ǵ":{"ha":251,"x_min":null,"x_max":null,"o":"m 235 0 l 235 464 l 122 464 l 122 394 l 161 394 l 161 104 b 126 67 158 78 146 67 b 93 108 104 67 93 81 l 93 813 b 126 854 93 839 104 854 b 161 811 150 854 161 839 l 161 638 l 235 638 l 235 804 b 125 926 235 881 197 926 b 17 806 54 926 17 882 l 17 114 b 114 -4 17 39 53 -4 b 176 29 149 -4 167 11 l 182 29 l 185 0 z m 213 1076 l 174 1121 l 71 982 l 100 953 z "},"ǵ":{"ha":251,"x_min":null,"x_max":null,"o":"m 232 -218 l 232 675 l 167 675 l 164 632 l 158 632 b 94 679 144 663 128 679 b 18 589 47 679 18 646 l 18 85 b 89 0 18 24 43 0 b 153 39 122 0 142 13 l 158 39 l 158 -218 b 125 -257 158 -243 147 -257 b 92 -218 103 -257 92 -243 l 92 -42 l 19 -42 l 19 -218 b 125 -324 19 -289 53 -324 b 232 -218 197 -324 232 -289 z m 93 575 b 126 614 93 601 104 614 b 161 568 146 614 156 600 l 161 110 b 125 68 156 82 146 68 b 93 107 106 68 93 79 z m 213 828 l 174 872 l 71 733 l 100 704 z "},"Ǹ":{"ha":272,"x_min":null,"x_max":null,"o":"m 256 0 l 256 922 l 190 922 l 190 596 b 194 190 190 328 193 247 l 189 190 l 128 922 l 17 922 l 17 0 l 79 0 l 79 401 b 76 739 79 629 79 693 l 82 739 l 154 0 z m 167 953 l 196 982 l 93 1121 l 54 1076 z "},"ǹ":{"ha":253,"x_min":null,"x_max":null,"o":"m 235 0 l 235 592 b 165 679 235 650 210 679 b 94 632 133 679 110 665 l 89 632 l 88 675 l 18 675 l 18 0 l 92 0 l 92 579 b 128 614 100 603 108 614 b 160 578 149 614 160 603 l 160 0 z m 156 704 l 185 733 l 82 872 l 43 828 z "},"ȷ":{"ha":119,"x_min":null,"x_max":null,"o":"m -114 -218 b -7 -324 -114 -289 -79 -324 b 100 -218 65 -324 100 -289 l 100 675 l 25 675 l 25 -218 b -8 -257 25 -243 14 -257 b -42 -218 -32 -257 -42 -243 l -42 -37 l -114 -37 z "},"Ɂ":{"ha":238,"x_min":null,"x_max":null,"o":"m 156 0 l 156 350 b 169 449 156 403 160 425 b 211 533 181 476 197 496 b 224 656 221 561 224 575 l 224 813 b 118 926 224 892 200 926 b 10 810 35 926 10 889 l 10 654 l 83 654 l 83 811 b 118 854 83 840 90 854 b 150 814 146 854 150 842 l 150 632 b 139 543 150 593 147 563 b 92 447 131 524 108 490 b 78 349 83 426 78 401 l 78 0 z "},"ɂ":{"ha":249,"x_min":null,"x_max":null,"o":"m 160 0 l 160 181 b 167 221 160 196 163 210 b 221 310 178 251 207 275 b 229 357 226 322 229 338 l 229 571 b 124 679 229 644 199 679 b 18 558 47 679 18 643 l 18 419 l 90 419 l 90 569 b 125 613 90 597 99 613 b 157 572 149 613 157 599 l 157 357 b 147 317 157 342 153 329 b 96 233 136 294 110 265 b 85 181 90 219 85 201 l 85 0 z "},"Ɍ":{"ha":276,"x_min":null,"x_max":null,"o":"m 118 0 l 118 421 l 156 421 b 186 386 179 421 186 408 l 186 0 l 263 0 l 263 379 b 214 453 263 428 244 446 l 214 458 b 261 531 243 465 261 489 l 261 826 b 172 922 261 888 238 922 l 40 922 l 40 483 l 1 483 l 1 421 l 40 421 l 40 0 z m 186 522 b 154 483 186 496 174 483 l 118 483 l 118 851 l 154 851 b 186 818 176 851 186 842 z "},"ɍ":{"ha":206,"x_min":null,"x_max":null,"o":"m 106 0 l 106 301 l 167 301 l 167 349 l 106 349 l 106 543 b 167 611 111 593 129 611 b 194 606 179 611 188 610 l 194 674 b 169 679 188 676 179 679 b 108 626 138 679 121 660 l 103 626 l 100 675 l 31 675 l 31 349 l 1 349 l 1 301 l 31 301 l 31 0 z "},"ɣ":{"ha":246,"x_min":null,"x_max":null,"o":"m 240 675 l 165 675 l 125 378 l 118 378 l 81 675 l 4 675 l 89 126 b 43 -233 46 -185 43 -214 b 122 -324 43 -296 71 -324 b 201 -235 174 -324 201 -297 b 156 129 201 -215 199 -185 z m 125 -92 b 142 -243 140 -206 142 -232 b 122 -272 142 -264 136 -272 b 103 -243 108 -272 103 -264 b 118 -92 103 -229 106 -206 z "},"ɲ":{"ha":253,"x_min":null,"x_max":null,"o":"m 235 0 l 235 592 b 165 679 235 650 210 679 b 94 632 133 679 110 665 l 89 632 l 88 675 l 18 675 l 18 -218 b -12 -257 18 -244 8 -257 b -29 -254 -18 -257 -25 -257 l -29 -321 b -4 -324 -25 -322 -18 -324 b 92 -218 56 -324 92 -289 l 92 579 b 128 614 100 603 108 614 b 160 578 149 614 160 603 l 160 0 z "},"ˆ":{"ha":225,"x_min":null,"x_max":null,"o":"m 207 729 l 146 844 l 79 844 l 18 729 l 50 704 l 113 801 l 175 704 z "},"ˇ":{"ha":224,"x_min":null,"x_max":null,"o":"m 146 717 l 207 814 l 175 840 l 113 761 l 50 840 l 18 814 l 79 717 z "},"ˉ":{"ha":0,"x_min":null,"x_max":null,"o":"m -46 740 l -46 788 l -211 788 l -211 740 z "},"˘":{"ha":229,"x_min":null,"x_max":null,"o":"m 114 704 b 211 844 171 704 211 758 l 157 844 b 114 751 154 778 140 751 b 71 844 86 751 72 778 l 17 844 b 114 704 17 760 57 704 z "},"˙":{"ha":108,"x_min":null,"x_max":null,"o":"m 90 736 l 90 840 l 17 840 l 17 736 z "},"˚":{"ha":154,"x_min":null,"x_max":null,"o":"m 78 736 b 49 781 58 736 49 756 b 78 826 49 806 58 826 b 106 781 96 826 106 806 b 78 736 106 756 96 736 z m 78 704 b 138 781 118 704 138 738 b 78 857 138 824 118 857 b 17 781 36 857 17 824 b 78 704 17 738 36 704 z "},"˛":{"ha":142,"x_min":null,"x_max":null,"o":"m 124 -222 b 93 -226 115 -225 103 -226 b 63 -186 71 -226 63 -221 l 63 -140 b 125 0 63 -74 78 -37 l 99 0 b 11 -154 44 -26 11 -76 l 11 -199 b 78 -292 11 -274 32 -292 b 124 -282 94 -292 111 -289 z "},"˜":{"ha":225,"x_min":null,"x_max":null,"o":"m 178 785 b 149 761 172 768 163 761 b 68 789 122 761 99 789 b 15 739 44 789 24 772 l 47 721 b 75 744 51 738 64 744 b 157 715 103 744 125 715 b 208 765 181 715 200 732 z "},"˝":{"ha":222,"x_min":null,"x_max":null,"o":"m 50 704 l 122 846 l 75 872 l 17 721 z m 135 704 l 206 846 l 158 872 l 100 721 z "},"̀":{"ha":0,"x_min":null,"x_max":null,"o":"m -100 704 l -71 733 l -174 872 l -212 828 z "},"́":{"ha":0,"x_min":null,"x_max":null,"o":"m -54 828 l -93 872 l -196 733 l -167 704 z "},"̂":{"ha":0,"x_min":null,"x_max":null,"o":"m -33 729 l -94 844 l -161 844 l -222 729 l -190 704 l -128 801 l -65 704 z "},"̃":{"ha":0,"x_min":null,"x_max":null,"o":"m -62 785 b -92 761 -68 768 -78 761 b -172 789 -118 761 -142 789 b -225 739 -196 789 -217 772 l -193 721 b -165 744 -189 738 -176 744 b -83 715 -137 744 -115 715 b -32 765 -60 715 -40 732 z "},"̄":{"ha":0,"x_min":null,"x_max":null,"o":"m -46 740 l -46 788 l -211 788 l -211 740 z "},"̆":{"ha":0,"x_min":null,"x_max":null,"o":"m -129 704 b -32 844 -72 704 -32 758 l -86 844 b -129 751 -89 778 -103 751 b -172 844 -157 751 -171 778 l -226 844 b -129 704 -226 760 -186 704 z "},"̇":{"ha":0,"x_min":null,"x_max":null,"o":"m -92 736 l -92 840 l -165 840 l -165 736 z "},"̈":{"ha":0,"x_min":null,"x_max":null,"o":"m -147 736 l -147 840 l -215 840 l -215 736 z m -40 736 l -40 840 l -108 840 l -108 736 z "},"̉":{"ha":0,"x_min":null,"x_max":null,"o":"m -118 713 b -72 783 -118 740 -72 739 b -126 836 -72 815 -96 836 b -182 817 -143 836 -167 829 l -168 776 b -133 792 -158 786 -147 792 b -114 776 -119 792 -114 786 b -154 713 -114 751 -154 754 z "},"̊":{"ha":0,"x_min":null,"x_max":null,"o":"m -126 736 b -156 781 -146 736 -156 756 b -126 826 -156 806 -146 826 b -99 781 -108 826 -99 806 b -126 736 -99 756 -108 736 z m -126 704 b -67 781 -86 704 -67 738 b -126 857 -67 824 -86 857 b -187 781 -168 857 -187 824 b -126 704 -187 738 -168 704 z "},"̋":{"ha":0,"x_min":null,"x_max":null,"o":"m -187 704 l -115 846 l -162 872 l -221 721 z m -103 704 l -32 846 l -79 872 l -137 721 z "},"̌":{"ha":0,"x_min":null,"x_max":null,"o":"m -94 717 l -33 814 l -65 840 l -128 761 l -190 840 l -222 814 l -161 717 z "},"̓":{"ha":0,"x_min":null,"x_max":null,"o":"m -94 985 b -161 882 -140 981 -161 953 l -161 718 l -94 718 l -94 842 l -128 842 l -128 900 b -94 950 -128 936 -115 946 z "},"̛":{"ha":50,"x_min":null,"x_max":null,"o":"m -71 649 b 0 626 -50 638 -22 626 b 47 700 33 626 47 651 b 42 744 47 719 46 736 l 1 744 b 4 706 3 735 4 722 b -26 672 4 682 1 672 b -71 675 -40 672 -57 674 z "},"̣":{"ha":0,"x_min":null,"x_max":null,"o":"m -89 -154 l -89 -51 l -164 -51 l -164 -154 z "},"̦":{"ha":0,"x_min":null,"x_max":null,"o":"m -161 -292 b -94 -189 -115 -287 -94 -260 l -94 -25 l -161 -25 l -161 -149 l -128 -149 l -128 -207 b -161 -257 -128 -243 -140 -253 z "},"̨":{"ha":0,"x_min":null,"x_max":null,"o":"m -72 -222 b -103 -226 -81 -225 -93 -226 b -133 -186 -125 -226 -133 -221 l -133 -140 b -71 0 -133 -74 -118 -37 l -97 0 b -185 -154 -151 -26 -185 -76 l -185 -199 b -118 -292 -185 -274 -164 -292 b -72 -282 -101 -292 -85 -289 z "},"̭":{"ha":0,"x_min":null,"x_max":null,"o":"m -33 -197 l -94 -82 l -161 -82 l -222 -197 l -190 -222 l -128 -125 l -65 -222 z "},"΄":{"ha":72,"x_min":null,"x_max":null,"o":"m 56 725 l 69 942 l 10 942 l 10 725 z "},"΅":{"ha":0,"x_min":null,"x_max":null,"o":"m -104 725 l -90 942 l -150 942 l -150 725 z m -168 736 l -168 840 l -242 840 l -242 736 z m -8 736 l -8 840 l -82 840 l -82 736 z "},"Ά":{"ha":282,"x_min":null,"x_max":null,"o":"m 275 0 l 213 922 l 90 922 l 29 0 l 104 0 l 117 238 l 185 238 l 199 0 z m 149 789 l 154 789 l 181 304 l 121 304 z m 56 725 l 69 942 l 10 942 l 10 725 z "},"·":{"ha":83,"x_min":null,"x_max":null,"o":"m 92 453 l 92 568 l 17 568 l 17 453 z "},"Έ":{"ha":263,"x_min":null,"x_max":null,"o":"m 253 0 l 253 69 l 154 69 l 154 449 l 238 449 l 238 518 l 154 518 l 154 851 l 247 851 l 247 922 l 78 922 l 78 0 z m 56 725 l 69 942 l 10 942 l 10 725 z "},"Ή":{"ha":319,"x_min":null,"x_max":null,"o":"m 301 0 l 301 922 l 224 922 l 224 525 l 154 525 l 154 922 l 76 922 l 76 0 l 154 0 l 154 457 l 224 457 l 224 0 z m 56 725 l 69 942 l 10 942 l 10 725 z "},"Ί":{"ha":171,"x_min":null,"x_max":null,"o":"m 154 0 l 154 922 l 76 922 l 76 0 z m 56 725 l 69 942 l 10 942 l 10 725 z "},"Ό":{"ha":308,"x_min":null,"x_max":null,"o":"m 293 804 b 182 926 293 881 253 926 b 71 806 111 926 71 882 l 71 114 b 183 -4 71 38 110 -4 b 293 113 254 -4 293 33 z m 217 108 b 182 67 217 81 204 67 b 147 108 158 67 147 81 l 147 813 b 182 854 147 839 160 854 b 217 811 204 854 217 839 z m 56 725 l 69 942 l 10 942 l 10 725 z "},"Ύ":{"ha":326,"x_min":null,"x_max":null,"o":"m 239 0 l 239 381 l 322 922 l 243 922 l 203 575 l 197 575 l 154 922 l 75 922 l 161 381 l 161 0 z m 56 725 l 69 942 l 10 942 l 10 725 z "},"Ώ":{"ha":326,"x_min":null,"x_max":null,"o":"m 318 0 l 318 67 l 268 67 l 268 72 b 310 201 296 96 310 124 l 310 822 b 193 926 310 890 267 926 b 75 822 119 926 75 890 l 75 201 b 115 72 75 124 89 94 l 115 67 l 68 67 l 68 0 l 179 0 l 179 63 b 153 200 161 74 153 107 l 153 813 b 193 854 153 840 167 854 b 231 813 218 854 231 840 l 231 200 b 207 63 231 107 222 74 l 207 0 z m 56 725 l 69 942 l 10 942 l 10 725 z "},"ΐ":{"ha":218,"x_min":null,"x_max":null,"o":"m 168 0 l 168 65 l 157 65 b 142 88 146 65 142 72 l 142 675 l 68 675 l 68 88 b 156 0 68 29 97 0 z m 129 725 l 143 942 l 83 942 l 83 725 z m 65 736 l 65 840 l -8 840 l -8 736 z m 225 736 l 225 840 l 151 840 l 151 736 z "},"Γ":{"ha":207,"x_min":null,"x_max":null,"o":"m 94 0 l 94 851 l 196 851 l 196 922 l 17 922 l 17 0 z "},"Δ":{"ha":258,"x_min":null,"x_max":null,"o":"m 251 0 l 189 922 l 67 922 l 6 0 z m 168 71 l 88 71 l 125 789 l 131 789 z "},"Θ":{"ha":251,"x_min":null,"x_max":null,"o":"m 236 804 b 125 926 236 881 196 926 b 14 806 54 926 14 882 l 14 114 b 126 -4 14 38 53 -4 b 236 113 197 -4 236 33 z m 154 449 l 154 518 l 96 518 l 96 449 z m 165 108 b 125 67 165 81 151 67 b 85 108 99 67 85 81 l 85 813 b 125 854 85 839 99 854 b 165 811 151 854 165 839 z "},"Λ":{"ha":258,"x_min":null,"x_max":null,"o":"m 68 922 l 7 0 l 81 0 l 125 753 l 131 753 l 175 0 l 253 0 l 190 922 z "},"Ξ":{"ha":201,"x_min":null,"x_max":null,"o":"m 192 0 l 192 69 l 10 69 l 10 0 z m 176 449 l 176 518 l 24 518 l 24 449 z m 186 851 l 186 922 l 14 922 l 14 851 z "},"Π":{"ha":260,"x_min":null,"x_max":null,"o":"m 242 0 l 242 922 l 17 922 l 17 0 l 94 0 l 94 851 l 164 851 l 164 0 z "},"Σ":{"ha":201,"x_min":null,"x_max":null,"o":"m 192 0 l 192 69 l 81 69 l 153 467 l 81 851 l 186 851 l 186 922 l 10 922 l 10 854 l 83 465 l 11 69 l 11 0 z "},"Φ":{"ha":356,"x_min":null,"x_max":null,"o":"m 215 0 l 215 186 l 256 186 b 344 279 321 186 344 219 l 344 690 b 256 785 344 750 321 785 l 215 785 l 215 922 l 140 922 l 140 785 l 100 785 b 13 690 35 785 13 750 l 13 279 b 100 186 13 219 35 186 l 140 186 l 140 0 z m 276 292 b 243 253 276 267 265 253 l 215 253 l 215 718 l 243 718 b 276 679 265 718 276 703 z m 140 253 l 113 253 b 79 292 90 253 79 267 l 79 679 b 113 718 79 703 90 718 l 140 718 z "},"Ψ":{"ha":361,"x_min":null,"x_max":null,"o":"m 218 0 l 218 197 l 258 197 b 347 292 324 197 347 232 l 347 922 l 279 922 l 279 304 b 246 264 279 279 268 264 l 218 264 l 218 922 l 143 922 l 143 264 l 115 264 b 82 304 93 264 82 279 l 82 922 l 14 922 l 14 292 b 103 197 14 232 38 197 l 143 197 l 143 0 z "},"Ω":{"ha":269,"x_min":null,"x_max":null,"o":"m 260 0 l 260 67 l 210 67 l 210 72 b 251 201 238 96 251 124 l 251 822 b 135 926 251 890 208 926 b 17 822 61 926 17 890 l 17 201 b 57 72 17 124 31 94 l 57 67 l 10 67 l 10 0 l 121 0 l 121 63 b 94 200 103 74 94 107 l 94 813 b 135 854 94 840 108 854 b 172 813 160 854 172 840 l 172 200 b 149 63 172 107 164 74 l 149 0 z "},"ά":{"ha":267,"x_min":null,"x_max":null,"o":"m 257 0 l 257 65 l 246 65 b 232 89 238 65 232 72 l 232 675 l 167 675 l 164 632 l 158 632 b 93 679 143 664 125 679 b 18 593 46 679 18 647 l 18 100 b 90 -4 18 40 25 -4 b 164 42 129 -4 150 13 l 169 42 b 246 0 178 11 200 0 z m 93 575 b 126 614 93 601 104 614 b 161 572 146 614 154 603 l 161 107 b 125 60 156 75 150 60 b 93 100 104 60 93 72 z m 146 725 l 160 942 l 100 942 l 100 725 z "},"έ":{"ha":244,"x_min":null,"x_max":null,"o":"m 143 725 l 157 942 l 97 942 l 97 725 z m 226 240 l 156 240 l 156 97 b 122 60 156 72 146 60 b 89 93 100 60 89 71 l 89 297 b 126 332 89 321 101 332 l 154 332 l 154 381 l 125 381 b 90 410 101 381 90 390 l 90 579 b 124 614 90 603 101 614 b 156 582 144 614 156 604 l 156 431 l 226 431 l 226 589 b 122 679 226 646 190 679 b 22 593 57 679 22 649 l 22 417 b 68 361 22 385 39 367 l 68 356 b 17 289 39 350 17 336 l 17 85 b 122 -4 17 29 47 -4 b 226 86 192 -4 226 25 z "},"ή":{"ha":253,"x_min":null,"x_max":null,"o":"m 235 -324 l 235 592 b 165 679 235 650 210 679 b 94 632 133 679 110 665 l 89 632 l 88 675 l 18 675 l 18 0 l 92 0 l 92 579 b 128 614 100 603 108 614 b 160 578 149 614 160 603 l 160 -324 z m 147 725 l 161 942 l 101 942 l 101 725 z "},"ί":{"ha":128,"x_min":null,"x_max":null,"o":"m 118 0 l 118 65 l 107 65 b 92 88 96 65 92 72 l 92 675 l 18 675 l 18 88 b 106 0 18 29 47 0 z m 79 725 l 93 942 l 33 942 l 33 725 z "},"ΰ":{"ha":246,"x_min":null,"x_max":null,"o":"m 142 725 l 156 942 l 96 942 l 96 725 z m 157 101 b 124 63 157 75 146 63 b 90 101 101 63 90 75 l 90 675 l 18 675 l 18 101 b 122 -4 18 29 50 -4 b 226 101 194 -4 226 29 l 226 675 l 157 675 z m 79 736 l 79 840 l 6 840 l 6 736 z m 238 736 l 238 840 l 164 840 l 164 736 z "},"α":{"ha":267,"x_min":null,"x_max":null,"o":"m 257 0 l 257 65 l 246 65 b 232 89 238 65 232 72 l 232 675 l 167 675 l 164 632 l 158 632 b 93 679 143 664 125 679 b 18 593 46 679 18 647 l 18 100 b 90 -4 18 40 25 -4 b 164 42 129 -4 150 13 l 169 42 b 246 0 178 11 200 0 z m 93 575 b 126 614 93 601 104 614 b 161 572 146 614 154 603 l 161 107 b 125 60 156 75 150 60 b 93 100 104 60 93 72 z "},"β":{"ha":251,"x_min":null,"x_max":null,"o":"m 90 -324 l 90 11 b 143 -4 103 3 118 -4 b 233 101 190 -4 233 19 l 233 429 b 183 507 233 474 215 499 l 183 513 b 229 575 214 522 229 542 l 229 851 b 126 938 229 915 199 938 b 18 850 47 938 18 911 l 18 -324 z m 160 99 b 126 60 160 71 146 60 b 90 78 110 60 99 69 l 90 839 b 125 871 90 861 101 871 b 158 839 149 871 158 861 l 158 574 b 125 536 158 554 154 536 l 114 536 l 114 478 l 125 478 b 160 438 151 478 160 468 z "},"γ":{"ha":236,"x_min":null,"x_max":null,"o":"m 154 -324 l 154 -82 l 231 675 l 160 675 l 122 150 l 117 150 l 79 675 l 4 675 l 81 -82 l 81 -324 z "},"δ":{"ha":249,"x_min":null,"x_max":null,"o":"m 18 504 l 18 101 b 124 -4 18 29 51 -4 b 229 101 197 -4 229 29 l 229 485 b 199 571 229 524 221 553 b 131 613 181 585 138 608 b 104 651 111 624 104 632 l 104 839 b 151 874 104 864 117 874 b 204 867 169 874 188 871 l 204 933 b 144 938 185 936 161 938 b 32 839 72 938 32 908 l 32 649 b 58 583 32 621 42 594 l 58 578 b 18 504 35 564 18 536 z m 157 101 b 124 63 157 75 147 63 b 90 101 100 63 90 75 l 90 504 b 108 553 90 525 97 542 l 132 539 b 157 488 149 526 157 514 z "},"ε":{"ha":244,"x_min":null,"x_max":null,"o":"m 226 240 l 156 240 l 156 97 b 122 60 156 72 146 60 b 89 93 100 60 89 71 l 89 297 b 126 332 89 321 101 332 l 154 332 l 154 381 l 125 381 b 90 410 101 381 90 390 l 90 579 b 124 614 90 603 101 614 b 156 582 144 614 156 604 l 156 431 l 226 431 l 226 589 b 122 679 226 646 190 679 b 22 593 57 679 22 649 l 22 417 b 68 361 22 385 39 367 l 68 356 b 17 289 39 350 17 336 l 17 85 b 122 -4 17 29 47 -4 b 226 86 192 -4 226 25 z "},"ζ":{"ha":224,"x_min":null,"x_max":null,"o":"m 207 -240 l 207 10 b 157 65 207 47 190 65 l 111 65 b 92 86 99 65 92 72 l 92 411 b 103 490 92 439 97 471 l 214 867 l 214 933 l 25 933 l 25 867 l 140 867 l 33 510 b 18 400 22 471 18 444 l 18 68 b 82 0 18 22 39 0 l 119 0 b 132 -14 128 0 132 -4 l 132 -240 z "},"η":{"ha":253,"x_min":null,"x_max":null,"o":"m 235 -324 l 235 592 b 165 679 235 650 210 679 b 94 632 133 679 110 665 l 89 632 l 88 675 l 18 675 l 18 0 l 92 0 l 92 579 b 128 614 100 603 108 614 b 160 578 149 614 160 603 l 160 -324 z "},"θ":{"ha":249,"x_min":null,"x_max":null,"o":"m 18 101 b 124 -4 18 29 51 -4 b 229 101 196 -4 229 29 l 229 822 b 124 929 229 894 196 929 b 18 822 51 929 18 894 z m 157 101 b 124 63 157 75 146 63 b 90 101 101 63 90 75 l 90 454 l 157 454 z m 157 510 l 90 510 l 90 822 b 124 863 90 849 101 863 b 157 822 146 863 157 849 z "},"ι":{"ha":128,"x_min":null,"x_max":null,"o":"m 118 0 l 118 65 l 107 65 b 92 88 96 65 92 72 l 92 675 l 18 675 l 18 88 b 106 0 18 29 47 0 z "},"κ":{"ha":250,"x_min":null,"x_max":null,"o":"m 244 0 l 172 383 l 246 675 l 168 675 l 97 388 l 92 388 l 92 675 l 18 675 l 18 0 l 92 0 l 92 188 l 114 269 l 118 269 l 168 0 z "},"λ":{"ha":261,"x_min":null,"x_max":null,"o":"m 253 65 l 244 65 b 226 83 231 65 228 69 l 157 854 b 78 933 151 917 131 933 l 42 933 l 42 868 l 57 868 b 81 843 72 868 79 863 l 92 708 l 4 0 l 78 0 l 121 431 l 128 431 l 160 58 b 225 0 163 18 179 0 l 253 0 z "},"μ":{"ha":251,"x_min":null,"x_max":null,"o":"m 93 -324 l 83 6 b 106 0 88 1 97 0 b 157 42 128 0 144 13 l 163 42 l 164 0 l 233 0 l 233 675 l 160 675 l 160 100 b 122 61 154 78 144 61 b 93 96 101 61 93 76 l 93 675 l 18 675 l 18 -324 z "},"ξ":{"ha":239,"x_min":null,"x_max":null,"o":"m 218 -240 l 218 10 b 169 65 218 47 201 65 l 111 65 b 92 86 99 65 92 72 l 92 474 b 129 507 92 496 104 507 l 154 507 l 154 556 l 126 556 b 92 585 103 556 92 567 l 92 838 b 125 872 92 861 103 872 b 157 842 146 872 157 863 l 157 707 l 226 707 l 226 847 b 124 938 226 904 193 938 b 24 853 57 938 24 908 l 24 592 b 69 536 24 560 39 544 l 69 531 b 18 465 40 525 18 511 l 18 68 b 82 0 18 22 39 0 l 132 0 b 143 -14 139 0 143 -4 l 143 -240 z "},"π":{"ha":310,"x_min":null,"x_max":null,"o":"m 283 0 l 283 65 l 274 65 b 258 88 264 65 258 72 l 258 608 l 300 608 l 300 675 l 10 675 l 10 608 l 49 608 l 49 0 l 124 0 l 124 608 l 185 608 l 185 88 b 274 0 185 29 214 0 z "},"ρ":{"ha":249,"x_min":null,"x_max":null,"o":"m 157 100 b 125 60 157 72 146 60 b 90 96 104 60 94 71 l 90 572 b 124 613 90 599 101 613 b 157 572 144 613 157 599 z m 90 -324 l 90 35 l 96 35 b 157 -4 110 8 129 -4 b 229 81 203 -4 229 28 l 229 572 b 124 679 229 644 196 679 b 18 572 51 679 18 644 l 18 -324 z "},"ς":{"ha":246,"x_min":null,"x_max":null,"o":"m 226 -240 l 226 10 b 179 65 226 47 211 65 l 110 65 b 90 86 96 65 90 72 l 90 572 b 124 613 90 599 101 613 b 157 572 146 613 157 599 l 157 431 l 226 431 l 226 572 b 124 679 226 643 196 679 b 18 572 51 679 18 643 l 18 68 b 82 0 18 22 39 0 l 142 0 b 153 -14 149 0 153 -4 l 153 -240 z "},"σ":{"ha":263,"x_min":null,"x_max":null,"o":"m 253 675 l 124 675 b 18 568 51 675 18 640 l 18 101 b 124 -4 18 29 51 -4 b 226 101 196 -4 226 29 l 226 568 b 221 608 226 583 224 597 l 253 608 z m 157 568 l 157 101 b 124 63 157 75 147 63 b 90 103 99 63 90 76 l 90 568 b 133 608 90 600 110 608 l 150 608 b 157 568 154 599 157 585 z "},"τ":{"ha":197,"x_min":null,"x_max":null,"o":"m 161 0 l 161 65 l 151 65 b 136 88 140 65 136 72 l 136 608 l 188 608 l 188 675 l 10 675 l 10 608 l 61 608 l 61 88 b 150 0 61 29 90 0 z "},"υ":{"ha":246,"x_min":null,"x_max":null,"o":"m 157 101 b 124 63 157 75 146 63 b 90 101 101 63 90 75 l 90 675 l 18 675 l 18 101 b 122 -4 18 29 50 -4 b 226 101 194 -4 226 29 l 226 675 l 157 675 z "},"φ":{"ha":353,"x_min":null,"x_max":null,"o":"m 213 -324 l 213 0 l 265 0 b 336 81 307 0 336 31 l 336 594 b 265 675 336 643 307 675 l 213 675 l 213 933 l 140 933 l 140 675 l 88 675 b 18 594 46 675 18 643 l 18 81 b 88 0 18 31 46 0 l 140 0 l 140 -324 z m 140 61 l 114 61 b 86 96 96 61 86 72 l 86 579 b 114 614 86 601 96 614 l 140 614 z m 213 614 l 239 614 b 267 579 257 614 267 601 l 267 96 b 239 61 267 72 257 61 l 213 61 z "},"χ":{"ha":247,"x_min":null,"x_max":null,"o":"m 243 -324 l 176 199 l 240 675 l 167 675 l 129 299 l 124 299 l 82 675 l 7 675 l 71 182 l 4 -324 l 79 -324 l 119 74 l 125 74 l 167 -324 z "},"ψ":{"ha":353,"x_min":null,"x_max":null,"o":"m 213 -324 l 213 0 l 265 0 b 336 81 307 0 336 31 l 336 675 l 267 675 l 267 96 b 239 61 267 72 257 61 l 213 61 l 213 933 l 140 933 l 140 61 l 114 61 b 86 96 96 61 86 72 l 86 675 l 18 675 l 18 81 b 88 0 18 31 46 0 l 140 0 l 140 -324 z "},"ω":{"ha":364,"x_min":null,"x_max":null,"o":"m 274 103 b 243 63 274 76 264 63 b 213 101 224 63 213 76 l 213 476 l 150 476 l 150 101 b 119 63 150 76 139 63 b 90 103 100 63 90 76 l 90 593 b 107 675 90 626 96 653 l 35 675 b 18 593 24 658 18 631 l 18 104 b 100 -4 18 28 44 -4 b 179 33 133 -4 158 6 l 185 33 b 264 -4 206 6 231 -4 b 346 104 318 -4 346 28 l 346 593 b 328 675 346 631 340 658 l 256 675 b 274 593 268 653 274 626 z "},"ϊ":{"ha":169,"x_min":null,"x_max":null,"o":"m 144 0 l 144 65 l 133 65 b 118 88 122 65 118 72 l 118 675 l 44 675 l 44 88 b 132 0 44 29 74 0 z m 63 736 l 63 840 l -6 840 l -6 736 z m 169 736 l 169 840 l 101 840 l 101 736 z "},"ϋ":{"ha":246,"x_min":null,"x_max":null,"o":"m 157 101 b 124 63 157 75 146 63 b 90 101 101 63 90 75 l 90 675 l 18 675 l 18 101 b 122 -4 18 29 50 -4 b 226 101 194 -4 226 29 l 226 675 l 157 675 z m 104 736 l 104 840 l 36 840 l 36 736 z m 211 736 l 211 840 l 143 840 l 143 736 z "},"ό":{"ha":249,"x_min":null,"x_max":null,"o":"m 229 572 b 124 679 229 644 196 679 b 18 572 51 679 18 644 l 18 101 b 124 -4 18 29 51 -4 b 229 101 196 -4 229 29 z m 157 101 b 124 63 157 75 146 63 b 90 101 101 63 90 75 l 90 572 b 124 613 90 599 101 613 b 157 572 146 613 157 599 z m 144 725 l 158 942 l 99 942 l 99 725 z "},"ύ":{"ha":246,"x_min":null,"x_max":null,"o":"m 142 725 l 156 942 l 96 942 l 96 725 z m 157 101 b 124 63 157 75 146 63 b 90 101 101 63 90 75 l 90 675 l 18 675 l 18 101 b 122 -4 18 29 50 -4 b 226 101 194 -4 226 29 l 226 675 l 157 675 z "},"ώ":{"ha":364,"x_min":null,"x_max":null,"o":"m 274 103 b 243 63 274 76 264 63 b 213 101 224 63 213 76 l 213 476 l 150 476 l 150 101 b 119 63 150 76 139 63 b 90 103 100 63 90 76 l 90 593 b 107 675 90 626 96 653 l 35 675 b 18 593 24 658 18 631 l 18 104 b 100 -4 18 28 44 -4 b 179 33 133 -4 158 6 l 185 33 b 264 -4 206 6 231 -4 b 346 104 318 -4 346 28 l 346 593 b 328 675 346 631 340 658 l 256 675 b 274 593 268 653 274 626 z m 197 725 l 211 942 l 151 942 l 151 725 z "},"Ђ":{"ha":303,"x_min":null,"x_max":null,"o":"m 65 0 l 143 0 l 143 513 b 178 556 149 544 158 556 b 207 522 196 556 207 546 l 207 -218 b 175 -257 207 -243 196 -257 b 143 -218 153 -257 143 -243 l 143 -56 l 65 -56 l 65 -218 b 175 -324 65 -289 106 -324 b 285 -218 246 -324 285 -289 l 285 544 b 217 625 285 600 263 625 b 149 589 185 625 169 614 l 143 589 l 143 851 l 204 851 l 204 922 l 11 922 l 11 851 l 65 851 z "},"Ѓ":{"ha":207,"x_min":null,"x_max":null,"o":"m 189 1076 l 150 1121 l 47 982 l 76 953 z m 94 0 l 94 851 l 196 851 l 196 922 l 17 922 l 17 0 z "},"Є":{"ha":251,"x_min":null,"x_max":null,"o":"m 235 268 l 161 268 l 161 108 b 128 67 161 81 150 67 b 93 108 104 67 93 81 l 93 454 l 161 454 l 161 518 l 93 518 l 93 813 b 128 854 93 839 104 854 b 161 811 150 854 161 839 l 161 661 l 235 661 l 235 804 b 125 926 235 881 197 926 b 17 806 56 926 17 882 l 17 114 b 126 -4 17 38 54 -4 b 235 113 197 -4 235 33 z "},"Љ":{"ha":425,"x_min":null,"x_max":null,"o":"m 271 922 l 78 922 l 68 582 b 43 104 60 296 51 156 b 17 71 39 78 32 71 l 11 71 l 11 0 l 22 0 b 99 58 61 0 86 14 b 132 581 114 115 124 267 l 139 851 l 193 851 l 193 0 l 324 0 b 413 93 390 0 413 38 l 413 442 b 324 529 413 497 389 529 l 271 529 z m 271 69 l 271 461 l 308 461 b 339 425 331 461 339 456 l 339 118 b 307 69 339 85 332 69 z "},"Њ":{"ha":396,"x_min":null,"x_max":null,"o":"m 242 922 l 164 922 l 164 529 l 94 529 l 94 922 l 17 922 l 17 0 l 94 0 l 94 461 l 164 461 l 164 0 l 294 0 b 385 93 363 0 385 38 l 385 442 b 294 529 385 497 360 529 l 242 529 z m 242 69 l 242 461 l 281 461 b 311 425 303 461 311 456 l 311 118 b 279 69 311 85 303 69 z "},"Ћ":{"ha":301,"x_min":null,"x_max":null,"o":"m 65 0 l 143 0 l 143 521 b 178 556 151 547 160 556 b 207 522 196 556 207 546 l 207 0 l 285 0 l 285 544 b 217 625 285 600 263 625 b 149 589 185 625 169 614 l 143 589 l 143 851 l 204 851 l 204 922 l 11 922 l 11 851 l 65 851 z "},"Ќ":{"ha":256,"x_min":null,"x_max":null,"o":"m 249 0 l 176 565 l 250 922 l 172 922 l 100 563 l 94 563 l 94 922 l 17 922 l 17 0 l 94 0 l 94 290 l 118 396 l 121 396 l 171 0 z m 206 1076 l 167 1121 l 64 982 l 93 953 z "},"Ѝ":{"ha":272,"x_min":null,"x_max":null,"o":"m 167 953 l 196 982 l 93 1121 l 54 1076 z m 256 0 l 256 922 l 168 922 l 97 324 l 92 324 l 92 922 l 17 922 l 17 0 l 99 0 l 176 629 l 181 629 l 181 0 z "},"Ў":{"ha":256,"x_min":null,"x_max":null,"o":"m 126 953 b 224 1093 183 953 224 1007 l 169 1093 b 126 1000 167 1026 153 1000 b 83 1093 99 1000 85 1026 l 29 1093 b 126 953 29 1008 69 953 z m 161 108 b 126 67 161 81 150 67 b 92 108 104 67 92 81 l 92 307 l 17 307 l 17 113 b 128 -4 17 33 57 -4 b 238 114 201 -4 238 38 l 238 922 l 161 922 l 161 456 b 124 421 157 432 144 421 b 92 463 101 421 92 435 l 92 922 l 17 922 l 17 467 b 92 350 17 389 42 350 b 156 385 118 350 144 361 l 161 385 z "},"Џ":{"ha":260,"x_min":null,"x_max":null,"o":"m 158 -192 l 158 0 l 242 0 l 242 922 l 164 922 l 164 71 l 94 71 l 94 922 l 17 922 l 17 0 l 100 0 l 100 -192 z "},"Б":{"ha":249,"x_min":null,"x_max":null,"o":"m 196 922 l 17 922 l 17 0 l 147 0 b 236 93 214 0 236 38 l 236 442 b 147 529 236 497 213 529 l 94 529 l 94 851 l 196 851 z m 94 69 l 94 461 l 132 461 b 163 425 154 461 163 456 l 163 118 b 131 69 163 85 156 69 z "},"Д":{"ha":310,"x_min":null,"x_max":null,"o":"m 300 -192 l 300 71 l 272 71 l 272 922 l 79 922 l 69 581 b 35 85 58 208 50 113 b 17 71 31 75 24 71 l 10 71 l 10 -192 l 67 -192 l 67 0 l 243 0 l 243 -192 z m 194 71 l 99 71 b 133 579 111 94 122 172 l 140 851 l 194 851 z "},"Ж":{"ha":406,"x_min":null,"x_max":null,"o":"m 85 0 l 158 410 l 164 410 l 164 0 l 240 0 l 240 410 l 246 410 l 319 0 l 401 0 l 307 469 l 397 922 l 318 922 l 246 549 l 240 549 l 240 922 l 164 922 l 164 549 l 158 549 l 88 922 l 8 922 l 96 469 l 4 0 z "},"И":{"ha":272,"x_min":null,"x_max":null,"o":"m 256 0 l 256 922 l 168 922 l 97 324 l 92 324 l 92 922 l 17 922 l 17 0 l 99 0 l 176 629 l 181 629 l 181 0 z "},"Й":{"ha":272,"x_min":null,"x_max":null,"o":"m 138 953 b 235 1093 194 953 235 1007 l 181 1093 b 138 1000 178 1026 164 1000 b 94 1093 110 1000 96 1026 l 40 1093 b 138 953 40 1008 81 953 z m 256 0 l 256 922 l 168 922 l 97 324 l 92 324 l 92 922 l 17 922 l 17 0 l 99 0 l 176 629 l 181 629 l 181 0 z "},"Л":{"ha":288,"x_min":null,"x_max":null,"o":"m 271 0 l 271 922 l 78 922 l 68 582 b 43 104 60 296 51 156 b 17 71 39 78 32 71 l 11 71 l 11 0 l 22 0 b 99 58 61 0 86 14 b 132 581 114 115 124 267 l 139 851 l 193 851 l 193 0 z "},"У":{"ha":256,"x_min":null,"x_max":null,"o":"m 161 108 b 126 67 161 81 150 67 b 92 108 104 67 92 81 l 92 307 l 17 307 l 17 113 b 128 -4 17 33 57 -4 b 238 114 201 -4 238 38 l 238 922 l 161 922 l 161 456 b 124 421 157 432 144 421 b 92 463 101 421 92 435 l 92 922 l 17 922 l 17 467 b 92 350 17 389 42 350 b 156 385 118 350 144 361 l 161 385 z "},"Ц":{"ha":279,"x_min":null,"x_max":null,"o":"m 271 -192 l 271 71 l 242 71 l 242 922 l 164 922 l 164 71 l 94 71 l 94 922 l 17 922 l 17 0 l 213 0 l 213 -192 z "},"Ч":{"ha":256,"x_min":null,"x_max":null,"o":"m 238 0 l 238 922 l 161 922 l 161 479 b 125 468 154 471 138 468 b 92 507 101 468 92 478 l 92 922 l 17 922 l 17 503 b 97 397 17 425 39 397 b 157 410 121 397 140 401 l 161 410 l 161 0 z "},"Ш":{"ha":386,"x_min":null,"x_max":null,"o":"m 368 0 l 368 922 l 290 922 l 290 71 l 228 71 l 228 922 l 156 922 l 156 71 l 94 71 l 94 922 l 17 922 l 17 0 z "},"Щ":{"ha":407,"x_min":null,"x_max":null,"o":"m 397 -192 l 397 71 l 368 71 l 368 922 l 290 922 l 290 71 l 228 71 l 228 922 l 156 922 l 156 71 l 94 71 l 94 922 l 17 922 l 17 0 l 339 0 l 339 -192 z "},"Ъ":{"ha":329,"x_min":null,"x_max":null,"o":"m 96 0 l 228 0 b 317 93 294 0 317 38 l 317 429 b 228 529 317 496 294 529 l 175 529 l 175 922 l 11 922 l 11 851 l 96 851 z m 175 69 l 175 461 l 204 461 b 243 421 233 461 243 453 l 243 114 b 211 69 243 83 233 69 z "},"Ы":{"ha":358,"x_min":null,"x_max":null,"o":"m 342 0 l 342 922 l 264 922 l 264 0 z m 94 922 l 17 922 l 17 0 l 147 0 b 236 93 214 0 236 38 l 236 442 b 147 529 236 497 213 529 l 94 529 z m 94 69 l 94 461 l 132 461 b 163 425 154 461 163 456 l 163 118 b 131 69 163 85 156 69 z "},"Ь":{"ha":249,"x_min":null,"x_max":null,"o":"m 94 922 l 17 922 l 17 0 l 147 0 b 236 93 214 0 236 38 l 236 442 b 147 529 236 497 213 529 l 94 529 z m 94 69 l 94 461 l 132 461 b 163 425 154 461 163 456 l 163 118 b 131 69 163 85 156 69 z "},"Э":{"ha":251,"x_min":null,"x_max":null,"o":"m 17 113 b 125 -4 17 33 54 -4 b 235 114 197 -4 235 38 l 235 806 b 126 926 235 882 196 926 b 17 804 54 926 17 881 l 17 661 l 89 661 l 89 811 b 124 854 89 839 101 854 b 158 813 146 854 158 839 l 158 518 l 89 518 l 89 454 l 158 454 l 158 108 b 124 67 158 81 147 67 b 89 108 101 67 89 81 l 89 268 l 17 268 z "},"Ю":{"ha":383,"x_min":null,"x_max":null,"o":"m 94 0 l 94 450 l 143 450 l 143 114 b 256 -4 143 38 182 -4 b 365 113 326 -4 365 33 l 365 804 b 254 926 365 881 325 926 b 143 806 183 926 143 882 l 143 518 l 94 518 l 94 922 l 17 922 l 17 0 z m 289 108 b 254 67 289 81 276 67 b 219 108 232 67 219 81 l 219 811 b 254 854 219 839 232 854 b 289 811 276 854 289 839 z "},"Я":{"ha":249,"x_min":null,"x_max":null,"o":"m 81 0 l 124 404 l 153 404 l 153 0 l 231 0 l 231 922 l 100 922 b 13 810 29 922 13 885 l 13 511 b 51 415 13 467 24 433 l 4 0 z m 85 507 l 85 810 b 117 851 85 839 94 851 l 153 851 l 153 467 l 117 467 b 85 507 94 467 85 479 z "},"б":{"ha":250,"x_min":null,"x_max":null,"o":"m 157 100 b 124 60 157 72 146 60 b 90 100 101 60 90 72 l 90 579 b 125 614 96 603 106 614 b 157 575 146 614 157 601 z m 233 593 b 157 679 233 647 204 679 b 93 640 126 679 107 665 l 88 640 l 88 804 b 124 867 88 847 99 867 l 165 867 b 219 967 201 867 219 900 l 175 967 b 139 933 172 944 160 933 l 94 933 b 18 804 33 933 18 893 l 18 101 b 126 -4 18 29 51 -4 b 233 81 197 -4 233 28 z "},"в":{"ha":247,"x_min":null,"x_max":null,"o":"m 225 425 l 225 589 b 129 675 225 649 196 675 l 18 675 l 18 0 l 128 0 b 232 97 201 0 232 29 l 232 286 b 182 356 232 324 219 349 l 182 361 b 225 425 211 369 225 389 z m 125 332 b 160 299 149 332 160 321 l 160 94 b 129 60 160 72 150 60 l 92 60 l 92 332 z m 157 408 b 126 381 157 388 147 381 l 92 381 l 92 610 l 128 610 b 157 576 149 610 157 599 z "},"г":{"ha":168,"x_min":null,"x_max":null,"o":"m 92 0 l 92 608 l 158 608 l 158 675 l 18 675 l 18 0 z "},"д":{"ha":292,"x_min":null,"x_max":null,"o":"m 283 -208 l 283 65 l 254 65 l 254 675 l 74 675 l 64 421 b 19 65 53 121 43 65 l 10 65 l 10 -208 l 67 -208 l 67 0 l 225 0 l 225 -208 z m 179 65 l 89 65 b 121 419 104 90 107 146 l 131 608 l 179 608 z "},"ж":{"ha":378,"x_min":null,"x_max":null,"o":"m 374 0 l 292 344 l 369 675 l 294 675 l 231 400 l 225 400 l 225 675 l 153 675 l 153 400 l 147 400 l 85 675 l 8 675 l 85 344 l 4 0 l 82 0 l 147 304 l 153 304 l 153 0 l 225 0 l 225 304 l 231 304 l 296 0 z "},"з":{"ha":244,"x_min":null,"x_max":null,"o":"m 226 289 b 175 356 226 336 204 350 l 175 361 b 219 417 207 367 219 385 l 219 593 b 122 679 219 649 188 679 b 17 589 53 679 17 646 l 17 468 l 88 468 l 88 582 b 121 614 88 604 99 614 b 153 579 143 614 153 603 l 153 410 b 118 381 153 390 143 381 l 90 381 l 90 332 l 117 332 b 154 297 142 332 154 321 l 154 93 b 122 60 154 71 143 60 b 89 97 99 60 89 72 l 89 240 l 17 240 l 17 86 b 121 -4 17 25 51 -4 b 226 85 196 -4 226 29 z "},"и":{"ha":263,"x_min":null,"x_max":null,"o":"m 243 0 l 243 675 l 164 675 l 96 260 l 90 260 l 90 675 l 18 675 l 18 0 l 94 0 l 165 417 l 171 417 l 171 0 z "},"й":{"ha":263,"x_min":null,"x_max":null,"o":"m 131 704 b 228 844 188 704 228 758 l 174 844 b 131 751 171 778 157 751 b 88 844 103 751 89 778 l 33 844 b 131 704 33 760 74 704 z m 243 0 l 243 675 l 164 675 l 96 260 l 90 260 l 90 675 l 18 675 l 18 0 l 94 0 l 165 417 l 171 417 l 171 0 z "},"л":{"ha":269,"x_min":null,"x_max":null,"o":"m 250 0 l 250 675 l 69 675 l 60 432 b 36 82 50 171 44 107 b 15 65 32 69 24 65 l 10 65 l 10 0 l 19 0 b 83 35 57 0 74 11 b 117 432 96 65 100 135 l 126 608 l 175 608 l 175 0 z "},"м":{"ha":338,"x_min":null,"x_max":null,"o":"m 319 0 l 319 675 l 213 675 l 172 181 l 168 181 l 126 675 l 18 675 l 18 0 l 82 0 l 82 365 b 79 513 82 464 81 488 l 85 513 l 136 0 l 201 0 l 253 513 l 258 513 b 254 365 257 488 254 464 l 254 0 z "},"н":{"ha":254,"x_min":null,"x_max":null,"o":"m 235 0 l 235 675 l 161 675 l 161 382 l 92 382 l 92 675 l 18 675 l 18 0 l 92 0 l 92 315 l 161 315 l 161 0 z "},"п":{"ha":254,"x_min":null,"x_max":null,"o":"m 235 0 l 235 675 l 18 675 l 18 0 l 92 0 l 92 608 l 161 608 l 161 0 z "},"т":{"ha":211,"x_min":null,"x_max":null,"o":"m 143 0 l 143 608 l 201 608 l 201 675 l 11 675 l 11 608 l 68 608 l 68 0 z "},"ц":{"ha":274,"x_min":null,"x_max":null,"o":"m 264 -186 l 264 65 l 235 65 l 235 675 l 161 675 l 161 65 l 92 65 l 92 675 l 18 675 l 18 0 l 206 0 l 206 -186 z "},"ч":{"ha":253,"x_min":null,"x_max":null,"o":"m 233 0 l 233 675 l 160 675 l 160 351 b 125 343 153 346 140 343 b 90 371 100 343 90 351 l 90 675 l 17 675 l 17 351 b 94 279 17 300 39 279 b 154 293 121 279 140 285 l 160 293 l 160 0 z "},"ш":{"ha":372,"x_min":null,"x_max":null,"o":"m 354 0 l 354 675 l 281 675 l 281 65 l 219 65 l 219 675 l 153 675 l 153 65 l 92 65 l 92 675 l 18 675 l 18 0 z "},"щ":{"ha":393,"x_min":null,"x_max":null,"o":"m 383 -186 l 383 65 l 354 65 l 354 675 l 281 675 l 281 65 l 219 65 l 219 675 l 153 675 l 153 65 l 92 65 l 92 675 l 18 675 l 18 0 l 325 0 l 325 -186 z "},"ъ":{"ha":296,"x_min":null,"x_max":null,"o":"m 146 675 l 7 675 l 7 608 l 71 608 l 71 0 l 196 0 b 282 69 258 0 282 25 l 282 336 b 196 411 282 389 260 411 l 146 411 z m 146 64 l 146 349 l 181 349 b 211 321 203 349 211 339 l 211 93 b 181 64 211 72 203 64 z "},"ы":{"ha":347,"x_min":null,"x_max":null,"o":"m 92 675 l 18 675 l 18 0 l 143 0 b 228 69 206 0 228 25 l 228 336 b 143 411 228 389 206 411 l 92 411 z m 92 64 l 92 349 l 128 349 b 158 321 149 349 158 339 l 158 93 b 128 64 158 72 149 64 z m 328 0 l 328 675 l 254 675 l 254 0 z "},"ь":{"ha":242,"x_min":null,"x_max":null,"o":"m 92 675 l 18 675 l 18 0 l 143 0 b 228 69 206 0 228 25 l 228 336 b 143 411 228 389 206 411 l 92 411 z m 92 64 l 92 349 l 128 349 b 158 321 149 349 158 339 l 158 93 b 128 64 158 72 149 64 z "},"э":{"ha":246,"x_min":null,"x_max":null,"o":"m 156 326 l 156 99 b 122 60 156 72 144 60 b 89 97 100 60 89 72 l 89 238 l 18 238 l 18 101 b 122 -4 18 31 50 -4 b 228 101 194 -4 228 31 l 228 572 b 122 679 228 643 193 679 b 19 585 50 679 19 643 l 19 471 l 90 471 l 90 583 b 122 614 90 601 100 614 b 156 575 144 614 156 601 l 156 381 l 89 381 l 89 326 z "},"ю":{"ha":368,"x_min":null,"x_max":null,"o":"m 349 572 b 243 679 349 646 317 679 b 139 572 171 679 139 646 l 139 385 l 90 385 l 90 675 l 18 675 l 18 0 l 90 0 l 90 318 l 139 318 l 139 101 b 243 -4 139 29 171 -4 b 349 101 317 -4 349 29 z m 276 101 b 243 63 276 75 265 63 b 210 101 221 63 210 75 l 210 572 b 243 613 210 599 221 613 b 276 572 265 613 276 599 z "},"я":{"ha":247,"x_min":null,"x_max":null,"o":"m 79 0 l 122 275 l 154 275 l 154 0 l 228 0 l 228 675 l 103 675 b 18 604 40 675 18 649 l 18 351 b 54 282 18 317 28 293 l 4 0 z m 88 363 l 88 578 b 118 610 88 600 97 610 l 154 610 l 154 335 l 118 335 b 88 363 100 335 88 340 z "},"ђ":{"ha":253,"x_min":null,"x_max":null,"o":"m 165 757 l 165 804 l 92 804 l 92 933 l 18 933 l 18 804 l -1 804 l -1 757 l 18 757 l 18 0 l 92 0 l 92 575 b 128 614 97 603 108 614 b 160 578 149 614 160 601 l 160 -218 b 125 -257 160 -243 149 -257 b 92 -218 103 -257 92 -243 l 92 -37 l 18 -37 l 18 -218 b 125 -324 18 -289 53 -324 b 235 -218 197 -324 235 -289 l 235 585 b 167 679 235 650 217 679 b 97 631 131 679 111 663 l 92 631 l 92 757 z "},"ѓ":{"ha":168,"x_min":null,"x_max":null,"o":"m 169 828 l 131 872 l 28 733 l 57 704 z m 92 0 l 92 608 l 158 608 l 158 675 l 18 675 l 18 0 z "},"є":{"ha":246,"x_min":null,"x_max":null,"o":"m 156 326 l 156 381 l 90 381 l 90 575 b 124 614 90 601 101 614 b 156 583 146 614 156 601 l 156 471 l 225 471 l 225 585 b 124 679 225 643 196 679 b 18 572 51 679 18 643 l 18 101 b 124 -4 18 31 51 -4 b 226 101 196 -4 226 31 l 226 238 l 157 238 l 157 97 b 124 60 157 72 146 60 b 90 99 101 60 90 72 l 90 326 z "},"љ":{"ha":400,"x_min":null,"x_max":null,"o":"m 250 675 l 69 675 l 60 432 b 36 82 50 171 44 107 b 15 65 32 69 24 65 l 10 65 l 10 0 l 19 0 b 83 35 57 0 74 11 b 117 432 96 65 100 135 l 126 608 l 175 608 l 175 0 l 300 0 b 386 69 363 0 386 25 l 386 336 b 300 411 386 389 364 411 l 250 411 z m 250 64 l 250 349 l 285 349 b 317 321 307 349 317 339 l 317 93 b 285 64 317 72 307 64 z "},"њ":{"ha":385,"x_min":null,"x_max":null,"o":"m 235 675 l 161 675 l 161 411 l 92 411 l 92 675 l 18 675 l 18 0 l 92 0 l 92 349 l 161 349 l 161 0 l 286 0 b 371 69 349 0 371 25 l 371 336 b 286 411 371 389 349 411 l 235 411 z m 235 64 l 235 349 l 271 349 b 301 321 292 349 301 339 l 301 93 b 271 64 301 72 292 64 z "},"ќ":{"ha":250,"x_min":null,"x_max":null,"o":"m 213 828 l 174 872 l 71 733 l 100 704 z m 244 0 l 172 383 l 246 675 l 168 675 l 97 388 l 92 388 l 92 675 l 18 675 l 18 0 l 92 0 l 92 188 l 114 269 l 118 269 l 168 0 z "},"ѝ":{"ha":263,"x_min":null,"x_max":null,"o":"m 160 704 l 189 733 l 86 872 l 47 828 z m 243 0 l 243 675 l 164 675 l 96 260 l 90 260 l 90 675 l 18 675 l 18 0 l 94 0 l 165 417 l 171 417 l 171 0 z "},"ў":{"ha":251,"x_min":null,"x_max":null,"o":"m 93 675 l 18 675 l 18 104 b 92 0 18 28 46 0 b 154 39 124 0 142 11 l 158 39 l 158 -218 b 125 -257 158 -243 147 -257 b 92 -218 103 -257 92 -243 l 92 -42 l 19 -42 l 19 -218 b 125 -324 19 -289 53 -324 b 232 -218 197 -324 232 -289 l 232 675 l 161 675 l 161 111 b 125 68 156 83 149 68 b 93 107 104 68 93 79 z m 128 704 b 225 844 185 704 225 758 l 171 844 b 128 751 168 778 154 751 b 85 844 100 751 86 778 l 31 844 b 128 704 31 760 71 704 z "},"џ":{"ha":254,"x_min":null,"x_max":null,"o":"m 156 -186 l 156 0 l 235 0 l 235 675 l 161 675 l 161 65 l 92 65 l 92 675 l 18 675 l 18 0 l 97 0 l 97 -186 z "},"Ґ":{"ha":206,"x_min":null,"x_max":null,"o":"m 94 0 l 94 851 l 196 851 l 196 1086 l 138 1086 l 138 922 l 17 922 l 17 0 z "},"ґ":{"ha":168,"x_min":null,"x_max":null,"o":"m 92 0 l 92 608 l 158 608 l 158 819 l 101 819 l 101 675 l 18 675 l 18 0 z "},"Ғ":{"ha":218,"x_min":null,"x_max":null,"o":"m 106 0 l 106 417 l 168 417 l 168 476 l 106 476 l 106 851 l 208 851 l 208 922 l 28 922 l 28 476 l 3 476 l 3 417 l 28 417 l 28 0 z "},"ғ":{"ha":178,"x_min":null,"x_max":null,"o":"m 101 0 l 101 282 l 168 282 l 168 328 l 101 328 l 101 608 l 168 608 l 168 675 l 26 675 l 26 328 l 3 328 l 3 282 l 26 282 l 26 0 z "},"Җ":{"ha":439,"x_min":null,"x_max":null,"o":"m 85 0 l 158 410 l 164 410 l 164 0 l 240 0 l 240 410 l 246 410 l 319 0 l 371 0 l 371 -143 l 429 -143 l 429 71 l 386 71 l 307 469 l 397 922 l 318 922 l 246 549 l 240 549 l 240 922 l 164 922 l 164 549 l 158 549 l 88 922 l 8 922 l 96 469 l 4 0 z "},"җ":{"ha":414,"x_min":null,"x_max":null,"o":"m 404 -143 l 404 71 l 357 71 l 292 344 l 369 675 l 294 675 l 231 400 l 225 400 l 225 675 l 153 675 l 153 400 l 147 400 l 85 675 l 8 675 l 85 344 l 4 0 l 82 0 l 147 304 l 153 304 l 153 0 l 225 0 l 225 304 l 231 304 l 296 0 l 346 0 l 346 -143 z "},"Ҙ":{"ha":247,"x_min":null,"x_max":null,"o":"m 69 -282 b 115 -292 82 -289 99 -292 b 182 -199 161 -292 182 -274 l 182 -154 b 140 -11 182 -96 167 -46 l 140 -3 b 235 114 201 3 235 42 l 235 410 b 181 488 235 460 211 482 l 181 493 b 228 565 213 499 228 525 l 228 824 b 124 926 228 874 197 926 b 17 807 56 926 17 882 l 17 661 l 89 661 l 89 815 b 124 854 89 839 101 854 b 157 815 146 854 157 838 l 157 558 b 121 521 157 535 149 521 l 89 521 l 89 456 l 119 456 b 158 417 147 456 158 442 l 158 108 b 124 67 158 81 147 67 b 89 108 101 67 89 81 l 89 268 l 17 268 l 17 113 b 96 -1 17 44 43 7 b 131 -140 122 -37 131 -85 l 131 -186 b 100 -226 131 -221 122 -226 b 69 -222 90 -226 78 -225 z "},"ҙ":{"ha":244,"x_min":null,"x_max":null,"o":"m 226 289 b 175 356 226 336 204 350 l 175 361 b 219 417 207 367 219 385 l 219 593 b 122 679 219 649 188 679 b 17 589 53 679 17 646 l 17 468 l 88 468 l 88 582 b 121 614 88 604 99 614 b 153 579 143 614 153 603 l 153 410 b 118 381 153 390 143 381 l 90 381 l 90 332 l 117 332 b 154 297 142 332 154 321 l 154 93 b 122 60 154 71 143 60 b 89 97 99 60 89 72 l 89 240 l 17 240 l 17 86 b 83 0 17 38 39 8 b 128 -140 121 -35 128 -79 l 128 -186 b 97 -226 128 -221 119 -226 b 67 -222 88 -226 75 -225 l 67 -282 b 113 -292 79 -289 96 -292 b 179 -199 158 -292 179 -274 l 179 -154 b 126 -10 179 -90 161 -40 l 126 -4 b 226 85 197 -3 226 31 z "},"Қ":{"ha":292,"x_min":null,"x_max":null,"o":"m 283 -143 l 283 71 l 239 71 l 176 565 l 250 922 l 172 922 l 100 563 l 94 563 l 94 922 l 17 922 l 17 0 l 94 0 l 94 290 l 118 396 l 121 396 l 171 0 l 225 0 l 225 -143 z "},"қ":{"ha":282,"x_min":null,"x_max":null,"o":"m 274 -143 l 274 71 l 231 71 l 172 383 l 246 675 l 168 675 l 97 388 l 92 388 l 92 675 l 18 675 l 18 0 l 92 0 l 92 188 l 114 269 l 118 269 l 168 0 l 215 0 l 215 -143 z "},"Ҡ":{"ha":350,"x_min":null,"x_max":null,"o":"m 190 0 l 190 290 l 213 396 l 215 396 l 265 0 l 343 0 l 272 565 l 344 922 l 267 922 l 196 563 l 190 563 l 190 922 l 11 922 l 11 851 l 111 851 l 111 0 z "},"ҡ":{"ha":308,"x_min":null,"x_max":null,"o":"m 151 0 l 151 192 l 172 269 l 178 269 l 226 0 l 303 0 l 232 383 l 304 675 l 226 675 l 156 388 l 151 388 l 151 675 l 11 675 l 11 608 l 76 608 l 76 0 z "},"Ң":{"ha":279,"x_min":null,"x_max":null,"o":"m 271 -143 l 271 71 l 242 71 l 242 922 l 164 922 l 164 525 l 94 525 l 94 922 l 17 922 l 17 0 l 94 0 l 94 457 l 164 457 l 164 0 l 213 0 l 213 -143 z "},"ң":{"ha":282,"x_min":null,"x_max":null,"o":"m 274 -143 l 274 71 l 235 71 l 235 675 l 161 675 l 161 382 l 92 382 l 92 675 l 18 675 l 18 0 l 92 0 l 92 315 l 161 315 l 161 0 l 215 0 l 215 -143 z "},"Ҫ":{"ha":251,"x_min":null,"x_max":null,"o":"m 75 -282 b 121 -292 88 -289 103 -292 b 188 -199 165 -292 188 -274 l 188 -154 b 133 -11 188 -92 168 -42 l 133 -4 b 235 113 199 -1 235 35 l 235 376 l 161 376 l 161 108 b 126 67 161 81 150 67 b 93 110 104 67 93 79 l 93 813 b 128 854 93 839 104 854 b 161 811 150 854 161 839 l 161 592 l 235 592 l 233 804 b 128 926 233 893 196 926 b 17 806 53 926 17 883 l 17 114 b 83 1 17 54 39 15 b 136 -140 125 -33 136 -76 l 136 -186 b 106 -226 136 -221 128 -226 b 75 -222 96 -226 83 -225 z "},"ҫ":{"ha":246,"x_min":null,"x_max":null,"o":"m 67 -282 b 113 -292 79 -289 96 -292 b 179 -199 158 -292 179 -274 l 179 -154 b 128 -14 179 -92 163 -44 l 128 -4 b 226 101 197 -3 226 32 l 226 247 l 157 247 l 157 101 b 124 63 157 75 146 63 b 90 101 101 63 90 75 l 90 572 b 124 613 90 599 101 613 b 157 572 146 613 157 599 l 157 431 l 226 431 l 226 572 b 124 679 226 643 196 679 b 18 572 51 679 18 643 l 18 101 b 76 1 18 47 36 14 b 128 -140 119 -35 128 -75 l 128 -186 b 97 -226 128 -221 119 -226 b 67 -222 88 -226 75 -225 z "},"Ҳ":{"ha":301,"x_min":null,"x_max":null,"o":"m 185 922 l 139 581 l 133 581 l 86 922 l 8 922 l 82 465 l 6 0 l 83 0 l 132 360 l 138 360 l 185 0 l 235 0 l 235 -143 l 292 -143 l 292 71 l 253 71 l 188 482 l 261 922 z "},"ҳ":{"ha":281,"x_min":null,"x_max":null,"o":"m 167 675 l 129 432 l 124 432 l 82 675 l 7 675 l 71 343 l 4 0 l 79 0 l 119 257 l 125 257 l 167 0 l 214 0 l 214 -143 l 272 -143 l 272 71 l 229 71 l 176 353 l 240 675 z "},"Ҷ":{"ha":279,"x_min":null,"x_max":null,"o":"m 271 -143 l 271 71 l 238 71 l 238 922 l 161 922 l 161 479 b 125 468 154 471 138 468 b 92 507 101 468 92 478 l 92 922 l 17 922 l 17 503 b 97 397 17 425 39 397 b 157 410 121 397 140 401 l 161 410 l 161 0 l 213 0 l 213 -143 z "},"ҷ":{"ha":276,"x_min":null,"x_max":null,"o":"m 267 -143 l 267 71 l 233 71 l 233 675 l 160 675 l 160 351 b 125 343 153 346 140 343 b 90 371 100 343 90 351 l 90 675 l 17 675 l 17 351 b 94 279 17 300 39 279 b 154 293 121 279 140 285 l 160 293 l 160 0 l 208 0 l 208 -143 z "},"Һ":{"ha":256,"x_min":null,"x_max":null,"o":"m 18 922 l 18 0 l 94 0 l 94 442 b 131 454 101 451 118 454 b 164 415 154 454 164 443 l 164 0 l 239 0 l 239 419 b 158 525 239 496 217 525 b 97 513 135 525 115 521 l 94 513 l 94 922 z "},"Ӄ":{"ha":256,"x_min":null,"x_max":null,"o":"m 138 -324 b 249 -218 210 -324 249 -289 l 249 0 l 176 565 l 250 922 l 172 922 l 100 563 l 94 563 l 94 922 l 17 922 l 17 0 l 94 0 l 94 290 l 118 396 l 121 396 l 171 0 l 171 -218 b 138 -257 171 -243 160 -257 z "},"ӄ":{"ha":250,"x_min":null,"x_max":null,"o":"m 136 -324 b 244 -218 208 -324 244 -289 l 244 0 l 172 383 l 246 675 l 168 675 l 97 388 l 92 388 l 92 675 l 18 675 l 18 0 l 92 0 l 92 188 l 114 269 l 118 269 l 169 -15 l 169 -218 b 136 -257 169 -243 158 -257 z "},"Ӈ":{"ha":260,"x_min":null,"x_max":null,"o":"m 131 -324 b 242 -218 203 -324 242 -289 l 242 922 l 164 922 l 164 525 l 94 525 l 94 922 l 17 922 l 17 0 l 94 0 l 94 457 l 164 457 l 164 -218 b 131 -257 164 -243 153 -257 z "},"ӈ":{"ha":254,"x_min":null,"x_max":null,"o":"m 128 -324 b 235 -218 200 -324 235 -289 l 235 675 l 161 675 l 161 382 l 92 382 l 92 675 l 18 675 l 18 0 l 92 0 l 92 315 l 161 315 l 161 -218 b 126 -257 161 -243 150 -257 z "},"ǝ":{"ha":249,"x_min":null,"x_max":null,"o":"m 18 444 l 90 444 l 90 575 b 125 614 90 600 103 614 b 158 575 147 614 158 600 l 158 353 l 18 353 l 18 101 b 125 -4 18 31 53 -4 b 231 101 197 -4 231 31 l 231 572 b 125 679 231 644 197 679 b 18 572 53 679 18 643 z m 90 299 l 158 299 l 158 100 b 125 61 158 74 147 61 b 90 100 101 61 90 74 z "},"Ө":{"ha":251,"x_min":null,"x_max":null,"o":"m 236 804 b 125 926 236 881 196 926 b 14 806 54 926 14 882 l 14 114 b 126 -4 14 38 53 -4 b 236 113 197 -4 236 33 z m 160 108 b 125 67 160 81 147 67 b 90 108 101 67 90 81 l 90 442 l 160 442 z m 90 813 b 125 854 90 839 103 854 b 160 811 147 854 160 839 l 160 510 l 90 510 z "},"ө":{"ha":249,"x_min":null,"x_max":null,"o":"m 229 572 b 124 679 229 644 196 679 b 18 572 51 679 18 644 l 18 101 b 124 -4 18 29 51 -4 b 229 101 196 -4 229 29 z m 157 101 b 124 63 157 75 146 63 b 90 101 101 63 90 75 l 90 319 l 157 319 z m 90 572 b 124 613 90 599 101 613 b 157 572 146 613 157 599 l 157 368 l 90 368 z "},"Ӯ":{"ha":256,"x_min":null,"x_max":null,"o":"m 210 989 l 210 1036 l 44 1036 l 44 989 z m 161 108 b 126 67 161 81 150 67 b 92 108 104 67 92 81 l 92 307 l 17 307 l 17 113 b 128 -4 17 33 57 -4 b 238 114 201 -4 238 38 l 238 922 l 161 922 l 161 456 b 124 421 157 432 144 421 b 92 463 101 421 92 435 l 92 922 l 17 922 l 17 467 b 92 350 17 389 42 350 b 156 385 118 350 144 361 l 161 385 z "},"ӯ":{"ha":251,"x_min":null,"x_max":null,"o":"m 93 675 l 18 675 l 18 104 b 92 0 18 28 46 0 b 154 39 124 0 142 11 l 158 39 l 158 -218 b 125 -257 158 -243 147 -257 b 92 -218 103 -257 92 -243 l 92 -42 l 19 -42 l 19 -218 b 125 -324 19 -289 53 -324 b 232 -218 197 -324 232 -289 l 232 675 l 161 675 l 161 111 b 125 68 156 83 149 68 b 93 107 104 68 93 79 z m 210 740 l 210 788 l 44 788 l 44 740 z "},"Ԓ":{"ha":288,"x_min":null,"x_max":null,"o":"m 158 -324 b 271 -218 231 -324 271 -289 l 271 922 l 78 922 l 68 582 b 43 104 60 296 51 156 b 17 71 39 78 32 71 l 11 71 l 11 0 l 22 0 b 99 58 61 0 86 14 b 132 581 114 115 124 267 l 139 851 l 193 851 l 193 -218 b 158 -257 193 -243 182 -257 z "},"ԓ":{"ha":269,"x_min":null,"x_max":null,"o":"m 142 -324 b 250 -218 214 -324 250 -289 l 250 675 l 69 675 l 60 432 b 36 82 50 171 44 107 b 15 65 32 69 24 65 l 10 65 l 10 0 l 19 0 b 83 35 57 0 74 11 b 117 432 96 65 100 135 l 126 608 l 175 608 l 175 -218 b 142 -257 175 -243 164 -257 z "},"֏":{"ha":272,"x_min":null,"x_max":null,"o":"m 229 0 l 229 224 l 261 224 l 261 271 l 229 271 l 229 415 l 261 415 l 261 463 l 229 463 l 229 807 b 119 926 229 885 192 926 b 11 808 49 926 11 888 l 11 574 l 85 574 l 85 814 b 118 856 85 842 96 856 b 153 814 142 856 153 840 l 153 463 l 57 463 l 57 415 l 153 415 l 153 271 l 57 271 l 57 224 l 153 224 l 153 0 z "},"Ḍ":{"ha":257,"x_min":null,"x_max":null,"o":"m 132 0 b 239 114 203 0 239 36 l 239 814 b 132 922 239 885 203 922 l 17 922 l 17 0 z m 93 69 l 93 851 l 122 851 b 161 808 147 851 161 842 l 161 118 b 128 69 161 86 151 69 z m 157 -154 l 157 -51 l 82 -51 l 82 -154 z "},"ḍ":{"ha":251,"x_min":null,"x_max":null,"o":"m 93 575 b 126 614 93 601 104 614 b 161 567 149 614 156 601 l 161 104 b 125 60 156 74 147 60 b 93 100 104 60 93 72 z m 232 0 l 232 933 l 158 933 l 158 640 l 153 640 b 94 679 140 668 122 679 b 18 593 47 679 18 647 l 18 81 b 93 -4 18 28 46 -4 b 158 42 126 -4 147 11 l 164 42 l 167 0 z m 164 -154 l 164 -51 l 89 -51 l 89 -154 z "},"Ḓ":{"ha":257,"x_min":null,"x_max":null,"o":"m 132 0 b 239 114 203 0 239 36 l 239 814 b 132 922 239 885 203 922 l 17 922 l 17 0 z m 93 69 l 93 851 l 122 851 b 161 808 147 851 161 842 l 161 118 b 128 69 161 86 151 69 z m 204 -197 l 143 -82 l 76 -82 l 15 -197 l 47 -222 l 110 -125 l 172 -222 z "},"ḓ":{"ha":251,"x_min":null,"x_max":null,"o":"m 93 575 b 126 614 93 601 104 614 b 161 567 149 614 156 601 l 161 104 b 125 60 156 74 147 60 b 93 100 104 60 93 72 z m 232 0 l 232 933 l 158 933 l 158 640 l 153 640 b 94 679 140 668 122 679 b 18 593 47 679 18 647 l 18 81 b 93 -4 18 28 46 -4 b 158 42 126 -4 147 11 l 164 42 l 167 0 z m 217 -197 l 156 -82 l 89 -82 l 28 -197 l 60 -222 l 122 -125 l 185 -222 z "},"Ḥ":{"ha":260,"x_min":null,"x_max":null,"o":"m 242 0 l 242 922 l 164 922 l 164 525 l 94 525 l 94 922 l 17 922 l 17 0 l 94 0 l 94 457 l 164 457 l 164 0 z m 167 -154 l 167 -51 l 92 -51 l 92 -154 z "},"ḥ":{"ha":253,"x_min":null,"x_max":null,"o":"m 235 0 l 235 585 b 167 679 235 650 217 679 b 97 631 131 679 111 663 l 92 631 l 92 933 l 18 933 l 18 0 l 92 0 l 92 575 b 129 614 97 603 108 614 b 160 578 149 614 160 601 l 160 0 z m 163 -154 l 163 -51 l 88 -51 l 88 -154 z "},"Ḽ":{"ha":207,"x_min":null,"x_max":null,"o":"m 196 0 l 196 71 l 94 71 l 94 922 l 17 922 l 17 0 z m 200 -197 l 139 -82 l 72 -82 l 11 -197 l 43 -222 l 106 -125 l 168 -222 z "},"ḽ":{"ha":121,"x_min":null,"x_max":null,"o":"m 96 0 l 96 933 l 22 933 l 22 0 z m 154 -197 l 93 -82 l 26 -82 l -35 -197 l -3 -222 l 60 -125 l 122 -222 z "},"Ṅ":{"ha":272,"x_min":null,"x_max":null,"o":"m 256 0 l 256 922 l 190 922 l 190 596 b 194 190 190 328 193 247 l 189 190 l 128 922 l 17 922 l 17 0 l 79 0 l 79 401 b 76 739 79 629 79 693 l 82 739 l 154 0 z m 169 985 l 169 1089 l 96 1089 l 96 985 z "},"ṅ":{"ha":253,"x_min":null,"x_max":null,"o":"m 235 0 l 235 592 b 165 679 235 650 210 679 b 94 632 133 679 110 665 l 89 632 l 88 675 l 18 675 l 18 0 l 92 0 l 92 579 b 128 614 100 603 108 614 b 160 578 149 614 160 603 l 160 0 z m 161 736 l 161 840 l 88 840 l 88 736 z "},"Ṋ":{"ha":272,"x_min":null,"x_max":null,"o":"m 256 0 l 256 922 l 190 922 l 190 596 b 194 190 190 328 193 247 l 189 190 l 128 922 l 17 922 l 17 0 l 79 0 l 79 401 b 76 739 79 629 79 693 l 82 739 l 154 0 z m 225 -197 l 164 -82 l 97 -82 l 36 -197 l 68 -222 l 131 -125 l 193 -222 z "},"ṋ":{"ha":253,"x_min":null,"x_max":null,"o":"m 235 0 l 235 592 b 165 679 235 650 210 679 b 94 632 133 679 110 665 l 89 632 l 88 675 l 18 675 l 18 0 l 92 0 l 92 579 b 128 614 100 603 108 614 b 160 578 149 614 160 603 l 160 0 z m 219 -197 l 158 -82 l 92 -82 l 31 -197 l 63 -222 l 125 -125 l 188 -222 z "},"Ṛ":{"ha":251,"x_min":null,"x_max":null,"o":"m 93 0 l 93 421 l 131 421 b 163 386 154 421 163 408 l 163 0 l 238 0 l 238 379 b 189 453 238 428 219 446 l 189 458 b 236 531 218 465 236 489 l 236 826 b 147 922 236 888 213 922 l 17 922 l 17 0 z m 161 522 b 129 483 161 496 150 483 l 93 483 l 93 851 l 129 851 b 161 818 151 851 161 842 z m 163 -154 l 163 -51 l 88 -51 l 88 -154 z "},"ṛ":{"ha":190,"x_min":null,"x_max":null,"o":"m 92 0 l 92 543 b 153 611 97 593 115 611 b 181 606 165 611 174 610 l 181 674 b 156 679 174 676 165 679 b 94 626 125 679 107 660 l 89 626 l 88 675 l 18 675 l 18 0 z m 89 -154 l 89 -51 l 14 -51 l 14 -154 z "},"Ṣ":{"ha":261,"x_min":null,"x_max":null,"o":"m 238 635 l 238 804 b 126 926 238 876 204 926 b 15 817 51 926 15 881 l 15 672 b 39 535 15 618 24 567 b 138 414 60 490 104 456 b 165 294 160 386 165 371 l 165 106 b 128 67 165 81 154 67 b 86 110 99 67 86 82 l 86 276 l 14 276 l 14 124 b 132 -4 14 40 49 -4 b 246 118 211 -4 246 36 l 246 326 b 218 440 246 385 240 410 b 115 557 189 481 153 506 b 93 664 99 579 93 592 l 93 818 b 129 854 93 839 104 854 b 165 813 154 854 165 838 l 165 635 z m 165 -154 l 165 -51 l 90 -51 l 90 -154 z "},"ṣ":{"ha":244,"x_min":null,"x_max":null,"o":"m 225 468 l 225 583 b 121 679 225 643 190 679 b 18 594 54 679 18 647 l 18 457 b 47 357 18 404 25 382 b 125 297 68 335 99 318 b 156 239 149 278 156 268 l 156 88 b 121 56 156 65 144 56 b 85 90 96 56 85 65 l 85 217 l 15 217 l 15 92 b 125 -4 15 28 47 -4 b 229 89 197 -4 229 25 l 229 239 b 194 342 229 303 219 321 b 114 394 171 361 143 372 b 89 457 93 411 89 419 l 89 588 b 122 617 89 608 101 617 b 156 586 146 617 156 607 l 156 468 z m 161 -154 l 161 -51 l 86 -51 l 86 -154 z "},"Ṭ":{"ha":243,"x_min":null,"x_max":null,"o":"m 160 0 l 160 851 l 232 851 l 232 922 l 11 922 l 11 851 l 82 851 l 82 0 z m 158 -154 l 158 -51 l 83 -51 l 83 -154 z "},"ṭ":{"ha":238,"x_min":null,"x_max":null,"o":"m 156 101 b 125 63 156 75 146 63 b 90 101 101 63 90 75 l 90 608 l 218 608 l 218 675 l 90 675 l 90 860 l 18 860 l 18 101 b 124 -4 18 29 51 -4 b 218 101 196 -4 218 29 l 218 381 l 156 381 z m 160 -154 l 160 -51 l 85 -51 l 85 -154 z "},"Ẁ":{"ha":381,"x_min":null,"x_max":null,"o":"m 160 0 l 188 744 l 193 744 l 221 0 l 332 0 l 375 922 l 301 922 l 276 163 l 271 163 l 235 922 l 146 922 l 111 163 l 106 163 l 79 922 l 6 922 l 49 0 z m 218 953 l 247 982 l 144 1121 l 106 1076 z "},"ẁ":{"ha":347,"x_min":null,"x_max":null,"o":"m 146 0 l 171 524 l 176 524 l 200 0 l 304 0 l 343 675 l 272 675 l 253 160 l 247 160 l 215 675 l 131 675 l 100 160 l 94 160 l 75 675 l 4 675 l 43 0 z m 203 704 l 232 733 l 129 872 l 90 828 z "},"Ẃ":{"ha":381,"x_min":null,"x_max":null,"o":"m 160 0 l 188 744 l 193 744 l 221 0 l 332 0 l 375 922 l 301 922 l 276 163 l 271 163 l 235 922 l 146 922 l 111 163 l 106 163 l 79 922 l 6 922 l 49 0 z m 276 1076 l 238 1121 l 135 982 l 164 953 z "},"ẃ":{"ha":347,"x_min":null,"x_max":null,"o":"m 146 0 l 171 524 l 176 524 l 200 0 l 304 0 l 343 675 l 272 675 l 253 160 l 247 160 l 215 675 l 131 675 l 100 160 l 94 160 l 75 675 l 4 675 l 43 0 z m 257 828 l 218 872 l 115 733 l 144 704 z "},"Ẅ":{"ha":381,"x_min":null,"x_max":null,"o":"m 160 0 l 188 744 l 193 744 l 221 0 l 332 0 l 375 922 l 301 922 l 276 163 l 271 163 l 235 922 l 146 922 l 111 163 l 106 163 l 79 922 l 6 922 l 49 0 z m 169 985 l 169 1089 l 101 1089 l 101 985 z m 276 985 l 276 1089 l 208 1089 l 208 985 z "},"ẅ":{"ha":347,"x_min":null,"x_max":null,"o":"m 146 0 l 171 524 l 176 524 l 200 0 l 304 0 l 343 675 l 272 675 l 253 160 l 247 160 l 215 675 l 131 675 l 100 160 l 94 160 l 75 675 l 4 675 l 43 0 z m 153 736 l 153 840 l 85 840 l 85 736 z m 260 736 l 260 840 l 192 840 l 192 736 z "},"Ẓ":{"ha":233,"x_min":null,"x_max":null,"o":"m 222 0 l 222 69 l 88 69 l 218 853 l 218 922 l 13 922 l 13 851 l 144 851 l 11 71 l 11 0 z m 153 -154 l 153 -51 l 78 -51 l 78 -154 z "},"ẓ":{"ha":211,"x_min":null,"x_max":null,"o":"m 200 0 l 200 68 l 81 68 l 197 607 l 197 675 l 13 675 l 13 608 l 129 608 l 13 69 l 13 0 z m 143 -154 l 143 -51 l 68 -51 l 68 -154 z "},"ẞ":{"ha":285,"x_min":null,"x_max":null,"o":"m 121 1 b 171 -4 132 -1 151 -4 b 268 104 236 -4 268 25 l 268 474 b 199 561 268 532 240 561 l 254 857 l 254 922 l 128 922 b 17 806 56 922 17 881 l 17 0 l 94 0 l 94 804 b 139 851 94 835 110 851 l 183 851 l 131 563 l 131 493 b 161 500 140 497 151 500 b 192 469 179 500 192 492 l 192 103 b 153 63 192 74 181 63 b 121 69 143 63 131 64 z "},"Ạ":{"ha":258,"x_min":null,"x_max":null,"o":"m 251 0 l 189 922 l 67 922 l 6 0 l 81 0 l 93 238 l 161 238 l 175 0 z m 125 789 l 131 789 l 157 304 l 97 304 z m 164 -154 l 164 -51 l 89 -51 l 89 -154 z "},"ạ":{"ha":246,"x_min":null,"x_max":null,"o":"m 156 88 b 117 60 149 69 138 60 b 86 93 97 60 86 69 l 86 292 b 118 339 86 317 92 329 b 156 356 133 344 144 346 z m 228 0 l 228 599 b 128 679 228 653 194 679 b 18 593 58 679 18 651 l 18 457 l 88 457 l 88 585 b 122 614 88 604 100 614 b 154 588 144 614 154 606 l 154 425 b 99 383 154 401 133 394 b 13 278 33 363 13 342 l 13 75 b 83 -4 13 26 31 -4 b 153 35 126 -4 142 15 l 158 35 l 160 0 z m 158 -154 l 158 -51 l 83 -51 l 83 -154 z "},"Ả":{"ha":258,"x_min":null,"x_max":null,"o":"m 251 0 l 189 922 l 67 922 l 6 0 l 81 0 l 93 238 l 161 238 l 175 0 z m 125 789 l 131 789 l 157 304 l 97 304 z m 143 961 b 189 1032 143 989 189 988 b 135 1085 189 1064 165 1085 b 79 1065 118 1085 94 1078 l 93 1025 b 128 1040 103 1035 114 1040 b 147 1025 142 1040 147 1035 b 107 961 147 1000 107 1003 z "},"ả":{"ha":246,"x_min":null,"x_max":null,"o":"m 156 88 b 117 60 149 69 138 60 b 86 93 97 60 86 69 l 86 292 b 118 339 86 317 92 329 b 156 356 133 344 144 346 z m 228 0 l 228 599 b 128 679 228 653 194 679 b 18 593 58 679 18 651 l 18 457 l 88 457 l 88 585 b 122 614 88 604 100 614 b 154 588 144 614 154 606 l 154 425 b 99 383 154 401 133 394 b 13 278 33 363 13 342 l 13 75 b 83 -4 13 26 31 -4 b 153 35 126 -4 142 15 l 158 35 l 160 0 z m 136 713 b 182 783 136 740 182 739 b 128 836 182 815 158 836 b 72 817 111 836 88 829 l 86 776 b 121 792 96 786 107 792 b 140 776 135 792 140 786 b 100 713 140 751 100 754 z "},"Ấ":{"ha":258,"x_min":null,"x_max":null,"o":"m 251 0 l 189 922 l 67 922 l 6 0 l 81 0 l 93 238 l 161 238 l 175 0 z m 125 789 l 131 789 l 157 304 l 97 304 z m 221 978 l 160 1082 l 93 1082 l 32 978 l 64 953 l 128 1039 l 189 953 z m 303 1132 l 264 1175 l 181 1076 l 208 1047 z "},"ấ":{"ha":246,"x_min":null,"x_max":null,"o":"m 156 88 b 117 60 149 69 138 60 b 86 93 97 60 86 69 l 86 292 b 118 339 86 317 92 329 b 156 356 133 344 144 346 z m 228 0 l 228 599 b 128 679 228 653 194 679 b 18 593 58 679 18 651 l 18 457 l 88 457 l 88 585 b 122 614 88 604 100 614 b 154 588 144 614 154 606 l 154 425 b 99 383 154 401 133 394 b 13 278 33 363 13 342 l 13 75 b 83 -4 13 26 31 -4 b 153 35 126 -4 142 15 l 158 35 l 160 0 z m 219 729 l 158 833 l 92 833 l 31 729 l 63 704 l 126 790 l 188 704 z m 301 883 l 263 926 l 179 828 l 207 799 z "},"Ầ":{"ha":258,"x_min":null,"x_max":null,"o":"m 251 0 l 189 922 l 67 922 l 6 0 l 81 0 l 93 238 l 161 238 l 175 0 z m 125 789 l 131 789 l 157 304 l 97 304 z m 218 978 l 157 1082 l 90 1082 l 29 978 l 61 953 l 125 1039 l 186 953 z m 240 1047 l 268 1076 l 185 1175 l 147 1132 z "},"ầ":{"ha":246,"x_min":null,"x_max":null,"o":"m 156 88 b 117 60 149 69 138 60 b 86 93 97 60 86 69 l 86 292 b 118 339 86 317 92 329 b 156 356 133 344 144 346 z m 228 0 l 228 599 b 128 679 228 653 194 679 b 18 593 58 679 18 651 l 18 457 l 88 457 l 88 585 b 122 614 88 604 100 614 b 154 588 144 614 154 606 l 154 425 b 99 383 154 401 133 394 b 13 278 33 363 13 342 l 13 75 b 83 -4 13 26 31 -4 b 153 35 126 -4 142 15 l 158 35 l 160 0 z m 214 729 l 153 833 l 86 833 l 25 729 l 57 704 l 121 790 l 182 704 z m 236 799 l 264 828 l 181 926 l 143 883 z "},"Ẩ":{"ha":258,"x_min":null,"x_max":null,"o":"m 251 0 l 189 922 l 67 922 l 6 0 l 81 0 l 93 238 l 161 238 l 175 0 z m 125 789 l 131 789 l 157 304 l 97 304 z m 224 978 l 163 1082 l 96 1082 l 35 978 l 67 953 l 129 1039 l 192 953 z m 243 1028 b 289 1103 243 1054 289 1056 b 235 1157 289 1135 265 1157 b 179 1138 218 1157 194 1151 l 193 1099 b 228 1113 203 1108 214 1113 b 247 1096 242 1113 247 1106 b 207 1028 247 1068 207 1069 z "},"ẩ":{"ha":246,"x_min":null,"x_max":null,"o":"m 156 88 b 117 60 149 69 138 60 b 86 93 97 60 86 69 l 86 292 b 118 339 86 317 92 329 b 156 356 133 344 144 346 z m 228 0 l 228 599 b 128 679 228 653 194 679 b 18 593 58 679 18 651 l 18 457 l 88 457 l 88 585 b 122 614 88 604 100 614 b 154 588 144 614 154 606 l 154 425 b 99 383 154 401 133 394 b 13 278 33 363 13 342 l 13 75 b 83 -4 13 26 31 -4 b 153 35 126 -4 142 15 l 158 35 l 160 0 z m 210 729 l 149 833 l 82 833 l 21 729 l 53 704 l 115 790 l 178 704 z m 229 779 b 275 854 229 806 275 807 b 221 908 275 886 251 908 b 165 889 204 908 181 903 l 179 850 b 214 864 189 860 200 864 b 233 847 228 864 233 857 b 193 779 233 819 193 821 z "},"Ẫ":{"ha":258,"x_min":null,"x_max":null,"o":"m 251 0 l 189 922 l 67 922 l 6 0 l 81 0 l 93 238 l 161 238 l 175 0 z m 125 789 l 131 789 l 157 304 l 97 304 z m 221 978 l 160 1071 l 93 1071 l 32 978 l 64 953 l 128 1028 l 189 953 z m 192 1151 b 165 1131 186 1133 176 1131 b 85 1153 138 1131 115 1153 b 32 1106 60 1153 40 1139 l 65 1088 b 92 1108 71 1106 79 1108 b 172 1086 119 1108 142 1086 b 225 1132 196 1086 217 1100 z "},"ẫ":{"ha":246,"x_min":null,"x_max":null,"o":"m 156 88 b 117 60 149 69 138 60 b 86 93 97 60 86 69 l 86 292 b 118 339 86 317 92 329 b 156 356 133 344 144 346 z m 228 0 l 228 599 b 128 679 228 653 194 679 b 18 593 58 679 18 651 l 18 457 l 88 457 l 88 585 b 122 614 88 604 100 614 b 154 588 144 614 154 606 l 154 425 b 99 383 154 401 133 394 b 13 278 33 363 13 342 l 13 75 b 83 -4 13 26 31 -4 b 153 35 126 -4 142 15 l 158 35 l 160 0 z m 213 729 l 151 822 l 85 822 l 24 729 l 56 704 l 119 779 l 181 704 z m 183 903 b 157 882 178 885 168 882 b 76 904 129 882 107 904 b 24 857 51 904 32 890 l 57 839 b 83 860 63 857 71 860 b 164 838 111 860 133 838 b 217 883 188 838 208 851 z "},"Ậ":{"ha":258,"x_min":null,"x_max":null,"o":"m 251 0 l 189 922 l 67 922 l 6 0 l 81 0 l 93 238 l 161 238 l 175 0 z m 125 789 l 131 789 l 157 304 l 97 304 z m 222 978 l 161 1093 l 94 1093 l 33 978 l 65 953 l 128 1050 l 190 953 z m 165 -154 l 165 -51 l 90 -51 l 90 -154 z "},"ậ":{"ha":246,"x_min":null,"x_max":null,"o":"m 156 88 b 117 60 149 69 138 60 b 86 93 97 60 86 69 l 86 292 b 118 339 86 317 92 329 b 156 356 133 344 144 346 z m 228 0 l 228 599 b 128 679 228 653 194 679 b 18 593 58 679 18 651 l 18 457 l 88 457 l 88 585 b 122 614 88 604 100 614 b 154 588 144 614 154 606 l 154 425 b 99 383 154 401 133 394 b 13 278 33 363 13 342 l 13 75 b 83 -4 13 26 31 -4 b 153 35 126 -4 142 15 l 158 35 l 160 0 z m 215 729 l 154 844 l 88 844 l 26 729 l 58 704 l 121 801 l 183 704 z m 158 -154 l 158 -51 l 83 -51 l 83 -154 z "},"Ắ":{"ha":258,"x_min":null,"x_max":null,"o":"m 251 0 l 189 922 l 67 922 l 6 0 l 81 0 l 93 238 l 161 238 l 175 0 z m 125 789 l 131 789 l 157 304 l 97 304 z m 131 951 b 226 1063 186 951 226 986 l 171 1063 b 131 993 171 1017 157 993 b 88 1063 103 993 89 1017 l 35 1063 b 131 951 35 986 74 951 z m 218 1124 l 181 1165 l 93 1064 l 121 1035 z "},"ắ":{"ha":246,"x_min":null,"x_max":null,"o":"m 156 88 b 117 60 149 69 138 60 b 86 93 97 60 86 69 l 86 292 b 118 339 86 317 92 329 b 156 356 133 344 144 346 z m 228 0 l 228 599 b 128 679 228 653 194 679 b 18 593 58 679 18 651 l 18 457 l 88 457 l 88 585 b 122 614 88 604 100 614 b 154 588 144 614 154 606 l 154 425 b 99 383 154 401 133 394 b 13 278 33 363 13 342 l 13 75 b 83 -4 13 26 31 -4 b 153 35 126 -4 142 15 l 158 35 l 160 0 z m 125 703 b 221 814 181 703 221 738 l 165 814 b 125 744 165 768 151 744 b 82 814 97 744 83 768 l 29 814 b 125 703 29 738 68 703 z m 213 875 l 175 917 l 88 815 l 115 786 z "},"Ằ":{"ha":258,"x_min":null,"x_max":null,"o":"m 251 0 l 189 922 l 67 922 l 6 0 l 81 0 l 93 238 l 161 238 l 175 0 z m 125 789 l 131 789 l 157 304 l 97 304 z m 132 951 b 226 1063 188 951 226 985 l 172 1063 b 132 993 172 1017 158 993 b 89 1063 103 993 90 1017 l 35 1063 b 132 951 35 985 74 951 z m 140 1035 l 168 1064 l 81 1158 l 43 1115 z "},"ằ":{"ha":246,"x_min":null,"x_max":null,"o":"m 156 88 b 117 60 149 69 138 60 b 86 93 97 60 86 69 l 86 292 b 118 339 86 317 92 329 b 156 356 133 344 144 346 z m 228 0 l 228 599 b 128 679 228 653 194 679 b 18 593 58 679 18 651 l 18 457 l 88 457 l 88 585 b 122 614 88 604 100 614 b 154 588 144 614 154 606 l 154 425 b 99 383 154 401 133 394 b 13 278 33 363 13 342 l 13 75 b 83 -4 13 26 31 -4 b 153 35 126 -4 142 15 l 158 35 l 160 0 z m 122 703 b 217 814 178 703 217 736 l 163 814 b 122 744 163 768 149 744 b 79 814 93 744 81 768 l 25 814 b 122 703 25 736 64 703 z m 131 786 l 158 815 l 71 910 l 33 867 z "},"Ẳ":{"ha":258,"x_min":null,"x_max":null,"o":"m 251 0 l 189 922 l 67 922 l 6 0 l 81 0 l 93 238 l 161 238 l 175 0 z m 125 789 l 131 789 l 157 304 l 97 304 z m 128 951 b 224 1063 183 951 224 986 l 169 1063 b 128 993 168 1018 154 993 b 85 1063 100 993 86 1017 l 32 1063 b 128 951 32 986 71 951 z m 136 1042 b 182 1114 136 1067 182 1069 b 129 1165 182 1144 161 1165 b 75 1147 113 1165 88 1160 l 86 1110 b 121 1124 99 1119 108 1124 b 140 1107 136 1124 140 1117 b 101 1042 140 1081 101 1082 z "},"ẳ":{"ha":246,"x_min":null,"x_max":null,"o":"m 156 88 b 117 60 149 69 138 60 b 86 93 97 60 86 69 l 86 292 b 118 339 86 317 92 329 b 156 356 133 344 144 346 z m 228 0 l 228 599 b 128 679 228 653 194 679 b 18 593 58 679 18 651 l 18 457 l 88 457 l 88 585 b 122 614 88 604 100 614 b 154 588 144 614 154 606 l 154 425 b 99 383 154 401 133 394 b 13 278 33 363 13 342 l 13 75 b 83 -4 13 26 31 -4 b 153 35 126 -4 142 15 l 158 35 l 160 0 z m 122 703 b 218 814 178 703 218 738 l 164 814 b 122 744 163 769 149 744 b 79 814 94 744 81 768 l 26 814 b 122 703 26 738 65 703 z m 131 793 b 176 865 131 818 176 821 b 124 917 176 896 156 917 b 69 899 107 917 82 911 l 81 861 b 115 875 93 871 103 875 b 135 858 131 875 135 868 b 96 793 135 832 96 833 z "},"Ẵ":{"ha":258,"x_min":null,"x_max":null,"o":"m 251 0 l 189 922 l 67 922 l 6 0 l 81 0 l 93 238 l 161 238 l 175 0 z m 125 789 l 131 789 l 157 304 l 97 304 z m 126 951 b 222 1063 182 951 222 986 l 168 1063 b 126 993 167 1018 153 993 b 83 1063 99 993 85 1017 l 31 1063 b 126 951 31 986 69 951 z m 190 1156 b 161 1132 185 1139 175 1132 b 81 1160 135 1132 111 1160 b 28 1110 57 1160 36 1143 l 60 1092 b 88 1115 64 1108 76 1115 b 169 1086 115 1115 138 1086 b 221 1136 193 1086 213 1103 z "},"ẵ":{"ha":246,"x_min":null,"x_max":null,"o":"m 156 88 b 117 60 149 69 138 60 b 86 93 97 60 86 69 l 86 292 b 118 339 86 317 92 329 b 156 356 133 344 144 346 z m 228 0 l 228 599 b 128 679 228 653 194 679 b 18 593 58 679 18 651 l 18 457 l 88 457 l 88 585 b 122 614 88 604 100 614 b 154 588 144 614 154 606 l 154 425 b 99 383 154 401 133 394 b 13 278 33 363 13 342 l 13 75 b 83 -4 13 26 31 -4 b 153 35 126 -4 142 15 l 158 35 l 160 0 z m 119 703 b 215 814 175 703 215 738 l 161 814 b 119 744 160 769 146 744 b 76 814 92 744 78 768 l 24 814 b 119 703 24 738 63 703 z m 183 907 b 154 883 178 890 168 883 b 74 911 128 883 104 911 b 21 861 50 911 29 894 l 53 843 b 81 867 57 860 69 867 b 163 838 108 867 131 838 b 214 888 186 838 206 854 z "},"Ặ":{"ha":258,"x_min":null,"x_max":null,"o":"m 251 0 l 189 922 l 67 922 l 6 0 l 81 0 l 93 238 l 161 238 l 175 0 z m 125 789 l 131 789 l 157 304 l 97 304 z m 128 953 b 225 1093 185 953 225 1007 l 171 1093 b 128 1000 168 1026 154 1000 b 85 1093 100 1000 86 1026 l 31 1093 b 128 953 31 1008 71 953 z m 165 -154 l 165 -51 l 90 -51 l 90 -154 z "},"ặ":{"ha":246,"x_min":null,"x_max":null,"o":"m 156 88 b 117 60 149 69 138 60 b 86 93 97 60 86 69 l 86 292 b 118 339 86 317 92 329 b 156 356 133 344 144 346 z m 228 0 l 228 599 b 128 679 228 653 194 679 b 18 593 58 679 18 651 l 18 457 l 88 457 l 88 585 b 122 614 88 604 100 614 b 154 588 144 614 154 606 l 154 425 b 99 383 154 401 133 394 b 13 278 33 363 13 342 l 13 75 b 83 -4 13 26 31 -4 b 153 35 126 -4 142 15 l 158 35 l 160 0 z m 119 704 b 217 844 176 704 217 758 l 163 844 b 119 751 160 778 146 751 b 76 844 92 751 78 778 l 22 844 b 119 704 22 760 63 704 z m 157 -154 l 157 -51 l 82 -51 l 82 -154 z "},"Ẹ":{"ha":201,"x_min":null,"x_max":null,"o":"m 192 0 l 192 69 l 93 69 l 93 449 l 176 449 l 176 518 l 93 518 l 93 851 l 186 851 l 186 922 l 17 922 l 17 0 z m 139 -154 l 139 -51 l 64 -51 l 64 -154 z "},"ẹ":{"ha":249,"x_min":null,"x_max":null,"o":"m 231 231 l 157 231 l 157 100 b 124 60 157 74 146 60 b 90 100 101 60 90 74 l 90 322 l 231 322 l 231 572 b 124 679 231 643 196 679 b 18 572 51 679 18 643 l 18 101 b 124 -4 18 29 51 -4 b 231 101 196 -4 231 31 z m 157 375 l 90 375 l 90 574 b 124 613 90 601 101 613 b 157 574 146 613 157 601 z m 161 -154 l 161 -51 l 86 -51 l 86 -154 z "},"Ẻ":{"ha":201,"x_min":null,"x_max":null,"o":"m 192 0 l 192 69 l 93 69 l 93 449 l 176 449 l 176 518 l 93 518 l 93 851 l 186 851 l 186 922 l 17 922 l 17 0 z m 122 961 b 168 1032 122 989 168 988 b 114 1085 168 1064 144 1085 b 58 1065 97 1085 74 1078 l 72 1025 b 107 1040 82 1035 93 1040 b 126 1025 121 1040 126 1035 b 86 961 126 1000 86 1003 z "},"ẻ":{"ha":249,"x_min":null,"x_max":null,"o":"m 231 231 l 157 231 l 157 100 b 124 60 157 74 146 60 b 90 100 101 60 90 74 l 90 322 l 231 322 l 231 572 b 124 679 231 643 196 679 b 18 572 51 679 18 643 l 18 101 b 124 -4 18 29 51 -4 b 231 101 196 -4 231 31 z m 157 375 l 90 375 l 90 574 b 124 613 90 601 101 613 b 157 574 146 613 157 601 z m 138 713 b 183 783 138 740 183 739 b 129 836 183 815 160 836 b 74 817 113 836 89 829 l 88 776 b 122 792 97 786 108 792 b 142 776 136 792 142 786 b 101 713 142 751 101 754 z "},"Ẽ":{"ha":201,"x_min":null,"x_max":null,"o":"m 192 0 l 192 69 l 93 69 l 93 449 l 176 449 l 176 518 l 93 518 l 93 851 l 186 851 l 186 922 l 17 922 l 17 0 z m 168 1033 b 139 1010 163 1017 153 1010 b 58 1038 113 1010 89 1038 b 6 988 35 1038 14 1021 l 38 969 b 65 993 42 986 54 993 b 147 964 93 993 115 964 b 199 1014 171 964 190 981 z "},"ẽ":{"ha":249,"x_min":null,"x_max":null,"o":"m 231 231 l 157 231 l 157 100 b 124 60 157 74 146 60 b 90 100 101 60 90 74 l 90 322 l 231 322 l 231 572 b 124 679 231 643 196 679 b 18 572 51 679 18 643 l 18 101 b 124 -4 18 29 51 -4 b 231 101 196 -4 231 31 z m 157 375 l 90 375 l 90 574 b 124 613 90 601 101 613 b 157 574 146 613 157 601 z m 189 785 b 160 761 183 768 174 761 b 79 789 133 761 110 789 b 26 739 56 789 35 772 l 58 721 b 86 744 63 738 75 744 b 168 715 114 744 136 715 b 219 765 192 715 211 732 z "},"Ế":{"ha":201,"x_min":null,"x_max":null,"o":"m 192 0 l 192 69 l 93 69 l 93 449 l 176 449 l 176 518 l 93 518 l 93 851 l 186 851 l 186 922 l 17 922 l 17 0 z m 199 978 l 138 1082 l 71 1082 l 10 978 l 42 953 l 106 1039 l 167 953 z m 281 1132 l 242 1175 l 158 1076 l 186 1047 z "},"ế":{"ha":249,"x_min":null,"x_max":null,"o":"m 231 231 l 157 231 l 157 100 b 124 60 157 74 146 60 b 90 100 101 60 90 74 l 90 322 l 231 322 l 231 572 b 124 679 231 643 196 679 b 18 572 51 679 18 643 l 18 101 b 124 -4 18 29 51 -4 b 231 101 196 -4 231 31 z m 157 375 l 90 375 l 90 574 b 124 613 90 601 101 613 b 157 574 146 613 157 601 z m 218 729 l 157 833 l 90 833 l 29 729 l 61 704 l 125 790 l 186 704 z m 300 883 l 261 926 l 178 828 l 206 799 z "},"Ề":{"ha":201,"x_min":null,"x_max":null,"o":"m 192 0 l 192 69 l 93 69 l 93 449 l 176 449 l 176 518 l 93 518 l 93 851 l 186 851 l 186 922 l 17 922 l 17 0 z m 196 978 l 135 1082 l 68 1082 l 7 978 l 39 953 l 103 1039 l 164 953 z m 218 1047 l 246 1076 l 163 1175 l 125 1132 z "},"ề":{"ha":249,"x_min":null,"x_max":null,"o":"m 231 231 l 157 231 l 157 100 b 124 60 157 74 146 60 b 90 100 101 60 90 74 l 90 322 l 231 322 l 231 572 b 124 679 231 643 196 679 b 18 572 51 679 18 643 l 18 101 b 124 -4 18 29 51 -4 b 231 101 196 -4 231 31 z m 157 375 l 90 375 l 90 574 b 124 613 90 601 101 613 b 157 574 146 613 157 601 z m 213 729 l 151 833 l 85 833 l 24 729 l 56 704 l 119 790 l 181 704 z m 235 799 l 263 828 l 179 926 l 142 883 z "},"Ể":{"ha":201,"x_min":null,"x_max":null,"o":"m 192 0 l 192 69 l 93 69 l 93 449 l 176 449 l 176 518 l 93 518 l 93 851 l 186 851 l 186 922 l 17 922 l 17 0 z m 197 978 l 136 1082 l 69 1082 l 8 978 l 40 953 l 103 1039 l 165 953 z m 217 1028 b 263 1103 217 1054 263 1056 b 208 1157 263 1135 239 1157 b 153 1138 192 1157 168 1151 l 167 1099 b 201 1113 176 1108 188 1113 b 221 1096 215 1113 221 1106 b 181 1028 221 1068 181 1069 z "},"ể":{"ha":249,"x_min":null,"x_max":null,"o":"m 231 231 l 157 231 l 157 100 b 124 60 157 74 146 60 b 90 100 101 60 90 74 l 90 322 l 231 322 l 231 572 b 124 679 231 643 196 679 b 18 572 51 679 18 643 l 18 101 b 124 -4 18 29 51 -4 b 231 101 196 -4 231 31 z m 157 375 l 90 375 l 90 574 b 124 613 90 601 101 613 b 157 574 146 613 157 601 z m 213 729 l 151 833 l 85 833 l 24 729 l 56 704 l 118 790 l 181 704 z m 232 779 b 278 854 232 806 278 807 b 224 908 278 886 254 908 b 168 889 207 908 183 903 l 182 850 b 217 864 192 860 203 864 b 236 847 231 864 236 857 b 196 779 236 819 196 821 z "},"Ễ":{"ha":201,"x_min":null,"x_max":null,"o":"m 192 0 l 192 69 l 93 69 l 93 449 l 176 449 l 176 518 l 93 518 l 93 851 l 186 851 l 186 922 l 17 922 l 17 0 z m 199 978 l 138 1071 l 71 1071 l 10 978 l 42 953 l 106 1028 l 167 953 z m 169 1151 b 143 1131 164 1133 154 1131 b 63 1153 115 1131 93 1153 b 10 1106 38 1153 18 1139 l 43 1088 b 69 1108 49 1106 57 1108 b 150 1086 97 1108 119 1086 b 203 1132 174 1086 194 1100 z "},"ễ":{"ha":249,"x_min":null,"x_max":null,"o":"m 231 231 l 157 231 l 157 100 b 124 60 157 74 146 60 b 90 100 101 60 90 74 l 90 322 l 231 322 l 231 572 b 124 679 231 643 196 679 b 18 572 51 679 18 643 l 18 101 b 124 -4 18 29 51 -4 b 231 101 196 -4 231 31 z m 157 375 l 90 375 l 90 574 b 124 613 90 601 101 613 b 157 574 146 613 157 601 z m 217 729 l 156 822 l 89 822 l 28 729 l 60 704 l 124 779 l 185 704 z m 188 903 b 161 882 182 885 172 882 b 81 904 133 882 111 904 b 28 857 56 904 36 890 l 61 839 b 88 860 67 857 75 860 b 168 838 115 860 138 838 b 221 883 192 838 213 851 z "},"Ệ":{"ha":201,"x_min":null,"x_max":null,"o":"m 192 0 l 192 69 l 93 69 l 93 449 l 176 449 l 176 518 l 93 518 l 93 851 l 186 851 l 186 922 l 17 922 l 17 0 z m 201 978 l 140 1093 l 74 1093 l 13 978 l 44 953 l 107 1050 l 169 953 z m 144 -154 l 144 -51 l 69 -51 l 69 -154 z "},"ệ":{"ha":249,"x_min":null,"x_max":null,"o":"m 231 231 l 157 231 l 157 100 b 124 60 157 74 146 60 b 90 100 101 60 90 74 l 90 322 l 231 322 l 231 572 b 124 679 231 643 196 679 b 18 572 51 679 18 643 l 18 101 b 124 -4 18 29 51 -4 b 231 101 196 -4 231 31 z m 157 375 l 90 375 l 90 574 b 124 613 90 601 101 613 b 157 574 146 613 157 601 z m 218 729 l 157 844 l 90 844 l 29 729 l 61 704 l 124 801 l 186 704 z m 160 -154 l 160 -51 l 85 -51 l 85 -154 z "},"Ỉ":{"ha":117,"x_min":null,"x_max":null,"o":"m 94 0 l 94 922 l 17 922 l 17 0 z m 71 961 b 117 1032 71 989 117 988 b 63 1085 117 1064 93 1085 b 7 1065 46 1085 22 1078 l 21 1025 b 56 1040 31 1035 42 1040 b 75 1025 69 1040 75 1035 b 35 961 75 1000 35 1003 z "},"ỉ":{"ha":115,"x_min":null,"x_max":null,"o":"m 92 0 l 92 675 l 18 675 l 18 0 z m 69 713 b 115 783 69 740 115 739 b 61 836 115 815 92 836 b 6 817 44 836 21 829 l 19 776 b 54 792 29 786 40 792 b 74 776 68 792 74 786 b 33 713 74 751 33 754 z "},"Ị":{"ha":111,"x_min":null,"x_max":null,"o":"m 94 0 l 94 922 l 17 922 l 17 0 z m 93 -154 l 93 -51 l 18 -51 l 18 -154 z "},"ị":{"ha":111,"x_min":null,"x_max":null,"o":"m 92 0 l 92 675 l 18 675 l 18 0 z m 92 736 l 92 840 l 18 840 l 18 736 z m 92 -154 l 92 -51 l 17 -51 l 17 -154 z "},"Ọ":{"ha":251,"x_min":null,"x_max":null,"o":"m 236 804 b 125 926 236 881 196 926 b 14 806 54 926 14 882 l 14 114 b 126 -4 14 38 53 -4 b 236 113 197 -4 236 33 z m 160 108 b 125 67 160 81 147 67 b 90 108 101 67 90 81 l 90 813 b 125 854 90 839 103 854 b 160 811 147 854 160 839 z m 163 -154 l 163 -51 l 88 -51 l 88 -154 z "},"ọ":{"ha":249,"x_min":null,"x_max":null,"o":"m 229 572 b 124 679 229 644 196 679 b 18 572 51 679 18 644 l 18 101 b 124 -4 18 29 51 -4 b 229 101 196 -4 229 29 z m 157 101 b 124 63 157 75 146 63 b 90 101 101 63 90 75 l 90 572 b 124 613 90 599 101 613 b 157 572 146 613 157 599 z m 161 -154 l 161 -51 l 86 -51 l 86 -154 z "},"Ỏ":{"ha":251,"x_min":null,"x_max":null,"o":"m 236 804 b 125 926 236 881 196 926 b 14 806 54 926 14 882 l 14 114 b 126 -4 14 38 53 -4 b 236 113 197 -4 236 33 z m 160 108 b 125 67 160 81 147 67 b 90 108 101 67 90 81 l 90 813 b 125 854 90 839 103 854 b 160 811 147 854 160 839 z m 140 961 b 186 1032 140 989 186 988 b 132 1085 186 1064 163 1085 b 76 1065 115 1085 92 1078 l 90 1025 b 125 1040 100 1035 111 1040 b 144 1025 139 1040 144 1035 b 104 961 144 1000 104 1003 z "},"ỏ":{"ha":249,"x_min":null,"x_max":null,"o":"m 229 572 b 124 679 229 644 196 679 b 18 572 51 679 18 644 l 18 101 b 124 -4 18 29 51 -4 b 229 101 196 -4 229 29 z m 157 101 b 124 63 157 75 146 63 b 90 101 101 63 90 75 l 90 572 b 124 613 90 599 101 613 b 157 572 146 613 157 599 z m 138 713 b 183 783 138 740 183 739 b 129 836 183 815 160 836 b 74 817 113 836 89 829 l 88 776 b 122 792 97 786 108 792 b 142 776 136 792 142 786 b 101 713 142 751 101 754 z "},"Ố":{"ha":251,"x_min":null,"x_max":null,"o":"m 236 804 b 125 926 236 881 196 926 b 14 806 54 926 14 882 l 14 114 b 126 -4 14 38 53 -4 b 236 113 197 -4 236 33 z m 160 108 b 125 67 160 81 147 67 b 90 108 101 67 90 81 l 90 813 b 125 854 90 839 103 854 b 160 811 147 854 160 839 z m 222 978 l 161 1082 l 94 1082 l 33 978 l 65 953 l 129 1039 l 190 953 z m 304 1132 l 265 1175 l 182 1076 l 210 1047 z "},"ố":{"ha":249,"x_min":null,"x_max":null,"o":"m 229 572 b 124 679 229 644 196 679 b 18 572 51 679 18 644 l 18 101 b 124 -4 18 29 51 -4 b 229 101 196 -4 229 29 z m 157 101 b 124 63 157 75 146 63 b 90 101 101 63 90 75 l 90 572 b 124 613 90 599 101 613 b 157 572 146 613 157 599 z m 217 729 l 156 833 l 89 833 l 28 729 l 60 704 l 124 790 l 185 704 z m 299 883 l 260 926 l 176 828 l 204 799 z "},"Ồ":{"ha":251,"x_min":null,"x_max":null,"o":"m 236 804 b 125 926 236 881 196 926 b 14 806 54 926 14 882 l 14 114 b 126 -4 14 38 53 -4 b 236 113 197 -4 236 33 z m 160 108 b 125 67 160 81 147 67 b 90 108 101 67 90 81 l 90 813 b 125 854 90 839 103 854 b 160 811 147 854 160 839 z m 221 978 l 160 1082 l 93 1082 l 32 978 l 64 953 l 128 1039 l 189 953 z m 243 1047 l 271 1076 l 188 1175 l 150 1132 z "},"ồ":{"ha":249,"x_min":null,"x_max":null,"o":"m 229 572 b 124 679 229 644 196 679 b 18 572 51 679 18 644 l 18 101 b 124 -4 18 29 51 -4 b 229 101 196 -4 229 29 z m 157 101 b 124 63 157 75 146 63 b 90 101 101 63 90 75 l 90 572 b 124 613 90 599 101 613 b 157 572 146 613 157 599 z m 215 729 l 154 833 l 88 833 l 26 729 l 58 704 l 122 790 l 183 704 z m 238 799 l 265 828 l 182 926 l 144 883 z "},"Ổ":{"ha":251,"x_min":null,"x_max":null,"o":"m 236 804 b 125 926 236 881 196 926 b 14 806 54 926 14 882 l 14 114 b 126 -4 14 38 53 -4 b 236 113 197 -4 236 33 z m 160 108 b 125 67 160 81 147 67 b 90 108 101 67 90 81 l 90 813 b 125 854 90 839 103 854 b 160 811 147 854 160 839 z m 219 978 l 158 1082 l 92 1082 l 31 978 l 63 953 l 125 1039 l 188 953 z m 239 1028 b 285 1103 239 1054 285 1056 b 231 1157 285 1135 261 1157 b 175 1138 214 1157 190 1151 l 189 1099 b 224 1113 199 1108 210 1113 b 243 1096 238 1113 243 1106 b 203 1028 243 1068 203 1069 z "},"ổ":{"ha":249,"x_min":null,"x_max":null,"o":"m 229 572 b 124 679 229 644 196 679 b 18 572 51 679 18 644 l 18 101 b 124 -4 18 29 51 -4 b 229 101 196 -4 229 29 z m 157 101 b 124 63 157 75 146 63 b 90 101 101 63 90 75 l 90 572 b 124 613 90 599 101 613 b 157 572 146 613 157 599 z m 215 729 l 154 833 l 88 833 l 26 729 l 58 704 l 121 790 l 183 704 z m 235 779 b 281 854 235 806 281 807 b 226 908 281 886 257 908 b 171 889 210 908 186 903 l 185 850 b 219 864 194 860 206 864 b 239 847 233 864 239 857 b 199 779 239 819 199 821 z "},"Ỗ":{"ha":251,"x_min":null,"x_max":null,"o":"m 236 804 b 125 926 236 881 196 926 b 14 806 54 926 14 882 l 14 114 b 126 -4 14 38 53 -4 b 236 113 197 -4 236 33 z m 160 108 b 125 67 160 81 147 67 b 90 108 101 67 90 81 l 90 813 b 125 854 90 839 103 854 b 160 811 147 854 160 839 z m 219 978 l 158 1071 l 92 1071 l 31 978 l 63 953 l 126 1028 l 188 953 z m 190 1151 b 164 1131 185 1133 175 1131 b 83 1153 136 1131 114 1153 b 31 1106 58 1153 39 1139 l 64 1088 b 90 1108 69 1106 78 1108 b 171 1086 118 1108 140 1086 b 224 1132 194 1086 215 1100 z "},"ỗ":{"ha":249,"x_min":null,"x_max":null,"o":"m 229 572 b 124 679 229 644 196 679 b 18 572 51 679 18 644 l 18 101 b 124 -4 18 29 51 -4 b 229 101 196 -4 229 29 z m 157 101 b 124 63 157 75 146 63 b 90 101 101 63 90 75 l 90 572 b 124 613 90 599 101 613 b 157 572 146 613 157 599 z m 218 729 l 157 822 l 90 822 l 29 729 l 61 704 l 125 779 l 186 704 z m 189 903 b 163 882 183 885 174 882 b 82 904 135 882 113 904 b 29 857 57 904 38 890 l 63 839 b 89 860 68 857 76 860 b 169 838 117 860 139 838 b 222 883 193 838 214 851 z "},"Ộ":{"ha":251,"x_min":null,"x_max":null,"o":"m 236 804 b 125 926 236 881 196 926 b 14 806 54 926 14 882 l 14 114 b 126 -4 14 38 53 -4 b 236 113 197 -4 236 33 z m 160 108 b 125 67 160 81 147 67 b 90 108 101 67 90 81 l 90 813 b 125 854 90 839 103 854 b 160 811 147 854 160 839 z m 219 978 l 158 1093 l 92 1093 l 31 978 l 63 953 l 125 1050 l 188 953 z m 163 -154 l 163 -51 l 88 -51 l 88 -154 z "},"ộ":{"ha":249,"x_min":null,"x_max":null,"o":"m 229 572 b 124 679 229 644 196 679 b 18 572 51 679 18 644 l 18 101 b 124 -4 18 29 51 -4 b 229 101 196 -4 229 29 z m 157 101 b 124 63 157 75 146 63 b 90 101 101 63 90 75 l 90 572 b 124 613 90 599 101 613 b 157 572 146 613 157 599 z m 219 729 l 158 844 l 92 844 l 31 729 l 63 704 l 125 801 l 188 704 z m 161 -154 l 161 -51 l 86 -51 l 86 -154 z "},"Ớ":{"ha":292,"x_min":null,"x_max":null,"o":"m 236 804 b 218 878 236 833 231 858 b 242 875 228 875 236 875 b 289 947 276 875 289 899 b 283 992 289 964 288 983 l 243 992 b 246 954 244 983 246 964 b 210 919 246 929 238 919 b 124 926 186 919 151 926 b 14 806 54 926 14 883 l 14 114 b 126 -4 14 38 53 -4 b 236 113 197 -4 236 33 z m 160 108 b 125 67 160 81 147 67 b 90 108 101 67 90 81 l 90 813 b 125 854 90 839 103 854 b 160 811 147 854 160 839 z m 207 1076 l 168 1121 l 65 982 l 94 953 z "},"ớ":{"ha":281,"x_min":null,"x_max":null,"o":"m 208 828 l 169 872 l 67 733 l 96 704 z m 229 572 b 218 628 229 594 225 613 b 233 626 224 626 228 626 b 278 700 265 626 278 650 b 272 744 278 717 276 736 l 232 744 b 235 707 233 736 235 717 b 201 671 235 679 226 671 b 121 679 178 671 151 679 b 18 572 53 679 18 643 l 18 101 b 124 -4 18 29 51 -4 b 229 101 197 -4 229 29 z m 157 101 b 124 63 157 75 146 63 b 90 101 101 63 90 75 l 90 572 b 124 613 90 599 101 613 b 157 572 146 613 157 599 z "},"Ờ":{"ha":292,"x_min":null,"x_max":null,"o":"m 236 804 b 218 878 236 833 231 858 b 242 875 228 875 236 875 b 289 947 276 875 289 899 b 283 992 289 964 288 983 l 243 992 b 246 954 244 983 246 964 b 210 919 246 929 238 919 b 124 926 186 919 151 926 b 14 806 54 926 14 883 l 14 114 b 126 -4 14 38 53 -4 b 236 113 197 -4 236 33 z m 160 108 b 125 67 160 81 147 67 b 90 108 101 67 90 81 l 90 813 b 125 854 90 839 103 854 b 160 811 147 854 160 839 z m 154 953 l 183 982 l 81 1121 l 42 1076 z "},"ờ":{"ha":281,"x_min":null,"x_max":null,"o":"m 153 704 l 182 733 l 79 872 l 40 828 z m 229 572 b 218 628 229 594 225 613 b 233 626 224 626 228 626 b 278 700 265 626 278 650 b 272 744 278 717 276 736 l 232 744 b 235 707 233 736 235 717 b 201 671 235 679 226 671 b 121 679 178 671 151 679 b 18 572 53 679 18 643 l 18 101 b 124 -4 18 29 51 -4 b 229 101 197 -4 229 29 z m 157 101 b 124 63 157 75 146 63 b 90 101 101 63 90 75 l 90 572 b 124 613 90 599 101 613 b 157 572 146 613 157 599 z "},"Ở":{"ha":292,"x_min":null,"x_max":null,"o":"m 236 804 b 218 878 236 833 231 858 b 242 875 228 875 236 875 b 289 947 276 875 289 899 b 283 992 289 964 288 983 l 243 992 b 246 954 244 983 246 964 b 210 919 246 929 238 919 b 124 926 186 919 151 926 b 14 806 54 926 14 883 l 14 114 b 126 -4 14 38 53 -4 b 236 113 197 -4 236 33 z m 160 108 b 125 67 160 81 147 67 b 90 108 101 67 90 81 l 90 813 b 125 854 90 839 103 854 b 160 811 147 854 160 839 z m 139 961 b 185 1032 139 989 185 988 b 131 1085 185 1064 161 1085 b 75 1065 114 1085 90 1078 l 89 1025 b 124 1040 99 1035 110 1040 b 143 1025 138 1040 143 1035 b 103 961 143 1000 103 1003 z "},"ở":{"ha":281,"x_min":null,"x_max":null,"o":"m 229 572 b 218 628 229 594 225 613 b 233 626 224 626 228 626 b 278 700 265 626 278 650 b 272 744 278 717 276 736 l 232 744 b 235 707 233 736 235 717 b 201 671 235 679 226 671 b 121 679 178 671 151 679 b 18 572 53 679 18 643 l 18 101 b 124 -4 18 29 51 -4 b 229 101 197 -4 229 29 z m 157 101 b 124 63 157 75 146 63 b 90 101 101 63 90 75 l 90 572 b 124 613 90 599 101 613 b 157 572 146 613 157 599 z m 140 713 b 186 783 140 740 186 739 b 132 836 186 815 163 836 b 76 817 115 836 92 829 l 90 776 b 125 792 100 786 111 792 b 144 776 139 792 144 786 b 104 713 144 751 104 754 z "},"Ỡ":{"ha":292,"x_min":null,"x_max":null,"o":"m 236 804 b 218 878 236 833 231 858 b 242 875 228 875 236 875 b 289 947 276 875 289 899 b 283 992 289 964 288 983 l 243 992 b 246 954 244 983 246 964 b 210 919 246 929 238 919 b 124 926 186 919 151 926 b 14 806 54 926 14 883 l 14 114 b 126 -4 14 38 53 -4 b 236 113 197 -4 236 33 z m 160 108 b 125 67 160 81 147 67 b 90 108 101 67 90 81 l 90 813 b 125 854 90 839 103 854 b 160 811 147 854 160 839 z m 192 1033 b 163 1010 186 1017 176 1010 b 82 1038 136 1010 113 1038 b 29 988 58 1038 38 1021 l 61 969 b 89 993 65 986 78 993 b 171 964 117 993 139 964 b 222 1014 194 964 214 981 z "},"ỡ":{"ha":281,"x_min":null,"x_max":null,"o":"m 229 572 b 218 628 229 594 225 613 b 233 626 224 626 228 626 b 278 700 265 626 278 650 b 272 744 278 717 276 736 l 232 744 b 235 707 233 736 235 717 b 201 671 235 679 226 671 b 121 679 178 671 151 679 b 18 572 53 679 18 643 l 18 101 b 124 -4 18 29 51 -4 b 229 101 197 -4 229 29 z m 157 101 b 124 63 157 75 146 63 b 90 101 101 63 90 75 l 90 572 b 124 613 90 599 101 613 b 157 572 146 613 157 599 z m 190 785 b 161 761 185 768 175 761 b 81 789 135 761 111 789 b 28 739 57 789 36 772 l 60 721 b 88 744 64 738 76 744 b 169 715 115 744 138 715 b 221 765 193 715 213 732 z "},"Ợ":{"ha":292,"x_min":null,"x_max":null,"o":"m 236 804 b 218 878 236 833 231 858 b 242 875 228 875 236 875 b 289 947 276 875 289 899 b 283 992 289 964 288 983 l 243 992 b 246 954 244 983 246 964 b 210 919 246 929 238 919 b 124 926 186 919 151 926 b 14 806 54 926 14 883 l 14 114 b 126 -4 14 38 53 -4 b 236 113 197 -4 236 33 z m 160 108 b 125 67 160 81 147 67 b 90 108 101 67 90 81 l 90 813 b 125 854 90 839 103 854 b 160 811 147 854 160 839 z m 163 -154 l 163 -51 l 88 -51 l 88 -154 z "},"ợ":{"ha":281,"x_min":null,"x_max":null,"o":"m 229 572 b 218 628 229 594 225 613 b 233 626 224 626 228 626 b 278 700 265 626 278 650 b 272 744 278 717 276 736 l 232 744 b 235 707 233 736 235 717 b 201 671 235 679 226 671 b 121 679 178 671 151 679 b 18 572 53 679 18 643 l 18 101 b 124 -4 18 29 51 -4 b 229 101 197 -4 229 29 z m 157 101 b 124 63 157 75 146 63 b 90 101 101 63 90 75 l 90 572 b 124 613 90 599 101 613 b 157 572 146 613 157 599 z m 161 -154 l 161 -51 l 86 -51 l 86 -154 z "},"Ụ":{"ha":256,"x_min":null,"x_max":null,"o":"m 161 108 b 126 67 161 81 150 67 b 92 108 104 67 92 81 l 92 922 l 17 922 l 17 113 b 128 -4 17 33 57 -4 b 238 114 200 -4 238 38 l 238 922 l 161 922 z m 164 -154 l 164 -51 l 89 -51 l 89 -154 z "},"ụ":{"ha":251,"x_min":null,"x_max":null,"o":"m 18 675 l 18 106 b 92 -4 18 49 25 -4 b 157 42 125 -4 140 8 l 163 42 l 164 0 l 233 0 l 233 675 l 160 675 l 160 107 b 124 60 156 74 147 60 b 93 106 100 60 93 74 l 93 675 z m 164 -154 l 164 -51 l 89 -51 l 89 -154 z "},"Ủ":{"ha":256,"x_min":null,"x_max":null,"o":"m 161 108 b 126 67 161 81 150 67 b 92 108 104 67 92 81 l 92 922 l 17 922 l 17 113 b 128 -4 17 33 57 -4 b 238 114 200 -4 238 38 l 238 922 l 161 922 z m 140 961 b 186 1032 140 989 186 988 b 132 1085 186 1064 163 1085 b 76 1065 115 1085 92 1078 l 90 1025 b 125 1040 100 1035 111 1040 b 144 1025 139 1040 144 1035 b 104 961 144 1000 104 1003 z "},"ủ":{"ha":251,"x_min":null,"x_max":null,"o":"m 18 675 l 18 106 b 92 -4 18 49 25 -4 b 157 42 125 -4 140 8 l 163 42 l 164 0 l 233 0 l 233 675 l 160 675 l 160 107 b 124 60 156 74 147 60 b 93 106 100 60 93 74 l 93 675 z m 142 713 b 188 783 142 740 188 739 b 133 836 188 815 164 836 b 78 817 117 836 93 829 l 92 776 b 126 792 101 786 113 792 b 146 776 140 792 146 786 b 106 713 146 751 106 754 z "},"Ứ":{"ha":317,"x_min":null,"x_max":null,"o":"m 161 108 b 126 67 161 81 150 67 b 92 108 104 67 92 79 l 92 922 l 17 922 l 17 113 b 128 -4 17 33 57 -4 b 238 114 201 -4 238 38 l 238 879 b 268 875 250 878 260 875 b 314 947 301 875 314 897 b 308 992 314 965 313 983 l 267 992 b 271 957 269 982 271 965 b 243 922 271 932 263 922 l 161 922 z m 210 1076 l 171 1121 l 68 982 l 97 953 z "},"ứ":{"ha":310,"x_min":null,"x_max":null,"o":"m 210 828 l 171 872 l 68 733 l 97 704 z m 18 675 l 18 132 b 90 -4 18 57 26 -4 b 158 42 128 -4 146 15 l 163 42 l 164 0 l 233 0 l 233 632 b 260 628 243 629 253 628 b 307 700 294 628 307 651 b 300 744 307 718 306 736 l 260 744 b 264 708 263 735 264 718 b 238 675 264 685 256 675 l 160 675 l 160 96 b 122 60 151 71 142 60 b 93 96 103 60 93 71 l 93 675 z "},"Ừ":{"ha":317,"x_min":null,"x_max":null,"o":"m 161 108 b 126 67 161 81 150 67 b 92 108 104 67 92 79 l 92 922 l 17 922 l 17 113 b 128 -4 17 33 57 -4 b 238 114 201 -4 238 38 l 238 879 b 268 875 250 878 260 875 b 314 947 301 875 314 897 b 308 992 314 965 313 983 l 267 992 b 271 957 269 982 271 965 b 243 922 271 932 263 922 l 161 922 z m 157 953 l 186 982 l 83 1121 l 44 1076 z "},"ừ":{"ha":310,"x_min":null,"x_max":null,"o":"m 156 704 l 185 733 l 82 872 l 43 828 z m 18 675 l 18 132 b 90 -4 18 57 26 -4 b 158 42 128 -4 146 15 l 163 42 l 164 0 l 233 0 l 233 632 b 260 628 243 629 253 628 b 307 700 294 628 307 651 b 300 744 307 718 306 736 l 260 744 b 264 708 263 735 264 718 b 238 675 264 685 256 675 l 160 675 l 160 96 b 122 60 151 71 142 60 b 93 96 103 60 93 71 l 93 675 z "},"Ử":{"ha":317,"x_min":null,"x_max":null,"o":"m 161 108 b 126 67 161 81 150 67 b 92 108 104 67 92 79 l 92 922 l 17 922 l 17 113 b 128 -4 17 33 57 -4 b 238 114 201 -4 238 38 l 238 879 b 268 875 250 878 260 875 b 314 947 301 875 314 897 b 308 992 314 965 313 983 l 267 992 b 271 957 269 982 271 965 b 243 922 271 932 263 922 l 161 922 z m 142 961 b 188 1032 142 989 188 988 b 133 1085 188 1064 164 1085 b 78 1065 117 1085 93 1078 l 92 1025 b 126 1040 101 1035 113 1040 b 146 1025 140 1040 146 1035 b 106 961 146 1000 106 1003 z "},"ử":{"ha":310,"x_min":null,"x_max":null,"o":"m 18 675 l 18 132 b 90 -4 18 57 26 -4 b 158 42 128 -4 146 15 l 163 42 l 164 0 l 233 0 l 233 632 b 260 628 243 629 253 628 b 307 700 294 628 307 651 b 300 744 307 718 306 736 l 260 744 b 264 708 263 735 264 718 b 238 675 264 685 256 675 l 160 675 l 160 96 b 122 60 151 71 142 60 b 93 96 103 60 93 71 l 93 675 z m 140 713 b 186 783 140 740 186 739 b 132 836 186 815 163 836 b 76 817 115 836 92 829 l 90 776 b 125 792 100 786 111 792 b 144 776 139 792 144 786 b 104 713 144 751 104 754 z "},"Ữ":{"ha":317,"x_min":null,"x_max":null,"o":"m 161 108 b 126 67 161 81 150 67 b 92 108 104 67 92 79 l 92 922 l 17 922 l 17 113 b 128 -4 17 33 57 -4 b 238 114 201 -4 238 38 l 238 879 b 268 875 250 878 260 875 b 314 947 301 875 314 897 b 308 992 314 965 313 983 l 267 992 b 271 957 269 982 271 965 b 243 922 271 932 263 922 l 161 922 z m 192 1029 b 163 1006 186 1013 176 1006 b 82 1033 136 1006 113 1033 b 29 983 58 1033 38 1017 l 61 965 b 89 989 65 982 78 989 b 171 960 117 989 139 960 b 222 1010 194 960 214 976 z "},"ữ":{"ha":310,"x_min":null,"x_max":null,"o":"m 192 785 b 163 761 186 768 176 761 b 82 789 136 761 113 789 b 29 739 58 789 38 772 l 61 721 b 89 744 65 738 78 744 b 171 715 117 744 139 715 b 222 765 194 715 214 732 z m 18 675 l 18 132 b 90 -4 18 57 26 -4 b 158 42 128 -4 146 15 l 163 42 l 164 0 l 233 0 l 233 632 b 260 628 243 629 253 628 b 307 700 294 628 307 651 b 300 744 307 718 306 736 l 260 744 b 264 708 263 735 264 718 b 238 675 264 685 256 675 l 160 675 l 160 96 b 122 60 151 71 142 60 b 93 96 103 60 93 71 l 93 675 z "},"Ự":{"ha":317,"x_min":null,"x_max":null,"o":"m 161 108 b 126 67 161 81 150 67 b 92 108 104 67 92 79 l 92 922 l 17 922 l 17 113 b 128 -4 17 33 57 -4 b 238 114 201 -4 238 38 l 238 879 b 268 875 250 878 260 875 b 314 947 301 875 314 897 b 308 992 314 965 313 983 l 267 992 b 271 957 269 982 271 965 b 243 922 271 932 263 922 l 161 922 z m 164 -154 l 164 -51 l 89 -51 l 89 -154 z "},"ự":{"ha":310,"x_min":null,"x_max":null,"o":"m 18 675 l 18 132 b 90 -4 18 57 26 -4 b 158 42 128 -4 146 15 l 163 42 l 164 0 l 233 0 l 233 632 b 260 628 243 629 253 628 b 307 700 294 628 307 651 b 300 744 307 718 306 736 l 260 744 b 264 708 263 735 264 718 b 238 675 264 685 256 675 l 160 675 l 160 96 b 122 60 151 71 142 60 b 93 96 103 60 93 71 l 93 675 z m 164 -154 l 164 -51 l 89 -51 l 89 -154 z "},"Ỳ":{"ha":256,"x_min":null,"x_max":null,"o":"m 168 0 l 168 381 l 251 922 l 172 922 l 132 575 l 126 575 l 83 922 l 4 922 l 90 381 l 90 0 z m 157 953 l 186 982 l 83 1121 l 44 1076 z "},"ỳ":{"ha":251,"x_min":null,"x_max":null,"o":"m 93 675 l 18 675 l 18 104 b 92 0 18 28 46 0 b 154 39 124 0 142 11 l 158 39 l 158 -218 b 125 -257 158 -243 147 -257 b 92 -218 103 -257 92 -243 l 92 -42 l 19 -42 l 19 -218 b 125 -324 19 -289 53 -324 b 232 -218 197 -324 232 -289 l 232 675 l 161 675 l 161 111 b 125 68 156 83 149 68 b 93 107 104 68 93 79 z m 156 704 l 185 733 l 82 872 l 43 828 z "},"Ỷ":{"ha":256,"x_min":null,"x_max":null,"o":"m 168 0 l 168 381 l 251 922 l 172 922 l 132 575 l 126 575 l 83 922 l 4 922 l 90 381 l 90 0 z m 146 961 b 192 1032 146 989 192 988 b 138 1085 192 1064 168 1085 b 82 1065 121 1085 97 1078 l 96 1025 b 131 1040 106 1035 117 1040 b 150 1025 144 1040 150 1035 b 110 961 150 1000 110 1003 z "},"ỷ":{"ha":251,"x_min":null,"x_max":null,"o":"m 93 675 l 18 675 l 18 104 b 92 0 18 28 46 0 b 154 39 124 0 142 11 l 158 39 l 158 -218 b 125 -257 158 -243 147 -257 b 92 -218 103 -257 92 -243 l 92 -42 l 19 -42 l 19 -218 b 125 -324 19 -289 53 -324 b 232 -218 197 -324 232 -289 l 232 675 l 161 675 l 161 111 b 125 68 156 83 149 68 b 93 107 104 68 93 79 z m 142 713 b 188 783 142 740 188 739 b 133 836 188 815 164 836 b 78 817 117 836 93 829 l 92 776 b 126 792 101 786 113 792 b 146 776 140 792 146 786 b 106 713 146 751 106 754 z "},"–":{"ha":174,"x_min":null,"x_max":null,"o":"m 160 392 l 160 456 l 13 456 l 13 392 z "},"—":{"ha":249,"x_min":null,"x_max":null,"o":"m 235 392 l 235 456 l 13 456 l 13 392 z "},"‘":{"ha":110,"x_min":null,"x_max":null,"o":"m 92 950 b 17 835 42 939 17 901 l 17 661 l 92 661 l 92 776 l 60 776 l 60 844 b 92 908 60 875 69 894 z "},"’":{"ha":110,"x_min":null,"x_max":null,"o":"m 17 644 b 92 760 65 656 92 692 l 92 933 l 17 933 l 17 818 l 50 818 l 50 749 b 17 686 50 719 38 700 z "},"‚":{"ha":110,"x_min":null,"x_max":null,"o":"m 17 -175 b 92 -60 65 -164 92 -128 l 92 114 l 17 114 l 17 0 l 50 0 l 50 -69 b 17 -132 50 -100 38 -119 z "},"“":{"ha":217,"x_min":null,"x_max":null,"o":"m 92 950 b 17 835 42 939 17 901 l 17 661 l 92 661 l 92 776 l 60 776 l 60 844 b 92 908 60 875 69 894 z m 199 950 b 124 835 149 939 124 901 l 124 661 l 199 661 l 199 776 l 167 776 l 167 844 b 199 908 167 875 176 894 z "},"”":{"ha":215,"x_min":null,"x_max":null,"o":"m 17 644 b 92 760 65 656 92 692 l 92 933 l 17 933 l 17 818 l 50 818 l 50 749 b 17 686 50 719 38 700 z m 122 644 b 197 760 171 656 197 692 l 197 933 l 122 933 l 122 818 l 156 818 l 156 749 b 122 686 156 719 143 700 z "},"„":{"ha":215,"x_min":null,"x_max":null,"o":"m 17 -175 b 92 -60 65 -164 92 -128 l 92 114 l 17 114 l 17 0 l 50 0 l 50 -69 b 17 -132 50 -100 38 -119 z m 122 -175 b 197 -60 171 -164 197 -128 l 197 114 l 122 114 l 122 0 l 156 0 l 156 -69 b 122 -132 156 -100 143 -119 z "},"†":{"ha":211,"x_min":null,"x_max":null,"o":"m 129 0 l 129 678 l 194 678 l 194 719 l 129 719 l 129 922 l 83 922 l 83 719 l 17 719 l 17 678 l 83 678 l 83 0 z "},"‡":{"ha":210,"x_min":null,"x_max":null,"o":"m 129 0 l 129 201 l 194 201 l 194 244 l 129 244 l 129 676 l 194 676 l 194 719 l 129 719 l 129 922 l 83 922 l 83 719 l 17 719 l 17 676 l 83 676 l 83 244 l 17 244 l 17 201 l 83 201 l 83 0 z "},"•":{"ha":156,"x_min":null,"x_max":null,"o":"m 78 394 b 140 461 113 394 140 424 b 78 528 140 500 113 528 b 17 461 43 528 17 500 b 78 394 17 424 43 394 z "},"…":{"ha":321,"x_min":null,"x_max":null,"o":"m 197 0 l 197 114 l 122 114 l 122 0 z m 304 0 l 304 114 l 228 114 l 228 0 z m 92 0 l 92 114 l 17 114 l 17 0 z "},"‰":{"ha":381,"x_min":null,"x_max":null,"o":"m 67 -15 l 235 940 l 188 940 l 21 -15 z m 257 338 b 201 411 257 388 236 411 b 144 338 164 411 144 386 l 144 74 b 201 -3 144 24 164 -3 b 257 72 236 -3 257 22 z m 215 72 b 201 36 215 47 211 36 b 186 72 190 36 186 47 l 186 338 b 201 374 186 361 190 374 b 215 338 211 374 215 363 z m 378 338 b 322 411 378 388 357 411 b 265 338 285 411 265 386 l 265 74 b 322 -3 265 24 285 -3 b 378 72 357 -3 378 22 z m 336 72 b 322 36 336 47 332 36 b 307 72 311 36 307 47 l 307 338 b 322 374 307 361 311 374 b 336 338 332 374 336 363 z m 114 850 b 58 924 114 900 93 924 b 1 850 21 924 1 899 l 1 586 b 58 510 1 536 21 510 b 114 585 93 510 114 535 z m 72 585 b 58 549 72 560 68 549 b 43 585 47 549 43 560 l 43 850 b 58 886 43 874 47 886 b 72 850 68 886 72 875 z "},"‹":{"ha":121,"x_min":null,"x_max":null,"o":"m 81 296 l 114 321 l 51 442 l 114 561 l 81 588 l 7 442 z "},"›":{"ha":121,"x_min":null,"x_max":null,"o":"m 39 296 l 114 443 l 39 589 l 7 563 l 69 443 l 7 322 z "},"⁄":{"ha":58,"x_min":null,"x_max":null,"o":"m -31 -15 l 138 940 l 90 940 l -76 -15 z "},"⁰":{"ha":143,"x_min":null,"x_max":null,"o":"m 128 850 b 72 924 128 900 107 924 b 15 850 35 924 15 899 l 15 586 b 72 510 15 536 35 510 b 128 585 107 510 128 535 z m 86 585 b 72 549 86 560 82 549 b 57 585 61 549 57 560 l 57 850 b 72 886 57 874 61 886 b 86 850 82 886 86 875 z "},"⁴":{"ha":142,"x_min":null,"x_max":null,"o":"m 72 635 l 44 635 l 67 797 l 72 797 z m 111 513 l 111 600 l 129 600 l 129 635 l 111 635 l 111 922 l 58 922 l 13 635 l 13 600 l 72 600 l 72 513 z "},"⁵":{"ha":142,"x_min":null,"x_max":null,"o":"m 125 731 b 85 778 125 768 106 778 b 54 767 71 778 60 774 l 58 885 l 118 885 l 118 922 l 22 922 l 17 731 l 56 731 b 71 743 58 739 64 743 b 85 726 78 743 85 739 l 85 565 b 69 549 85 553 81 549 b 56 565 60 549 56 553 l 56 621 l 15 621 l 15 568 b 71 510 15 522 43 510 b 125 569 106 510 125 531 z "},"⁶":{"ha":142,"x_min":null,"x_max":null,"o":"m 125 717 b 89 757 125 742 111 757 b 58 739 75 757 65 751 l 57 739 l 57 868 b 72 886 57 879 61 886 b 85 869 82 886 85 879 l 85 797 l 125 797 l 125 869 b 72 924 125 906 106 924 b 15 864 35 924 15 903 l 15 569 b 71 510 15 531 33 510 b 125 568 106 510 125 529 z m 85 565 b 72 549 85 553 82 549 b 57 565 61 549 57 553 l 57 708 b 74 722 60 717 65 722 b 85 707 82 722 85 717 z "},"⁷":{"ha":119,"x_min":null,"x_max":null,"o":"m 68 513 b 106 889 68 632 75 763 l 106 922 l 13 922 l 13 883 l 69 883 b 28 513 46 769 28 632 z "},"⁸":{"ha":139,"x_min":null,"x_max":null,"o":"m 69 886 b 82 867 79 886 82 881 l 82 754 b 69 735 82 740 79 735 b 56 754 60 735 56 740 l 56 867 b 69 886 56 881 60 886 z m 69 510 b 125 568 106 510 125 532 l 125 665 b 99 717 125 692 118 708 l 99 721 b 122 763 115 725 122 740 l 122 871 b 69 924 122 900 106 924 b 18 871 33 924 18 900 l 18 763 b 40 721 18 740 25 725 l 40 717 b 14 665 19 708 14 692 l 14 568 b 69 510 14 532 32 510 z m 69 549 b 56 565 60 549 56 553 l 56 678 b 69 700 56 693 60 700 b 85 678 79 700 85 693 l 85 565 b 69 549 85 553 78 549 z "},"⁹":{"ha":142,"x_min":null,"x_max":null,"o":"m 15 722 b 51 682 15 697 31 682 b 79 700 65 682 72 688 l 85 700 l 85 565 b 69 549 85 554 79 549 b 56 565 60 549 56 554 l 56 626 l 17 626 l 17 569 b 69 510 17 535 28 510 b 125 572 115 510 125 539 l 125 865 b 71 924 125 903 114 924 b 15 865 26 924 15 903 z m 56 868 b 69 886 56 881 60 886 b 85 868 79 886 85 881 l 85 733 b 67 717 82 722 76 717 b 56 732 58 717 56 722 z "},"₀":{"ha":143,"x_min":null,"x_max":null,"o":"m 128 338 b 72 411 128 388 107 411 b 15 338 35 411 15 386 l 15 74 b 72 -3 15 24 35 -3 b 128 72 107 -3 128 22 z m 86 72 b 72 36 86 47 82 36 b 57 72 61 36 57 47 l 57 338 b 72 374 57 361 61 374 b 86 338 82 374 86 363 z "},"₁":{"ha":96,"x_min":null,"x_max":null,"o":"m 78 0 l 78 410 l 43 410 b 13 386 40 394 35 386 l 13 353 l 39 353 l 39 0 z "},"₂":{"ha":139,"x_min":null,"x_max":null,"o":"m 125 0 l 125 36 l 58 36 l 58 124 b 69 158 58 138 61 147 b 108 201 79 171 103 196 b 125 256 118 213 125 232 l 125 357 b 71 411 125 394 114 411 b 17 351 24 411 17 392 l 17 257 l 57 257 l 57 354 b 71 374 57 367 61 374 b 85 357 81 374 85 368 l 85 256 b 76 221 85 239 83 231 b 35 175 67 211 47 193 b 15 115 21 157 15 142 l 15 0 z "},"₃":{"ha":139,"x_min":null,"x_max":null,"o":"m 125 171 b 100 211 125 197 114 207 l 100 215 b 122 251 114 219 122 231 l 122 358 b 69 411 122 388 106 411 b 15 350 35 411 15 390 l 15 278 l 56 278 l 56 354 b 69 374 56 367 58 374 b 83 356 79 374 83 368 l 83 249 b 68 229 83 235 79 229 l 53 229 l 53 194 l 67 194 b 85 174 79 194 85 188 l 85 53 b 69 36 85 40 79 36 b 56 56 58 36 56 40 l 56 146 l 15 146 l 15 58 b 71 -3 15 17 35 -3 b 125 56 106 -3 125 18 z "},"₄":{"ha":142,"x_min":null,"x_max":null,"o":"m 72 122 l 44 122 l 67 285 l 72 285 z m 111 0 l 111 88 l 129 88 l 129 122 l 111 122 l 111 410 l 58 410 l 13 122 l 13 88 l 72 88 l 72 0 z "},"₅":{"ha":142,"x_min":null,"x_max":null,"o":"m 125 218 b 85 265 125 256 106 265 b 54 254 71 265 60 261 l 58 372 l 118 372 l 118 410 l 22 410 l 17 218 l 56 218 b 71 231 58 226 64 231 b 85 214 78 231 85 226 l 85 53 b 69 36 85 40 81 36 b 56 53 60 36 56 40 l 56 108 l 15 108 l 15 56 b 71 -3 15 10 43 -3 b 125 57 106 -3 125 18 z "},"₆":{"ha":142,"x_min":null,"x_max":null,"o":"m 125 204 b 89 244 125 229 111 244 b 58 226 75 244 65 239 l 57 226 l 57 356 b 72 374 57 367 61 374 b 85 357 82 374 85 367 l 85 285 l 125 285 l 125 357 b 72 411 125 393 106 411 b 15 351 35 411 15 390 l 15 57 b 71 -3 15 18 33 -3 b 125 56 106 -3 125 17 z m 85 53 b 72 36 85 40 82 36 b 57 53 61 36 57 40 l 57 196 b 74 210 60 204 65 210 b 85 194 82 210 85 204 z "},"₇":{"ha":119,"x_min":null,"x_max":null,"o":"m 68 0 b 106 376 68 119 75 250 l 106 410 l 13 410 l 13 371 l 69 371 b 28 0 46 257 28 119 z "},"₈":{"ha":139,"x_min":null,"x_max":null,"o":"m 69 374 b 82 354 79 374 82 368 l 82 242 b 69 222 82 228 79 222 b 56 242 60 222 56 228 l 56 354 b 69 374 56 368 60 374 z m 69 -3 b 125 56 106 -3 125 19 l 125 153 b 99 204 125 179 118 196 l 99 208 b 122 250 115 213 122 228 l 122 358 b 69 411 122 388 106 411 b 18 358 33 411 18 388 l 18 250 b 40 208 18 228 25 213 l 40 204 b 14 153 19 196 14 179 l 14 56 b 69 -3 14 19 32 -3 z m 69 36 b 56 53 60 36 56 40 l 56 165 b 69 188 56 181 60 188 b 85 165 79 188 85 181 l 85 53 b 69 36 85 40 78 36 z "},"₉":{"ha":142,"x_min":null,"x_max":null,"o":"m 15 210 b 51 169 15 185 31 169 b 79 188 65 169 72 175 l 85 188 l 85 53 b 69 36 85 42 79 36 b 56 53 60 36 56 42 l 56 114 l 17 114 l 17 57 b 69 -3 17 22 28 -3 b 125 60 115 -3 125 26 l 125 353 b 71 411 125 390 114 411 b 15 353 26 411 15 390 z m 56 356 b 69 374 56 368 60 374 b 85 356 79 374 85 368 l 85 221 b 67 204 82 210 76 204 b 56 219 58 204 56 210 z "},"₩":{"ha":379,"x_min":null,"x_max":null,"o":"m 160 0 l 171 354 l 204 354 l 218 0 l 318 0 l 333 354 l 372 354 l 372 401 l 335 401 l 342 567 l 372 567 l 372 614 l 344 614 l 358 922 l 293 922 l 283 614 l 242 614 l 228 922 l 149 922 l 135 614 l 94 614 l 86 922 l 18 922 l 31 614 l 7 614 l 7 567 l 33 567 l 40 401 l 7 401 l 7 354 l 42 354 l 58 0 z m 244 567 l 282 567 l 276 401 l 251 401 z m 96 567 l 133 567 l 126 401 l 101 401 z m 178 567 l 197 567 l 203 401 l 172 401 z m 110 142 l 103 354 l 124 354 l 115 142 z m 264 142 l 254 354 l 275 354 l 269 142 z m 185 767 l 190 767 l 196 614 l 179 614 z "},"₪":{"ha":313,"x_min":null,"x_max":null,"o":"m 219 94 l 219 850 b 167 922 219 907 201 922 l 17 922 l 17 0 l 65 0 l 65 846 l 146 846 b 169 818 161 846 169 839 l 169 94 z m 93 826 l 93 71 b 146 0 93 14 110 0 l 296 0 l 296 922 l 246 922 l 246 74 l 167 74 b 142 104 150 74 142 82 l 142 826 z "},"₫":{"ha":211,"x_min":null,"x_max":null,"o":"m 183 125 l 183 814 l 204 814 l 204 854 l 183 854 l 183 933 l 129 933 l 129 854 l 39 854 l 39 814 l 129 814 l 129 650 l 124 650 b 76 675 118 664 101 675 b 18 617 44 675 18 656 l 18 181 b 75 121 18 143 40 121 b 128 153 104 121 121 136 l 133 153 l 135 125 z m 72 601 b 100 626 72 619 85 626 b 131 597 118 626 126 617 l 131 194 b 100 169 126 179 119 169 b 72 196 82 169 72 179 z m 183 0 l 183 40 l 13 40 l 13 0 z "},"€":{"ha":239,"x_min":null,"x_max":null,"o":"m 188 103 b 144 67 176 81 164 67 b 113 108 124 67 113 81 l 113 349 l 161 349 l 167 396 l 113 396 l 113 543 l 178 543 l 182 589 l 113 589 l 113 813 b 153 854 113 839 125 854 b 194 835 168 854 182 847 l 207 908 b 149 926 193 921 174 926 b 36 806 74 926 36 883 l 36 589 l 17 589 l 13 543 l 36 543 l 36 396 l 17 396 l 13 349 l 36 349 l 36 114 b 135 -4 36 38 74 -4 b 231 57 178 -4 208 15 z "},"₭":{"ha":286,"x_min":null,"x_max":null,"o":"m 272 468 l 272 519 l 186 519 l 269 922 l 190 922 l 117 519 l 114 519 l 114 922 l 35 922 l 35 519 l 7 519 l 7 468 l 35 468 l 35 0 l 114 0 l 114 468 l 117 468 l 190 0 l 268 0 l 189 468 z "},"₮":{"ha":243,"x_min":null,"x_max":null,"o":"m 219 521 l 219 575 l 160 540 l 160 851 l 232 851 l 232 922 l 11 922 l 11 851 l 82 851 l 82 497 l 22 464 l 22 410 l 82 443 l 82 307 l 26 275 l 26 221 l 82 251 l 82 0 l 160 0 l 160 296 l 224 332 l 224 388 l 160 351 l 160 486 z "},"₱":{"ha":275,"x_min":null,"x_max":null,"o":"m 275 528 l 275 586 l 249 586 l 249 692 l 275 692 l 275 749 l 249 749 l 249 826 b 158 922 249 886 224 922 l 28 922 l 28 749 l 0 749 l 0 692 l 28 692 l 28 586 l 0 586 l 0 528 l 28 528 l 28 0 l 106 0 l 106 360 l 158 360 b 249 454 224 360 249 394 l 249 528 z m 106 692 l 175 692 l 175 586 l 106 586 z m 106 851 l 143 851 b 175 818 165 851 175 840 l 175 749 l 106 749 z m 143 428 l 106 428 l 106 528 l 175 528 l 175 467 b 143 428 175 442 165 428 z "},"₲":{"ha":251,"x_min":null,"x_max":null,"o":"m 64 -15 l 67 6 b 114 -4 81 0 96 -4 b 176 29 149 -4 167 11 l 182 29 l 185 0 l 235 0 l 235 464 l 147 464 l 178 643 l 235 643 l 235 804 b 219 874 235 831 229 854 l 232 940 l 183 940 l 179 915 b 125 926 164 922 146 926 b 17 806 54 926 17 882 l 17 114 b 28 50 17 89 19 67 l 17 -15 z m 161 394 l 161 104 b 126 67 158 78 146 67 b 93 151 104 67 93 81 l 135 394 z m 93 813 b 126 854 93 839 104 854 b 161 813 149 854 160 839 l 99 424 l 93 424 z "},"₴":{"ha":261,"x_min":null,"x_max":null,"o":"m 260 386 l 260 424 l 132 424 l 200 500 l 260 500 l 260 536 l 222 536 b 246 672 238 568 246 618 l 246 817 b 135 926 246 881 210 926 b 24 804 57 926 24 876 l 24 635 l 96 635 l 96 813 b 132 854 96 838 107 854 b 168 818 157 854 168 839 l 168 664 b 129 536 168 592 163 579 l 3 536 l 3 500 l 96 500 l 32 424 l 3 424 l 3 386 l 18 386 b 15 326 15 369 15 351 l 15 118 b 129 -4 15 36 50 -4 b 247 124 213 -4 247 40 l 247 276 l 175 276 l 175 110 b 133 67 175 82 163 67 b 94 106 107 67 94 81 l 94 294 b 106 386 94 343 97 368 z "},"₸":{"ha":217,"x_min":null,"x_max":null,"o":"m 140 0 l 140 725 l 207 725 l 207 792 l 13 792 l 13 725 l 79 725 l 79 0 z m 207 857 l 207 922 l 13 922 l 13 857 z "}}}
